<?xml version="1.0" encoding="utf-8"?>
<!-- Generator: Adobe Illustrator 24.0.0, SVG Export Plug-In . SVG Version: 6.00 Build 0)  -->
<svg version="1.1" id="Layer_1" xmlns="http://www.w3.org/2000/svg" xmlns:xlink="http://www.w3.org/1999/xlink" x="0px" y="0px"
	 viewBox="0 0 147.3 85.47" style="enable-background:new 0 0 147.3 85.47;" xml:space="preserve">
<g>
	<path d="M87.19,40.46C81.78,52.3,76.38,64.14,70.88,76.18c-7.14-15.24-14.2-30.32-21.34-45.55c1.48,0,2.81-0.03,4.13,0.03
		c0.21,0.01,0.45,0.41,0.58,0.68c1.6,3.37,3.18,6.75,4.77,10.13c3.83,8.14,7.66,16.28,11.49,24.42c0.08,0.16,0.18,0.3,0.35,0.58
		c0.64-1.37,1.22-2.63,1.8-3.89c4.17-9.08,8.34-18.15,12.51-27.23c0.64-1.39,1.26-2.79,1.92-4.17c0.12-0.24,0.43-0.52,0.66-0.54
		c1.12-0.06,2.25-0.03,3.52-0.03c0.81,18.1,1.61,36.14,2.42,54.2c-3.66,0.22-7.26,0.43-10.92,0.65c-0.19-0.41-0.22-0.77,0.39-0.99
		c2.76-0.96,4.28-3.04,5.03-5.75c0.66-2.36,0.67-4.77,0.56-7.2c-0.37-8.21-0.72-16.42-1.07-24.64c-0.09-2.04-0.18-4.08-0.27-6.12
		c0-0.1-0.05-0.19-0.07-0.29C87.31,40.48,87.25,40.47,87.19,40.46z"/>
	<path d="M48.49,11.56c-0.09,2.06-0.18,4.12-0.27,6.18c-0.36,8.32-0.74,16.63-1.07,24.95c-0.11,2.63-0.26,5.27,0.59,7.83
		c0.92,2.76,2.77,4.47,5.64,5.04c0.68,0.14,0.68,0.14,0.52,1.02c-5.89-0.72-11.81-0.8-17.73,0.03c-0.15-0.5-0.27-0.87,0.29-1.06
		c2.99-0.99,4.53-3.3,5.5-6.1c0.92-2.67,1.15-5.45,1.27-8.25c0.47-11.16,0.95-22.33,1.4-33.49c0.02-0.4-0.18-0.9-0.45-1.21
		c-1.97-2.26-4.51-3.6-7.37-4.37c-0.53-0.14-0.93-0.31-0.65-1.06c0.92,0.07,1.88,0.16,2.83,0.2C41.99,1.39,45,1.52,48,1.6
		c0.54,0.02,0.8,0.19,1.03,0.67c2.61,5.6,5.24,11.18,7.87,16.77c3.67,7.8,7.33,15.6,11,23.4c1.36,2.89,2.73,5.78,4.05,8.68
		c0.15,0.32,0.11,0.83-0.04,1.16c-0.62,1.39-1.31,2.75-2.04,4.28c-7.1-15.12-14.13-30.1-21.16-45.08
		C48.63,11.52,48.56,11.54,48.49,11.56z"/>
	<path d="M131.88,55.93c-1.89,0-3.62,0.02-5.35-0.02c-0.26-0.01-0.54-0.31-0.75-0.54c-6.92-7.68-13.83-15.37-20.74-23.06
		c-1.08-1.2-2.15-2.4-3.23-3.6c-0.17-0.19-0.37-0.35-0.67-0.64c-0.02,0.43-0.05,0.68-0.05,0.93c0,5.72-0.02,11.45,0,17.17
		c0,1.07,0.09,2.15,0.25,3.21c0.48,3.18,2.4,5.13,5.41,6.05c0.54,0.17,0.89,0.37,0.62,1.07c-3.47-0.21-6.97-0.42-10.53-0.63
		c-0.01-0.31-0.04-0.6-0.04-0.89c0-17.47,0-34.93-0.02-52.4c0-0.78,0.23-0.99,0.98-1.02c2.92-0.12,5.85-0.31,8.77-0.46
		c0.26-0.01,0.53,0,0.83,0c0.1,0.43,0.2,0.8-0.39,0.94c-3.89,0.89-5.39,3.66-5.54,7.32c-0.2,4.96-0.25,9.93-0.36,14.9
		c-0.01,0.58,0,1.16,0,2.01c0.7-0.54,1.23-0.9,1.72-1.33c0.43-0.38,0.69-0.3,1.05,0.11c7.2,7.94,14.4,15.86,21.61,23.79
		c1.95,2.15,3.9,4.29,5.86,6.44C131.48,55.44,131.62,55.63,131.88,55.93z"/>
	<path d="M147.19,55.66c-1.9-0.15-3.77-0.32-5.64-0.45c-0.99-0.07-1.99-0.14-2.98-0.12c-0.6,0.01-1-0.19-1.38-0.62
		c-6.18-6.83-12.37-13.65-18.57-20.46c-3.68-4.05-7.37-8.1-11.06-12.16c-0.16-0.18-0.31-0.36-0.52-0.6c0.94-0.76,1.84-1.5,2.76-2.24
		c3.54-2.84,7.13-5.62,10.59-8.56c1.44-1.22,2.74-2.67,3.83-4.2c1.27-1.79,0.82-3.21-1.05-4.4c-0.32-0.2-0.64-0.41-0.99-0.54
		c-0.57-0.2-0.77-0.53-0.44-1.32c7.16,0.8,14.41,0.97,21.62,0.02c0.18,0.63,0.24,0.97-0.33,1.14c-5.76,1.65-10.72,4.78-15.38,8.42
		c-4.87,3.8-9.67,7.69-14.5,11.54c-0.12,0.1-0.23,0.21-0.4,0.37c1.19,1.32,2.35,2.61,3.51,3.9c6.32,6.99,12.63,14,18.98,20.96
		c2.23,2.44,4.64,4.71,7.4,6.56c1.26,0.84,2.57,1.57,4.09,1.81C147.31,54.8,147.4,55.08,147.19,55.66z"/>
	<path d="M0.1,1.08c0.15-0.01,0.26-0.03,0.36-0.03C4.08,1.27,7.7,1.48,11.41,1.7c0.02,0.28,0.06,0.59,0.06,0.9
		c0,17.46,0,34.93,0.02,52.39c0,0.79-0.24,0.95-1,0.98c-3.19,0.12-6.38,0.34-9.57,0.52c-0.26,0.01-0.53,0.03-0.85,0.05
		c0-0.31,0-0.55,0-0.85c2.01-0.35,3.54-1.47,4.8-3.01c1.06-1.29,1.56-2.83,1.78-4.43c0.28-2.04,0.53-4.11,0.55-6.17
		c0.06-8.89,0.07-17.79-0.01-26.68c-0.02-2.3-0.31-4.61-0.7-6.88C5.91,5.2,3.84,3.09,0.62,2.12C0.06,1.95-0.14,1.69,0.1,1.08z"/>
	<path d="M22.59,39.96c4.14-3.8,6.46-8.37,6.32-14.08c-0.13-5.61-2.51-10.15-6.44-14.02c5.16,1.88,9.8,4.37,11.56,10.09
		c1.7,5.51-0.17,11.06-4.77,14.55C27.25,38.04,25.01,39.15,22.59,39.96z"/>
	<path d="M15.64,34.9c2.7-2.48,4.21-5.45,4.12-9.17c-0.09-3.66-1.64-6.62-4.2-9.14c3.36,1.23,6.39,2.85,7.54,6.58
		c1.11,3.59-0.11,7.2-3.11,9.48C18.67,33.65,17.21,34.38,15.64,34.9z"/>
</g>
</svg>
