<svg width="200" height="200" viewBox="0 0 200 200" fill="none" xmlns="http://www.w3.org/2000/svg">
<path d="M190 100C195.523 100 200.052 104.489 199.501 109.984C197.606 128.867 190.366 146.898 178.532 161.909C164.626 179.549 145.186 191.993 123.345 197.237C101.503 202.481 78.5326 200.218 58.134 190.814C37.7354 181.41 21.0968 165.413 10.8994 145.399C0.701865 125.385 -2.46063 102.521 1.92147 80.491C6.30356 58.4607 17.975 38.5472 35.0552 23.9594C52.1353 9.37158 73.6294 0.958951 96.074 0.0770971C115.175 -0.673381 134.017 4.06742 150.408 13.6341C155.178 16.4181 156.147 22.7204 152.901 27.1885L147.023 35.2786C143.777 39.7467 137.548 40.6646 132.663 38.0876C121.823 32.3688 109.615 29.5682 97.2518 30.054C81.5406 30.6713 66.4947 36.5601 54.5386 46.7716C42.5825 56.9831 34.4125 70.9225 31.345 86.3437C28.2776 101.765 30.4913 117.77 37.6295 131.779C44.7678 145.789 56.4148 156.987 70.6938 163.57C84.9729 170.153 101.052 171.736 116.341 168.066C131.63 164.395 145.238 155.684 154.972 143.337C162.632 133.62 167.542 122.097 169.287 109.966C170.073 104.5 174.477 100 180 100L190 100Z" fill="#781F4C"/>
</svg>
