<svg id="Layer_1" data-name="Layer 1" xmlns="http://www.w3.org/2000/svg" viewBox="0 0 99.22 111.9"><defs><style>.cls-1{fill:#445caa;}.cls-2{fill:#4968b1;}.cls-3{fill:#ebebeb;}.cls-4{fill:#fff;}</style></defs><title>css</title><path class="cls-1" d="M264.59,284.48h98.75a.74.74,0,0,1,.23.69c-.1,2-.34,4-.5,6-.19,2.44-.44,4.87-.65,7.3-.19,2.25-.41,4.5-.61,6.75s-.43,4.78-.64,7.16c-.26,2.9-.53,5.79-.78,8.69-.2,2.32-.42,4.64-.62,7-.25,2.9-.52,5.79-.78,8.69-.2,2.3-.42,4.59-.62,6.89-.25,2.94-.53,5.89-.79,8.83-.2,2.27-.41,4.54-.61,6.82-.25,2.95-.54,5.89-.79,8.83-.2,2.32-.42,4.64-.62,7-.25,2.9-.5,5.8-.79,8.69,0,.23,0,.46,0,.7-.05,1-.13,1.05-1,1.3-4.53,1.28-9.07,2.53-13.6,3.78-5.08,1.39-10.14,2.83-15.23,4.2-2.59.7-5.16,1.43-7.74,2.17-.95.27-1.94.26-2.88.51h-.56c-4.25-.57-8.27-2-12.38-3.14-7.94-2.14-15.85-4.39-23.78-6.58-1.17-.32-2.34-.64-3.5-1a1,1,0,0,1-.81-1q-.57-6.46-1.15-12.94c-.4-4.45-.81-8.9-1.2-13.35q-.45-5.15-.91-10.29c-.35-3.89-.71-7.79-1.05-11.68q-.45-5.15-.91-10.29c-.34-3.87-.7-7.74-1.05-11.61-.3-3.43-.61-6.86-.91-10.29s-.6-6.72-.91-10.08c-.27-3-.57-5.93-.76-8.9C264.35,285,264.33,284.68,264.59,284.48Z" transform="translate(-264.36 -284.48)"/><path class="cls-2" d="M314,305V293.77c0-1,0-1,1-1h38.31c1,0,1,.14.95,1.11-.24,2.45-.45,4.91-.67,7.36l-.66,7.08c-.16,1.76-.3,3.52-.46,5.28-.26,2.89-.54,5.79-.79,8.68-.16,1.81-.3,3.61-.46,5.42s-.35,3.75-.52,5.62-.3,3.57-.46,5.35c-.21,2.41-.44,4.81-.65,7.22-.16,1.81-.31,3.61-.47,5.42-.21,2.38-.44,4.77-.65,7.15-.16,1.81-.31,3.61-.47,5.42q-.3,3.4-.61,6.81l-.51,5.62q-.09,1-.15,2c0,.47-.35.6-.74.71l-9.9,2.75-21.28,5.91c-.75.21-.8.18-.8-.59V376a2.14,2.14,0,0,0-.14-1,.4.4,0,0,1,.15-.19,4.86,4.86,0,0,1,1.68-.65c7.19-2,14.37-4,21.56-6,1.68-.46,1.73-.56,1.88-2.34q.36-4.32.77-8.62c.22-2.32.4-4.64.62-7,.27-2.9.51-5.8.78-8.69.22-2.29.4-4.59.61-6.89.27-2.92.52-5.84.79-8.76.21-2.32.4-4.64.61-7s.42-4.78.64-7.16c.16-1.69.3-3.39.46-5.08a1.69,1.69,0,0,0-.1-.89c-.55-.62-1.34-.41-2-.59a2.72,2.72,0,0,0-.7,0H315C314.65,305.25,314.25,305.39,314,305Z" transform="translate(-264.36 -284.48)"/><path class="cls-3" d="M314,375l-.14.05-15.64-4.36c-3-.84-6-1.68-9-2.49a.77.77,0,0,1-.66-.81c-.42-5-.86-9.93-1.29-14.89-.1-1.09-.17-2.18-.3-3.27-.06-.46,0-.61.52-.61q5.63,0,11.26,0c.46,0,.58.16.61.59.25,2.92.54,5.84.78,8.77a.62.62,0,0,0,.53.66l13,3.5a1.29,1.29,0,0,0,.34,0,.18.18,0,0,1,.23.09,2.41,2.41,0,0,1,.11,1q0,5.29,0,10.59C314.3,374.17,314.39,374.64,314,375Z" transform="translate(-264.36 -284.48)"/><path class="cls-3" d="M314,305l.91,0h29.24c.84,0,.84,0,.64.86a4.8,4.8,0,0,0-2.31-.38q-13.06,0-26.14,0h-.49c-1.33,0-1.51.18-1.51,1.48v8.46c0,1.37.17,1.54,1.52,1.54h13.91a7.38,7.38,0,0,1,1,0c.28,0,.58.07.53.48a1.15,1.15,0,0,1-1,.29q-7.68,0-15.37,0a1.09,1.09,0,0,1-1-.34c-.3,0-.6-.06-.9-.06q-14.06,0-28.11,0c-.7,0-.89-.19-.94-.88-.27-3.39-.59-6.77-.92-10.15-.13-1.34-.16-1.33,1.15-1.33h28.81Z" transform="translate(-264.36 -284.48)"/><path class="cls-3" d="M286.29,342.35l-.78-9c-.08-.93-.15-1.86-.24-2.78,0-.33.05-.49.4-.45a4,4,0,0,0,.49,0H313l.84,0a.26.26,0,0,1,.25.08,1,1,0,0,1,.21.72c0,3.58,0,7.15,0,10.73a1.06,1.06,0,0,1-.28.83,2,2,0,0,1-.69,0H287C286.77,342.45,286.5,342.57,286.29,342.35Z" transform="translate(-264.36 -284.48)"/><path class="cls-2" d="M286.29,342.35c.21,0,.42,0,.63,0H313.7l.28,0a1.11,1.11,0,0,1,1-.32c4.45,0,8.89,0,13.34,0,1,0,1.21.24,1.12,1.3-.13,1.74-.3,3.47-.46,5.21l-.63,6.95c-.05.6-.14,1.2-.16,1.81,0,1.19-.23,1.43-1.39,1.73-2.61.69-5.21,1.41-7.82,2.11-1.33.35-2.64.75-4,1.05-.29.06-.59.21-.84-.09l-.14,0V343.52c0-1,0-1-1-1H287.3C287,342.53,286.58,342.62,286.29,342.35Z" transform="translate(-264.36 -284.48)"/><path class="cls-2" d="M314,330.1l-.14-.05a1.94,1.94,0,0,0,.14-.95V317.48c.28,0,.55,0,.83,0h15.68c.28,0,.56,0,.83,0,.34.18.31.5.28.8l-.54,6.26c-.12,1.44-.28,2.87-.38,4.31a4.87,4.87,0,0,1-.06.55c-.18.88-.29,1-1.21,1-4.82,0-9.64,0-14.47,0A1.13,1.13,0,0,1,314,330.1Z" transform="translate(-264.36 -284.48)"/><path class="cls-4" d="M314,330.1c5.13,0,10.25,0,15.38,0,.63,0,.88-.12.94-.79.32-3.95.68-7.89,1-11.83a1.49,1.49,0,0,0-.95-.14H315c-1,0-1,0-1-1V306.11c0-.91,0-.94.95-.94h28.94c.54,0,.93.07.9.73-.21,2.55-.41,5.1-.64,7.66-.3,3.39-.61,6.77-.92,10.16l-.93,10.37c-.3,3.32-.59,6.63-.89,9.95l-.93,10.44c-.3,3.36-.59,6.73-.89,10.09-.09,1-.21,2-.27,3.06,0,.49-.38.46-.67.55l-15,4.16-9.34,2.59c-.11,0-.23,0-.34.05V363.1a2,2,0,0,1,.14-1l10.82-2.95c.74-.2,1.48-.41,2.22-.58a.67.67,0,0,0,.6-.69c.19-2.34.42-4.68.63-7s.44-4.82.65-7.23a2.72,2.72,0,0,1,.05-.49c.12-.6-.07-.79-.72-.78-4.52,0-9,0-13.55,0l-.84,0Q314,336.24,314,330.1Z" transform="translate(-264.36 -284.48)"/></svg>