<svg id="Layer_1" data-name="Layer 1" xmlns="http://www.w3.org/2000/svg" viewBox="0 0 99.21 99.21"><defs><style>.cls-1{fill:#333;}.cls-2{fill:#8163ab;}.cls-3{fill:#f05225;}.cls-4{fill:#f37264;}.cls-5{fill:#48ba80;}.cls-6{fill:#4ab9e8;}.cls-7{fill:#3b586c;}.cls-8{fill:#1e4b76;}.cls-9{fill:#6f5359;}.cls-10{fill:#266da4;}.cls-11{fill:#1c3558;}</style></defs><title>figma</title><path class="cls-1" d="M408.24,423.89H342.15a16.55,16.55,0,0,1-16.56-16.56V341.24a16.55,16.55,0,0,1,16.56-16.56h66.09a16.55,16.55,0,0,1,16.56,16.56v66.09A16.56,16.56,0,0,1,408.24,423.89Z" transform="translate(-325.59 -324.68)"/><path class="cls-2" d="M366.43,382.56a11.25,11.25,0,0,1-1.54-.26,8.12,8.12,0,0,1-5.81-5.43,8.21,8.21,0,0,1,2.31-8.73,8.39,8.39,0,0,1,4.6-2.09,2.1,2.1,0,0,0,.43-.05c.09-.13.23-.11.35-.11h8a1.05,1.05,0,0,1,.43,0l.08.05a.36.36,0,0,1,0,.09.93.93,0,0,1,0,.33v5.78c0,.33-.05.66,0,1v.27a1.87,1.87,0,0,0,0,.4c0,.22,0,.45,0,.67a2.18,2.18,0,0,0,0,.44.41.41,0,0,1-.07.3q0,3.5,0,7c0,.1,0,.21,0,.31s-.23.1-.35.1h-8C366.71,382.67,366.54,382.72,366.43,382.56Z" transform="translate(-325.59 -324.68)"/><path class="cls-3" d="M375.2,366h-8.77a8.13,8.13,0,0,1-5.84-3,8.23,8.23,0,0,1,.5-11.1,7.92,7.92,0,0,1,5.71-2.43c2.75,0,5.5,0,8.26,0h.19a.48.48,0,0,1,.07.35V365.5C375.31,365.68,375.37,365.87,375.2,366Z" transform="translate(-325.59 -324.68)"/><path class="cls-4" d="M375.2,366c0-.11,0-.23,0-.34V349.85c0-.12,0-.24,0-.36h8.09a8.15,8.15,0,0,1,2.85.46,8.07,8.07,0,0,1,5.4,6.23,8.23,8.23,0,0,1-5.43,9.4,9.86,9.86,0,0,1-2.08.43c-.14.11-.32.06-.48.11h-.65a2.78,2.78,0,0,0-.58,0h-6.78c-.13,0-.26,0-.37-.07Z" transform="translate(-325.59 -324.68)"/><path class="cls-5" d="M366.43,382.56h8.75c0,.06,0,.11,0,.17,0,2.73,0,5.46,0,8.19a8.26,8.26,0,1,1-10.66-8A9.62,9.62,0,0,1,366.43,382.56Z" transform="translate(-325.59 -324.68)"/><path class="cls-6" d="M383,366h.61c.16,0,.33,0,.49,0a8.27,8.27,0,1,1-8.68,10c-.06-.27-.1-.54-.15-.81-.05-.09,0-.19,0-.29a2.4,2.4,0,0,0,0-.46v-.67a1.7,1.7,0,0,0,0-.39v-.23a8.2,8.2,0,0,1,5.46-6.84,5.79,5.79,0,0,1,1.74-.35A5.06,5.06,0,0,0,383,366Z" transform="translate(-325.59 -324.68)"/><path class="cls-7" d="M384.07,366a1.6,1.6,0,0,1-.49,0h.48A.08.08,0,0,1,384.07,366Z" transform="translate(-325.59 -324.68)"/><path class="cls-8" d="M375.24,375c0,.1,0,.2,0,.3h0V375l0,0A0,0,0,0,1,375.24,375Z" transform="translate(-325.59 -324.68)"/><path class="cls-9" d="M382.44,366.09a.46.46,0,0,0-.23,0h-7s0,0,0,0H383A3.4,3.4,0,0,1,382.44,366.09Z" transform="translate(-325.59 -324.68)"/><path class="cls-10" d="M375.24,375h0v-.44A1.08,1.08,0,0,1,375.24,375Z" transform="translate(-325.59 -324.68)"/><path class="cls-10" d="M375.25,373.45a.78.78,0,0,1,0,.4v-.39S375.23,373.44,375.25,373.45Z" transform="translate(-325.59 -324.68)"/><path class="cls-11" d="M375.25,373.45h0v-.25h0Z" transform="translate(-325.59 -324.68)"/></svg>