<svg id="Layer_1" data-name="Layer 1" xmlns="http://www.w3.org/2000/svg" viewBox="0 0 99.21 96.71"><defs><style>.cls-1{fill:#441223;}.cls-2{fill:#ee3a69;}</style></defs><title>indesign</title><path class="cls-1" d="M325.59,406.11V342.46a10.48,10.48,0,0,0,.14-1.77,13.57,13.57,0,0,1,1.28-4.51,17.8,17.8,0,0,1,8.1-8.51A12.83,12.83,0,0,1,341,326a4.13,4.13,0,0,0,1.16-.08h66.08c.74.09,1.48.08,2.21.14a11.8,11.8,0,0,1,3.44.94,17.93,17.93,0,0,1,8.19,6.71,17.36,17.36,0,0,1,2.18,4.63,13,13,0,0,1,.45,3.22,3.57,3.57,0,0,0,.05,1v63.56c-.09.69-.07,1.4-.12,2.09a12.09,12.09,0,0,1-1.09,4,17.81,17.81,0,0,1-11.91,10.17,14.17,14.17,0,0,1-2.52.26c-.17,0-.34,0-.51.05H341.82c-.67-.09-1.35-.09-2-.15a12,12,0,0,1-3.63-1.05,17.79,17.79,0,0,1-10.29-12.36,18.54,18.54,0,0,1-.24-2.79A.23.23,0,0,0,325.59,406.11Z" transform="translate(-325.59 -325.93)"/><path class="cls-2" d="M398.84,368.75c0,5.85,0,11.71,0,17.56,0,1.72.14,3.43.23,5.14,0,.68,0,.8-.67,1.06a32.45,32.45,0,0,1-8.56,2.18,34.3,34.3,0,0,1-4.75.26,19.18,19.18,0,0,1-9.49-2.45,14.08,14.08,0,0,1-6.84-9.31,20.51,20.51,0,0,1-.36-7.92,16.54,16.54,0,0,1,5-9.66,17.49,17.49,0,0,1,8.75-4.55,24.13,24.13,0,0,1,7-.43l.19,0c.19,0,.3,0,.29-.25s0-.28,0-.42V347.75c0-.51.1-.59.62-.59h8c.56,0,.62.06.62.63v21Z" transform="translate(-325.59 -325.93)"/><path class="cls-2" d="M352.49,372.53V351.61c0-.83.08-.91.92-.91h7.5c.63,0,.77.14.78.78v41.83c0,.2,0,.41,0,.61a.52.52,0,0,1-.54.54H353a.46.46,0,0,1-.46-.45,5.43,5.43,0,0,1,0-.57Q352.49,383,352.49,372.53Z" transform="translate(-325.59 -325.93)"/><path class="cls-1" d="M389.62,377.64v8.45c0,.13,0,.25,0,.38a.28.28,0,0,1-.26.32,4.16,4.16,0,0,1-.69.12,28.2,28.2,0,0,1-3.44,0,9.16,9.16,0,0,1-4.2-1.43,7.45,7.45,0,0,1-2.76-3.73,12.36,12.36,0,0,1-.36-7,7.82,7.82,0,0,1,3.11-4.59,10,10,0,0,1,7.11-1.93,7.28,7.28,0,0,1,1,.14c.45.1.45.09.46.54v8.68Z" transform="translate(-325.59 -325.93)"/></svg>