<svg id="Layer_1" data-name="Layer 1" xmlns="http://www.w3.org/2000/svg" viewBox="0 0 99.2 112.5"><defs><style>.cls-1{fill:#dab92c;}.cls-2{fill:#ffd83c;}.cls-3{fill:#ebeceb;}.cls-4{fill:#fff;}.cls-5{fill:#ffd636;}</style></defs><title>js</title><path class="cls-1" d="M429.5,186.35c15.14,0,30.28.08,45.42-.06,3.27,0,4.38.37,4,4.23-2.44,24.92-4.51,49.88-6.71,74.82-.57,6.5-1.22,13-1.65,19.49-.15,2.24-1.21,3.13-3.21,3.68q-17.89,4.9-35.75,9.95a8.15,8.15,0,0,1-4.59,0c-11.77-3.34-23.55-6.67-35.36-9.88-2.37-.65-3.12-1.78-3.33-4.28q-4-46.19-8.31-92.35c-.51-5.6-.59-5.6,4.86-5.6Z" transform="translate(-379.79 -186.29)"/><path class="cls-2" d="M429.24,243.14c0-14.35.09-28.7-.06-43,0-3.57,1.12-4.79,4.72-4.73q15.84.28,31.7,0c3.56-.06,4.63,1.35,4.31,4.65q-1.91,19.62-3.67,39.26c-1.15,12.7-2.38,25.4-3.28,38.13-.23,3.22-1.08,4.94-4.38,5.76q-12.7,3.18-25.27,6.95c-3.34,1-4.13,0-4.11-3.16C429.29,272.36,429.24,257.75,429.24,243.14Z" transform="translate(-379.79 -186.29)"/><path class="cls-3" d="M425.34,241.37c0,10-.06,20.08.05,30.12,0,2.28-.49,3-2.81,2.29-7.88-2.28-15.77-4.5-23.7-6.58-2.08-.55-2.52-1.61-2.55-3.58-.16-8.84-.22-8.84,8.17-6.51a63.25,63.25,0,0,1,7.14,2c3.72,1.53,4.26.08,4.23-3.36-.16-14.73,0-29.47-.13-44.2,0-2.76.81-3.58,3.53-3.48,7.24.27,6-.78,6.06,5.95C425.4,223.11,425.34,232.24,425.34,241.37Z" transform="translate(-379.79 -186.29)"/><path class="cls-4" d="M433.22,209c.88-1,2.1-.86,3.26-.86,8.47,0,16.93.07,25.4-.05,2.5,0,3.44.53,3.12,3.29-1,8.4-.87,8.42-9.32,8.42-3.26,0-6.51.08-9.77,0-2-.07-2.85.52-2.79,2.63.11,4.16.1,8.33,0,12.5,0,2,.46,2.76,2.67,2.4,4.62-.75,9.3-1.13,13.94-1.79,2.37-.34,3.27.26,3,2.85-.85,8.94-1.52,17.9-2.21,26.85-.1,1.25-.27,2.24-1.74,2.62-8.19,2.07-16.37,4.21-24.56,6.28-.29.07-.68-.3-1-.46-.59-3.6-1.27-7.21.31-10.75,5-1.32,10-2.81,15-3.91,3.09-.67,4.44-1.9,4.45-5.33,0-5.81.29-5.8-5.39-4.89L433.44,251c-1.05-.36-.71-1.27-.71-2q0-19.12,0-38.26A2.19,2.19,0,0,1,433.22,209Z" transform="translate(-379.79 -186.29)"/><path class="cls-5" d="M433.22,209q.11,21,.22,42c-1.07-1-1.12-2.28-1.12-3.59q0-18.1,0-36.2C432.34,210.43,431.88,209.32,433.22,209Z" transform="translate(-379.79 -186.29)"/><path class="cls-5" d="M433.52,262.86c-.1,3.58-.21,7.17-.31,10.75A12.07,12.07,0,0,1,433.52,262.86Z" transform="translate(-379.79 -186.29)"/></svg>