<svg id="Layer_1" data-name="Layer 1" xmlns="http://www.w3.org/2000/svg" viewBox="0 0 913.48 530.06"><defs><style>.cls-1{fill:#fff;}</style></defs><title>logo2</title><path class="cls-1" d="M-84.59-530c-33.52,73.41-67,146.82-101.14,221.47L-318-591c9.18,0,17.4-.19,25.6.19,1.28.06,2.82,2.54,3.6,4.2,9.93,20.91,19.72,41.88,29.57,62.83q35.62,75.72,71.28,151.43c.47,1,1.12,1.89,2.15,3.61,4-8.53,7.59-16.32,11.19-24.13q38.81-84.42,77.6-168.86c4-8.62,7.78-17.31,11.92-25.85.72-1.48,2.66-3.26,4.12-3.33,7-.35,13.94-.16,21.81-.16q7.53,168.33,15,336.15l-67.71,4c-1.21-2.53-1.37-4.79,2.42-6.12,17.13-6,26.52-18.86,31.23-35.66,4.09-14.62,4.16-29.58,3.48-44.63-2.31-50.92-4.43-101.85-6.63-152.78q-.83-19-1.69-37.93a9,9,0,0,0-.44-1.81Z" transform="translate(625.31 780.91)"/><path class="cls-1" d="M-324.58-709.21l-1.68,38.3c-2.24,51.58-4.57,103.16-6.66,154.75-.66,16.29-1.62,32.67,3.68,48.55,5.71,17.09,17.17,27.72,35,31.28,4.22.84,4.21.89,3.21,6.3-36.54-4.47-73.21-4.94-109.95.18-.93-3.11-1.66-5.41,1.81-6.56,18.53-6.15,28.12-20.47,34.09-37.85,5.68-16.55,7.14-33.81,7.87-51.17q4.35-103.85,8.68-207.68a11.92,11.92,0,0,0-2.81-7.53c-12.22-14-28-22.32-45.71-27.11-3.31-.89-5.76-1.92-4-6.54,5.73.41,11.64,1,17.56,1.23,18.63.79,37.27,1.56,55.91,2.08,3.34.1,5,1.18,6.38,4.18q24.27,52,48.81,104l68.19,145.13c8.43,17.93,16.94,35.82,25.13,53.85a9.89,9.89,0,0,1-.25,7.23c-3.81,8.64-8.09,17.07-12.67,26.53L-323.25-709.6Z" transform="translate(625.31 780.91)"/><path class="cls-1" d="M192.54-434c-11.71,0-22.46.14-33.19-.15-1.58-.05-3.36-1.93-4.63-3.34Q90.37-509,26.11-580.56c-6.68-7.43-13.33-14.89-20-22.3C5-604,3.79-605,1.9-606.8c-.15,2.64-.31,4.21-.31,5.78,0,35.49-.12,71,0,106.48a136.65,136.65,0,0,0,1.57,19.9c3,19.72,14.86,31.81,33.58,37.54,3.35,1,5.53,2.27,3.83,6.63l-65.31-3.92c-.08-1.92-.23-3.72-.23-5.51q0-162.48-.12-325c0-4.85,1.44-6.12,6.1-6.3,18.14-.73,36.26-1.9,54.39-2.88,1.63-.08,3.27,0,5.14,0,.65,2.68,1.26,5-2.38,5.82C14-762.71,4.72-745.54,3.82-722.84c-1.23,30.78-1.55,61.59-2.23,92.39-.08,3.61,0,7.22,0,12.46,4.33-3.32,7.66-5.6,10.67-8.26,2.64-2.34,4.26-1.84,6.53.66Q85.7-551.74,152.79-478q18.15,20,36.31,39.92C190.06-437.08,190.94-435.94,192.54-434Z" transform="translate(625.31 780.91)"/><path class="cls-1" d="M287.54-435.74c-11.79-.95-23.39-2-35-2.78-6.14-.44-12.31-.86-18.46-.72a10.27,10.27,0,0,1-8.59-3.83Q168-506.58,110.34-570q-34.26-37.72-68.57-75.39c-1-1.1-1.92-2.25-3.2-3.75,5.8-4.71,11.44-9.31,17.11-13.87,21.95-17.63,44.24-34.85,65.7-53.06a144.07,144.07,0,0,0,23.76-26.05c7.9-11.08,5.1-19.92-6.5-27.29a32,32,0,0,0-6.12-3.35c-3.52-1.26-4.78-3.28-2.73-8.18,44.39,5,89.36,6,134.06.11,1.13,3.89,1.46,6-2.05,7-35.72,10.21-66.48,29.64-95.38,52.23-30.19,23.59-60,47.68-89.94,71.56-.76.61-1.42,1.33-2.46,2.31,7.35,8.16,14.54,16.17,21.77,24.16q58.81,65,117.7,130c13.82,15.15,28.75,29.21,45.91,40.67,7.81,5.21,16,9.74,25.38,11.22C288.28-441.06,288.81-439.33,287.54-435.74Z" transform="translate(625.31 780.91)"/><path class="cls-1" d="M-624.69-774.18a19.15,19.15,0,0,1,2.27-.16c22.42,1.3,44.84,2.62,67.84,4,.12,1.74.37,3.66.37,5.58q0,162.46.11,324.93c0,4.93-1.52,5.87-6.2,6.05-19.8.77-39.57,2.08-59.36,3.2l-5.28.32v-5.25c12.44-2.19,21.94-9.11,29.79-18.64,6.59-8,9.67-17.57,11-27.49,1.74-12.68,3.3-25.5,3.38-38.27.36-55.15.44-110.31,0-165.46A266,266,0,0,0-585.12-728c-3.57-20.6-16.39-33.72-36.34-39.73C-624.94-768.83-626.18-770.4-624.69-774.18Z" transform="translate(625.31 780.91)"/><path class="cls-1" d="M-485.23-533.12c25.66-23.59,40-51.91,39.21-87.31-.82-34.79-15.59-63-39.93-87,32,11.68,60.8,27.12,71.72,62.6,10.52,34.18-1,68.57-29.56,90.24A140.92,140.92,0,0,1-485.23-533.12Z" transform="translate(625.31 780.91)"/><path class="cls-1" d="M-528.34-564.48c16.72-15.37,26.09-33.82,25.55-56.89-.53-22.67-10.15-41-26-56.67,20.86,7.61,39.62,17.67,46.74,40.79,6.86,22.27-.68,44.68-19.26,58.8A91.89,91.89,0,0,1-528.34-564.48Z" transform="translate(625.31 780.91)"/></svg>