<svg id="Layer_1" data-name="Layer 1" xmlns="http://www.w3.org/2000/svg" viewBox="0 0 99.21 112.2"><defs><style>.cls-1{fill:#e35326;}.cls-2{fill:#ee672c;}.cls-3{fill:#ebebeb;}.cls-4{fill:#fff;}.cls-5{fill:#ef672c;}</style></defs><title>html</title><path class="cls-1" d="M399.37,378.81h-.44c-4.78-.94-9.39-2.53-14.09-3.8-4.95-1.35-9.87-2.78-14.8-4.17l-10.32-2.92c-1-.29-1.1-.21-1.23-1.57-.23-2.37-.42-4.75-.64-7.13-.17-1.85-.31-3.7-.48-5.55s-.32-3.66-.5-5.49c-.14-1.43-.24-2.87-.37-4.3-.17-1.85-.33-3.7-.5-5.55-.13-1.41-.25-2.83-.37-4.25-.15-1.81-.33-3.63-.49-5.44-.12-1.38-.25-2.76-.37-4.14-.17-1.92-.34-3.85-.52-5.77-.13-1.38-.23-2.76-.36-4.14-.18-1.9-.33-3.81-.51-5.71-.13-1.4-.24-2.8-.37-4.19-.18-1.89-.33-3.77-.51-5.66q-.19-2-.36-4.08c-.12-1.49-.28-3-.4-4.46l-.36-4.08c-.18-1.94-.33-3.88-.52-5.82-.13-1.36-.24-2.72-.36-4.08-.17-1.92-.34-3.85-.52-5.77-.11-1.2-.21-2.4-.32-3.59a.6.6,0,0,1,.2-.54H448.7a.65.65,0,0,1,.16.6c-.19,2.78-.48,5.55-.72,8.33-.21,2.45-.44,4.9-.65,7.35l-.66,7.4c-.24,2.63-.46,5.26-.72,7.89-.18,1.85-.31,3.7-.48,5.55-.21,2.23-.4,4.46-.61,6.69-.17,1.85-.32,3.7-.49,5.55-.21,2.23-.4,4.46-.61,6.69-.17,1.83-.33,3.66-.48,5.5s-.34,3.7-.5,5.55c-.13,1.41-.24,2.83-.37,4.25-.17,1.87-.32,3.74-.5,5.6-.14,1.4-.23,2.8-.37,4.19-.18,1.89-.33,3.77-.51,5.66-.13,1.38-.24,2.76-.36,4.14s-.28,2.94-.4,4.41-.25,2.79-.37,4.19c0,.11,0,.22,0,.33-.09,1-.19,1.17-1.17,1.44l-11.69,3.29-12.75,3.58-13.38,3.76C400.49,378.68,399.91,378.65,399.37,378.81Z" transform="translate(-349.66 -266.61)"/><path class="cls-2" d="M399.36,287.18c0-3.93,0-7.85,0-11.78,0-.56.16-.71.71-.71H439c.68,0,.66,0,.59.71-.14,1.43-.23,2.87-.36,4.3s-.28,2.9-.41,4.34-.23,2.83-.35,4.24-.28,2.93-.41,4.4-.23,2.83-.36,4.24-.28,2.86-.41,4.29c-.09,1-.16,2-.25,3-.13,1.49-.28,3-.41,4.45s-.23,2.79-.36,4.19-.27,2.9-.4,4.35c-.09,1-.16,2-.25,3.05-.13,1.52-.28,3-.41,4.56s-.23,2.83-.35,4.24-.27,2.82-.4,4.24c-.09,1-.17,2-.26,3-.13,1.5-.28,3-.41,4.51s-.23,2.83-.36,4.24-.28,2.86-.41,4.29-.24,2.83-.36,4.24-.27,2.93-.41,4.4c-.08.87-.19,1.74-.23,2.61,0,.39-.19.52-.54.61l-16.36,4.49q-7.59,2.08-15.19,4.2c-.49.14-.59,0-.59-.44q0-6.06,0-12.11c0-.43.41-.42.68-.5,1.31-.39,2.63-.74,3.95-1.1,5.42-1.48,10.83-3,16.25-4.48,1.16-.32,2.32-.66,3.48-.95a.82.82,0,0,0,.69-.8c.14-1.78.31-3.56.47-5.34s.32-3.74.5-5.6c.13-1.41.25-2.83.37-4.25.16-1.94.35-3.88.51-5.82.12-1.43.24-2.87.37-4.3s.26-3,.4-4.46.23-2.76.36-4.14c.07-.71.16-1.41.26-2.12.15-1,.12-1-.92-1H400.38c-.39,0-.82.12-1.14-.24a1.48,1.48,0,0,1-.14-.8q0-5.55,0-11.1a1.36,1.36,0,0,1,.16-.84.88.88,0,0,1,.71-.21c.77,0,1.53,0,2.3,0H427.9c1,0,1.05-.1,1.12-1.1.11-1.64.3-3.27.47-4.9s.36-3.48.45-5.23a.44.44,0,0,0-.46-.54c-.26,0-.51,0-.77,0H400.45C400.1,287.43,399.66,287.58,399.36,287.18Z" transform="translate(-349.66 -266.61)"/><path class="cls-3" d="M399.15,324.65l-.55,0H372.14c-.49,0-.64-.14-.68-.61-.25-3-.53-6-.8-9-.32-3.53-.64-7.05-1-10.58q-.4-4.47-.8-8.94c-.22-2.53-.42-5.06-.63-7.58-.07-.78-.07-.78.68-.78h29.53l.66,0a.71.71,0,0,1,.24.64q0,5.5,0,11a1.16,1.16,0,0,1-.16.63c-.25.3-.6.22-.92.22H383c-.84,0-.91,0-.84.86.16,1.92.32,3.85.49,5.77.13,1.47.27,2.94.37,4.41a4,4,0,0,0,.05.6.6.6,0,0,0,.67.58h14.4c.35,0,.74-.1,1,.2a1.27,1.27,0,0,1,.18.78c0,3.64,0,7.28,0,10.93C399.39,324.14,399.43,324.45,399.15,324.65Z" transform="translate(-349.66 -266.61)"/><path class="cls-4" d="M399.15,324.65V312.19a.15.15,0,0,1,.22,0l.66,0h27.45c.49,0,.63.06.54.61-.47,3-.64,6-.92,9-.29,3.2-.56,6.4-.84,9.6-.23,2.67-.46,5.35-.7,8-.3,3.44-.61,6.87-.9,10.31a.75.75,0,0,1-.66.8q-12,3.28-24,6.62a1.28,1.28,0,0,0-.6.22l-.22,0a.82.82,0,0,1-.24-.7q0-5.76,0-11.52c0-.25,0-.52.24-.69l.22-.12a1.23,1.23,0,0,1,.69-.41l9.83-2.65c.71-.19,1.4-.41,2.11-.57a.9.9,0,0,0,.8-.94c.06-.91.16-1.82.25-2.72.2-2.09.41-4.17.61-6.26.16-1.69.33-3.37.48-5.06.06-.73,0-.76-.75-.76h-13c-.34,0-.7.08-1-.22A.44.44,0,0,1,399.15,324.65Z" transform="translate(-349.66 -266.61)"/><path class="cls-3" d="M399.15,344.41v12.9l-9.7-2.65-15.33-4.22a.48.48,0,0,1-.43-.51q-.3-3.9-.62-7.81-.42-5.33-.85-10.64c-.05-.67-.07-.67.62-.67,3.69,0,7.38,0,11.07,0,.45,0,.58.12.61.56.22,2.67.48,5.34.7,8,.11,1.29.08,1.29,1.32,1.62l12.34,3.32A.86.86,0,0,1,399.15,344.41Z" transform="translate(-349.66 -266.61)"/><path class="cls-4" d="M399.15,299.45V287.21l.22,0,.66,0h29.64c.5,0,.63.12.59.62-.22,3.32-.63,6.61-.94,9.92,0,0,0,.07,0,.11-.05.53.09,1.23-.2,1.53s-1,.1-1.58.1H400l-.66,0A.17.17,0,0,1,399.15,299.45Z" transform="translate(-349.66 -266.61)"/><path class="cls-5" d="M399.36,324.69l6.51,0H414c.33,0,.47,0,.43.44-.37,3.68-.71,7.37-1.07,11-.13,1.4-.29,2.79-.41,4.19a.4.4,0,0,1-.33.42l-13.12,3.52a.86.86,0,0,1-.16,0Q399.38,334.49,399.36,324.69Z" transform="translate(-349.66 -266.61)"/><path class="cls-1" d="M399.15,299.45l.22,0v12.68l-.22,0-9.75,0h-6c-.28,0-.44,0-.48-.38q-.5-6-1.05-12c0-.41.2-.33.43-.33h7.45Z" transform="translate(-349.66 -266.61)"/></svg>