<svg id="Layer_1" data-name="Layer 1" xmlns="http://www.w3.org/2000/svg" viewBox="0 0 1366.9 693.52"><defs><style>.cls-1{fill:#333;}</style></defs><title>logowname</title><path class="cls-1" d="M-1261.13-561.37c-33.53,73.4-67,146.81-101.14,221.47-44.28-94.54-88.06-188-132.32-282.5,9.19,0,17.41-.19,25.61.2,1.28.06,2.81,2.54,3.6,4.2,9.92,20.91,19.72,41.88,29.57,62.82q35.63,75.73,71.28,151.43c.46,1,1.12,1.89,2.15,3.61,4-8.52,7.59-16.31,11.18-24.13q38.82-84.42,77.6-168.85c4-8.63,7.79-17.32,11.93-25.86.72-1.47,2.66-3.25,4.12-3.32,7-.35,13.94-.16,21.81-.16q7.53,168.33,15,336.14l-67.72,4.06c-1.2-2.53-1.36-4.8,2.43-6.12,17.13-6,26.52-18.86,31.23-35.66,4.09-14.62,4.16-29.58,3.48-44.63q-3.46-76.4-6.64-152.78-.81-19-1.68-37.94a9.84,9.84,0,0,0-.44-1.8Z" transform="translate(2028.57 812.32)"/><path class="cls-1" d="M-1501.12-740.61l-1.68,38.29c-2.24,51.59-4.57,103.17-6.66,154.76-.66,16.28-1.62,32.67,3.68,48.54,5.71,17.09,17.17,27.72,35,31.28,4.22.84,4.21.89,3.21,6.31-36.54-4.48-73.21-4.94-110,.17-.93-3.11-1.67-5.4,1.81-6.55,18.52-6.16,28.12-20.47,34.08-37.86,5.69-16.55,7.15-33.8,7.88-51.16q4.35-103.84,8.68-207.69a11.93,11.93,0,0,0-2.81-7.52c-12.22-14-28-22.33-45.71-27.11-3.32-.9-5.76-1.93-4-6.55,5.73.41,11.64,1,17.56,1.23,18.63.79,37.27,1.56,55.91,2.09,3.33.09,5,1.17,6.37,4.17q24.29,52.07,48.82,104l68.19,145.13c8.42,17.93,16.94,35.82,25.13,53.86a9.87,9.87,0,0,1-.25,7.22c-3.82,8.64-8.1,17.07-12.67,26.54-44-93.8-87.63-186.67-131.23-279.54Z" transform="translate(2028.57 812.32)"/><path class="cls-1" d="M-984-465.43c-11.7,0-22.45.14-33.18-.16-1.59,0-3.36-1.93-4.63-3.34q-64.35-71.48-128.61-143-10-11.14-20-22.31c-1.06-1.16-2.29-2.16-4.18-3.94-.15,2.64-.31,4.21-.32,5.78,0,35.5-.11,71,0,106.49a136.76,136.76,0,0,0,1.57,19.9c3,19.71,14.86,31.8,33.58,37.53,3.35,1,5.52,2.28,3.83,6.63l-65.31-3.91c-.09-1.93-.24-3.72-.24-5.51q0-162.48-.12-325c0-4.84,1.44-6.11,6.11-6.3,18.14-.73,36.26-1.89,54.38-2.87,1.63-.09,3.27,0,5.15,0,.65,2.68,1.26,5-2.39,5.81-24.13,5.51-33.45,22.68-34.36,45.39-1.22,30.78-1.54,61.59-2.23,92.39-.08,3.61,0,7.22,0,12.46,4.33-3.32,7.66-5.61,10.67-8.27,2.63-2.33,4.26-1.83,6.53.67q66.93,73.85,134,147.54,18.15,20,36.31,39.91C-986.48-468.48-985.6-467.34-984-465.43Z" transform="translate(2028.57 812.32)"/><path class="cls-1" d="M-889-467.15c-11.79-.94-23.39-2-35-2.78-6.14-.44-12.32-.86-18.46-.71a10.26,10.26,0,0,1-8.59-3.84q-57.51-63.51-115.15-126.9-34.26-37.71-68.57-75.39c-1-1.09-1.92-2.25-3.2-3.75,5.8-4.7,11.44-9.3,17.11-13.86,21.94-17.63,44.24-34.86,65.7-53.06a144.13,144.13,0,0,0,23.76-26.06c7.9-11.08,5.1-19.91-6.5-27.29a32,32,0,0,0-6.12-3.34c-3.52-1.26-4.78-3.29-2.73-8.19,44.39,5,89.36,6,134.06.11,1.13,3.9,1.46,6.05-2,7.05-35.73,10.21-66.48,29.63-95.39,52.22-30.18,23.59-60,47.68-89.93,71.56-.76.61-1.43,1.34-2.47,2.31,7.36,8.16,14.55,16.18,21.78,24.17q58.82,65,117.7,130c13.82,15.16,28.75,29.21,45.91,40.67,7.8,5.21,15.95,9.75,25.38,11.23C-888.27-472.46-887.73-470.73-889-467.15Z" transform="translate(2028.57 812.32)"/><path class="cls-1" d="M-1801.23-805.59a18.84,18.84,0,0,1,2.26-.15c22.43,1.3,44.85,2.62,67.85,4,.12,1.74.37,3.66.37,5.58q0,162.47.11,324.93c0,4.92-1.52,5.87-6.2,6.05-19.8.77-39.58,2.08-59.36,3.19l-5.28.33v-5.25c12.44-2.2,21.93-9.11,29.79-18.65,6.59-8,9.67-17.57,11-27.48,1.74-12.68,3.3-25.5,3.38-38.27.36-55.16.44-110.32-.06-165.47a264.77,264.77,0,0,0-4.33-42.64c-3.57-20.61-16.39-33.72-36.34-39.74C-1801.48-800.24-1802.73-801.81-1801.23-805.59Z" transform="translate(2028.57 812.32)"/><path class="cls-1" d="M-1661.78-564.53c25.67-23.58,40-51.9,39.21-87.31-.81-34.78-15.58-63-39.92-87,32,11.68,60.8,27.12,71.72,62.59,10.52,34.19-1,68.57-29.56,90.24A140.74,140.74,0,0,1-1661.78-564.53Z" transform="translate(2028.57 812.32)"/><path class="cls-1" d="M-1704.88-595.88c16.72-15.37,26.09-33.82,25.55-56.9-.53-22.67-10.16-41-26-56.67,20.86,7.61,39.62,17.67,46.74,40.79,6.85,22.28-.68,44.69-19.27,58.81A91.84,91.84,0,0,1-1704.88-595.88Z" transform="translate(2028.57 812.32)"/><path class="cls-1" d="M-1871.52-120.58l-16.53,1.09c1.91-1.31,2.87-1.67,3.41-2.37,2.29-3,5.89-5.85,6.38-9.15,1.27-8.52,1.13-17.25,1.58-26.24H-1915c.62,9.72.62,19.33,2.16,28.7.53,3.2,4.89,5.78,7.71,8.88l-15.14-1v-77.26l15.24-1c0,.51.17,1,.09,1-7.13,2.85-9.19,8.78-9.37,15.7-.16,5.9,0,11.81,0,18.13h37.55c-1.85-12,4.51-25.76-11.14-34.78l16.45.85Z" transform="translate(2028.57 812.32)"/><path class="cls-1" d="M-1264.72-163.65c12.36,0,23.7.06,35-.12a3.86,3.86,0,0,0,2.65-2.66c.21-5.45.25-10.92-.07-16.35-.4-6.68-2.56-12.52-9.41-16l15.17.82v77.3l-15,1.06c9.79-5.23,9.41-14.33,9.47-23.22,0-4.66,0-9.32,0-14.37h-37.19c0,7.92-.13,15.67,0,23.42.14,6.41,3.55,10.75,9.36,14l-15.44-.9v-77.31l16.81-1.1a30.71,30.71,0,0,1-3,2.1c-4.15,1.95-6.73,5.2-7.09,9.71C-1264-179.62-1264.29-172-1264.72-163.65Z" transform="translate(2028.57 812.32)"/><path class="cls-1" d="M-981.41-120.56l-14.92,1c9.73-4.93,9.17-13.88,9.44-22.4.15-5,0-9.94,0-15.24h-36.75c0,9.1-.77,18,.36,26.68.5,3.88,4.83,7.26,7.39,10.82l-14.23-.87v-77.31l15.09-.95c-9,4.43-9.06,12.59-9.34,20.56-.17,4.65,0,9.3,0,14.32h36.62c4-11.75.12-27.41-9.35-34.81l15.7.85Z" transform="translate(2028.57 812.32)"/><path class="cls-1" d="M-691.21-161.74l12,.73c0,12.11.05,23.74-.09,35.38a3.66,3.66,0,0,1-2,2.65c-10.25,4-20.69,6-31.34,1.51-9.9-4.16-15.31-12.11-17.23-22.31-2.41-12.91-2.15-25.75,3.09-38.08,4.21-9.89,12-15.31,22.39-17a63.51,63.51,0,0,1,30.42,2.7,5.71,5.71,0,0,1,3.14,4.08c.4,4.83.15,9.71.15,15.05-.73-.65-1.22-.87-1.31-1.2C-675.2-190.18-687.58-195-699.09-194c-13.27,1.12-21,7.42-24.07,20.31a59.84,59.84,0,0,0,1.29,33.64c4.42,13,17.84,18.95,30.62,13.94,3.51-1.38,5.78-3.65,5.82-7.59.06-5.76.74-11.64-.2-17.24C-686.27-154.74-689.24-158.12-691.21-161.74Z" transform="translate(2028.57 812.32)"/><path class="cls-1" d="M-930.15-199.18c5.88.34,11.77.6,17.63,1.12a4,4,0,0,1,2.71,2q17.92,37.23,35.67,74.53c0,.11,0,.3-.12.89l-15.69,1c1.72-2.29,4.17-4.19,4.57-6.46.45-2.52-.6-5.53-1.64-8a161.82,161.82,0,0,0-7.18-15.18,5.86,5.86,0,0,0-4.16-2.58c-7.15-.26-14.33-.29-21.48,0a6.62,6.62,0,0,0-4.57,2.79,110.54,110.54,0,0,0-5.81,11.18c-4.54,9.4-4.31,10.75,3,17.88h-23.22c18.35-17.6,24.85-42.22,37.34-63.29.71-1.2.35-3.74-.49-5a19.85,19.85,0,0,0-13.23-8.82c-1.14-.22-2.27-.46-3.41-.69Zm10,41.44h22l-10.5-22.13C-912.69-172.06-916.25-165.23-920.14-157.74Z" transform="translate(2028.57 812.32)"/><path class="cls-1" d="M-1681.35-147.15c7.48-16.29,14.65-31.65,21.55-47.13,1.48-3.32,3.32-4.64,7.51-3.44,1.14,25.31,2.29,50.88,3.46,76.86l-15.73,1.29c.79-1,1.11-1.63,1.63-1.9a12,12,0,0,0,6.82-11.45c-.24-16.46-.92-32.92-1.44-49.38l-1.22-.25-22.7,49.56c-10.37-22.13-20.28-43.27-30.27-64.57,4.09-1.34,6.26-.46,8,3.34,6.61,14.61,13.57,29.05,20.41,43.55C-1682.92-149.72-1682.33-148.85-1681.35-147.15Z" transform="translate(2028.57 812.32)"/><path class="cls-1" d="M-1496.76-197.66c1.14,25.53,2.28,51,3.44,76.8l-15.18,1.19c10.16-6,8.24-15.73,7.91-24.89-.46-12.54-1.07-25.08-2.69-37.95-7.42,16.21-14.85,32.42-22.68,49.51l-30.23-64.55c4.3-1.52,6.38-.21,8.13,3.66,7,15.44,14.31,30.7,21.91,46.9,1.23-2.43,2.14-4.09,2.93-5.8,6.37-13.86,12.84-27.67,19-41.62C-1502.71-197.8-1500.8-198.89-1496.76-197.66Z" transform="translate(2028.57 812.32)"/><path class="cls-1" d="M-1820.2-199.13c6,.33,11.91.57,17.85,1.1.92.08,2,1.32,2.52,2.3q17.8,37,35.45,74.14c.06.11,0,.29-.07.94l-16.27,1.08c6.3-5.35,6.81-7.23,3.54-14.76-2.48-5.71-4-13.19-8.42-16.31-4.14-2.9-11.65-.62-17.57-1.43-7.58-1-12.5,1.3-14.65,8.86a27,27,0,0,1-2.06,4.18c-5.1,10.33-5,11.27,2.29,19h-23c0-.17-.18-.64-.07-.72,11.38-7.89,15.65-20.63,21.77-32.06,5.29-9.88,10.14-20,15.44-29.86,1.35-2.52,1-4.17-.57-6.26-4.12-5.39-9.66-8.1-16.36-8.81Zm10,41.33h21.8c-3.51-7.39-6.76-14.26-10.47-22.08C-1802.86-172-1806.36-165.21-1810.16-157.8Z" transform="translate(2028.57 812.32)"/><path class="cls-1" d="M-861.49-198.82c7,0,13.17.74,19.1,6,24.75,21.84,50,43.11,75.23,64.45,2.91,2.46,3.82,5,2.65,9.6l-67.14-57.06a23.39,23.39,0,0,0-.6,3.35c0,11.06-.14,22.13,0,33.19.14,8.34,1.66,16.07,11.31,19.26h-27.44c10.85-4,10.09-13.44,10.21-22.27.16-11.69.17-23.38-.12-35.06a9.21,9.21,0,0,0-2.91-6.22C-847.64-188.85-854.48-193.64-861.49-198.82Z" transform="translate(2028.57 812.32)"/><path class="cls-1" d="M-1369.94-119.71c-4.63-.26-9.25-.72-13.88-.73-4.45,0-8.91.43-14.77.76a40,40,0,0,1,3.65-2.13c4.11-1.74,6.84-5,7-9.2.53-16.17.68-32.35.78-48.53,0-1.25-1.24-2.87-2.37-3.69-6.53-4.72-13.19-9.26-19.81-13.87-.44-.31-.83-.71-2-1.76,7.52.31,13.51.21,19.25,5.26,25,22,50.48,43.46,75.9,65,3,2.54,4.09,5.09,2.6,9.62l-67-57a19,19,0,0,0-.52,2.66c0,10.9-.12,21.8,0,32.7.11,8.71,1.09,17.09,12,19.86Z" transform="translate(2028.57 812.32)"/><path class="cls-1" d="M-2001.12-153.3c.55,7.88.76,15.46,1.7,22.94.68,5.34,4.68,8.37,9.5,10.56l-16.36-1v-78.08c7.07,0,14.06-.49,21,.1,14,1.18,22.09,12,20.6,26.91-1.27,12.67-12.19,21.23-25.73,20.05C-1993.68-152.06-1996.87-152.68-2001.12-153.3Zm.21-20.09.21,0c0,3.73-.22,7.48.12,11.17.12,1.33,1.32,3.3,2.46,3.67,13.73,4.49,28.37-1.32,26.9-19.21-1-11.49-10.48-18-23.2-15.86-3.2.54-5.12,2.07-5.38,5.37C-2000.2-183.29-2000.54-178.34-2000.91-173.39Z" transform="translate(2028.57 812.32)"/><path class="cls-1" d="M-1555.6-120h-25.28c11.26-6,10.12-16.53,10.68-26.26.73-12.59,1.06-25.2,1.67-37.79.34-6.88-1-9.29-7.52-12.1-1.36-.58-2.75-1.11-4.72-1.9,6.19,0,11.64-.11,17.07.11.84,0,1.89,1.47,2.37,2.48,10.5,22.23,21,44.44,31.19,66.83,1,2.16-.63,5.49-1,8.27l-1.51,0-29.55-62.87a26.78,26.78,0,0,0-.76,3.6c-.64,14.47-1.31,28.93-1.83,43.4C-1565.09-129.17-1563.66-122.85-1555.6-120Z" transform="translate(2028.57 812.32)"/><path class="cls-1" d="M-1717.37-182.46c-.6.32-.85.38-.86.46-.63,16.93-1.44,33.85-1.74,50.78-.1,5.52,3.67,9,8.82,11.16h-25.37c9.77-5.16,10.29-13.8,10.62-22.62.51-13.85,1.23-27.69,1.79-41.53.3-7.34-1.05-9.29-8-12.2l-4-1.68c6,0,11.46-.11,16.9.11.83,0,1.88,1.46,2.35,2.46,10.45,22.08,20.94,44.15,31.05,66.38,1,2.25-.27,5.56-.49,8.38l-1.92.21Q-1702.8-151.49-1717.37-182.46Z" transform="translate(2028.57 812.32)"/><path class="cls-1" d="M-764-132.83l-76.12-64.89c4.64-.73,8.05-.73,11.55,2.3,18,15.61,36.26,31,54.42,46.39a9.88,9.88,0,0,0,4.81,2.43c-.48-13.59-.68-27.21-1.62-40.78-.35-5-3.06-6.66-12.53-11.15h30.33c-10.58,3.95-10.88,12.85-10.85,22C-763.93-162.42-764-148.28-764-132.83Z" transform="translate(2028.57 812.32)"/><path class="cls-1" d="M-1331.12-198.53H-1302c-10.68,4.05-10.91,13.14-10.89,22.36,0,14,0,28,0,43.3l-76-64.81c5.15-1,8.62-.36,12.2,2.76,17.85,15.55,36,30.82,54,46.17,1,.88,2.17,1.62,3.15,2.35,0-13.61.26-27.06-.13-40.48-.14-4.66-3.69-7.74-8-9.59-1.2-.51-2.43-1-3.65-1.45Z" transform="translate(2028.57 812.32)"/><path class="cls-1" d="M-1129.29-197.95l14.61-1c0,.54.08,1.06,0,1.09-6.38,2.13-8.1,7.19-8.18,13.17-.09,6.69,0,13.38,0,19.38,2.07,1,4.3,1.39,5.52,2.72,12,13,23.93,26.21,35.85,39.35.59.65,1.11,1.36,1.89,2.3-4.65.92-7.88.33-11-3.31-10.22-11.89-20.88-23.4-32.43-36.24v10.33c0,4.36.13,8.73,0,13.09-.23,7.13.39,13.77,8.27,17.27a113.34,113.34,0,0,1-12.25-.86c-.94-.15-2.13-2.63-2.14-4-.16-13.4-.09-26.79-.09-40.19Z" transform="translate(2028.57 812.32)"/><path class="cls-1" d="M-1058.46-119.81c-7.83,0-14.4-.78-20.07-7.76-10.78-13.27-22.84-25.49-34.36-38.15-.83-.91-1.6-1.87-2.65-3.1,5.46-4.4,10.78-8.67,16.09-13,1.69-1.37,3.4-2.73,5-4.23,5.63-5.38,5.64-7.14-.15-12.56h30c-6.94,4.25-14.57,8.45-21.66,13.42s-13.9,10.87-21.45,16.86C-1090.65-152.46-1079-132-1058.46-119.81Z" transform="translate(2028.57 812.32)"/><path class="cls-1" d="M-2027.9-199l15.53,1v77.2l-16.2,1.22a23.51,23.51,0,0,1,2.55-2,12.13,12.13,0,0,0,7-9.37,85.07,85.07,0,0,0,1-11.14c.12-11.69,0-23.38,0-35.06,0-1.72-.07-3.43-.18-5.14C-2018.8-191.28-2020.21-193.55-2027.9-199Z" transform="translate(2028.57 812.32)"/><path class="cls-1" d="M-1926.31-120.56l-14.63,1L-1942-121a11.92,11.92,0,0,0,2.16-.62,12.58,12.58,0,0,0,7.31-11.16c.45-7.44.58-14.92.66-22.38q.12-12.62-.11-25.22c-.13-7.37-1.15-14.4-9.1-18.4l14.8.81Z" transform="translate(2028.57 812.32)"/><path class="cls-1" d="M-1200.32-119.57l-14.86-1.06v-77.21l14.83-1c-8.53,5.43-8.87,13.8-8.9,22.29,0,12.92-.15,25.84-.08,38.76,0,7.31,1.67,13.94,9.5,17.22C-1200-120.24-1200.15-119.9-1200.32-119.57Z" transform="translate(2028.57 812.32)"/><path class="cls-1" d="M-1461-198.19a15.47,15.47,0,0,1,2.63-.71c4.49.29,9,.61,13.87,1v77.25l-15,1.06c9.63-5.17,9.15-14.22,9.26-22.86.15-12.77.17-25.54,0-38.31C-1450.34-188-1451.38-195-1461-198.19Z" transform="translate(2028.57 812.32)"/><path class="cls-1" d="M-1291.84-198.92l15.72,1v77.4l-14.83,1-.84-1c10.15-4.16,10-12.76,10-21.21q.07-18.93,0-37.84C-1281.88-190.09-1283-192.31-1291.84-198.92Z" transform="translate(2028.57 812.32)"/><path class="cls-1" d="M-1491.33-197.88l17-1c.08.21.15.42.23.62a23.64,23.64,0,0,1-2.09,1.16c-6,2.7-8.38,7.74-8.17,13.94.53,15.56,1.16,31.11,2.07,46.65.42,7,2.23,13.55,10,16.76-4.53-.25-9.08-.37-13.57-.91-.77-.09-1.85-1.93-1.9-3C-1489.06-148.18-1490.17-172.75-1491.33-197.88Z" transform="translate(2028.57 812.32)"/><path class="cls-1" d="M-1148.94-198.93l14,1v77.18l-13.8,1.12c9.37-4.74,8-13.28,8-21.24,0-13.4,0-26.8,0-40.21,0-7.2.17-14.32-9.25-16.87Z" transform="translate(2028.57 812.32)"/><path class="cls-1" d="M-1630-198.9c-9.06,4.18-10.39,11.52-9.86,20.08.9,14.62,1.35,29.26,2.27,43.87.41,6.55,2.74,12.21,9.78,15.23l-15.47-.89c-1.18-25.61-2.35-51.19-3.54-77.21Z" transform="translate(2028.57 812.32)"/><path class="cls-1" d="M-1865.24-197.91l14.94-1c-10.69,6.15-8.91,16.67-9.23,26.18-.37,11.2-.14,22.43,0,33.64.07,7.68,1.1,15,9.21,19.4l-14.88-.91Z" transform="translate(2028.57 812.32)"/><path class="cls-1" d="M-1794.22-197.77c4.61-1.33,6.7.28,8.61,4.54,7.83,17.46,16.08,34.73,24.44,51.94,4.08,8.4,9.38,16,17.47,21.56-4.25-.26-8.52-.39-12.74-.89-.92-.11-2-1.38-2.48-2.37q-17.71-36.8-35.29-73.66A3.62,3.62,0,0,1-1794.22-197.77Z" transform="translate(2028.57 812.32)"/><path class="cls-1" d="M-853.45-119.72c-4.24-.26-8.5-.38-12.72-.87a4.24,4.24,0,0,1-2.56-2.31q-17.71-36.82-35.26-73.73a3.08,3.08,0,0,1,0-1.08c4.39-1.42,6.57-.08,8.59,4.45,7.88,17.62,16.29,35,24.67,52.4C-866.74-132.56-861.37-125.25-853.45-119.72Z" transform="translate(2028.57 812.32)"/><path class="cls-1" d="M-975.16-197.9l15-1c-10.09,5.94-9.14,15.88-9.32,25.19q-.36,18.19,0,36.39c.21,9.31,2.13,12.27,9.3,17.72l-7.34-.48c-2.47-.17-4.93-.37-7.74-.57Z" transform="translate(2028.57 812.32)"/><path class="cls-1" d="M-1036.32-120.52l-16,1.07c1.73-1.37,2.43-2,3.23-2.54,4-2.45,6.46-6,6.65-10.65.4-10.26.49-20.54.65-30.81.08-5,0-10,0-15-.08-8.09-.46-16.06-9.42-20.44l14.86.87Z" transform="translate(2028.57 812.32)"/><path class="cls-1" d="M-1438-197.9l15.16-.93c-2.49,2.34-5.71,4.15-7,6.89a29.27,29.27,0,0,0-2.49,11.7c-.28,14.16-.16,28.32-.1,42.48,0,7.55,2.16,14,9.5,17.94l-15-.86Z" transform="translate(2028.57 812.32)"/><path class="cls-1" d="M-730.63-130.82c-17.83-14.15-16.78-46.67,2.49-59.81a56,56,0,0,0-8.33,30C-736.49-150.35-735.61-140.19-730.63-130.82Z" transform="translate(2028.57 812.32)"/><path class="cls-1" d="M-673.55-126.24V-160.9l11.89-.95c-6.61,5.67-6.07,13.07-6,20.34,0,3.11-.23,6.24.07,9.32C-667.19-128-668.75-126-673.55-126.24Z" transform="translate(2028.57 812.32)"/><path class="cls-1" d="M-1965.5-156.27c9.09-12.87,8.26-25.52-.29-38.07,8.2,2.31,13.48,9.85,13.45,19.16C-1952.38-166.27-1957.61-158.61-1965.5-156.27Z" transform="translate(2028.57 812.32)"/></svg>