<svg id="Layer_1" data-name="Layer 1" xmlns="http://www.w3.org/2000/svg" viewBox="0 0 297.22 297.68"><defs><style>.cls-1{fill:#00507a;}.cls-2{fill:#33a9e0;}.cls-3{fill:#036ba3;}.cls-4{fill:#4697c9;}.cls-5{fill:#4597c9;}.cls-6{fill:#025c8d;}.cls-7{fill:#066498;}.cls-8{fill:#04689e;}.cls-9{fill:#076599;}.cls-10{fill:#05679d;}.cls-11{fill:#54a5d3;}.cls-12{fill:#046396;}.cls-13{fill:#07669b;}.cls-14{fill:#08669a;}.cls-15{fill:#066397;}.cls-16{fill:#015d8d;}.cls-17{fill:#056193;}.cls-18{fill:#036193;}.cls-19{fill:#086ba1;}.cls-20{fill:#005f90;}.cls-21{fill:#0a6396;}.cls-22{fill:#0e6ba0;}.cls-23{fill:#045b8a;}.cls-24{fill:#055f90;}.cls-25{fill:#064f76;}.cls-26{fill:#04547f;}.cls-27{fill:#136a9e;}.cls-28{fill:#085784;}.cls-29{fill:#1f5577;}.cls-30{fill:#06699d;}</style></defs><title>logoTDC</title><path class="cls-1" d="M463.29,424.67v-4.5q0-58.32.06-116.66c0-3.09-.51-3.95-3.79-3-6.49,1.84-13.12,3.18-20.24,4.85a52.9,52.9,0,0,0,8.22-22.09A44.49,44.49,0,0,0,446,264.91c-.62-2.14-.16-2.9,2-3.41q51.81-12.3,103.57-24.74c1.75-.42,2.58.06,3.34,1.7a160.32,160.32,0,0,1,11.24,34.47c.62,2.88-1.61,2.56-3,2.89-15.3,3.73-30.6,7.45-46,10.92-2.72.62-3.42,1.62-3.41,4.29.1,29.53.06,59.06.07,88.59,0,1.7,0,3.31-1.18,4.78-12.63,15.66-27.17,29.05-45.18,38.36C466.27,423.36,465.05,423.86,463.29,424.67Z" transform="translate(-271.49 -152.45)"/><path class="cls-1" d="M374.41,319c17,9.3,33.53,9.31,50.41,0v2.79c0,37.55,0,75.11.07,112.67,0,2.82-.89,3.76-3.51,4a137.25,137.25,0,0,1-44.5-2.65c-1.67-.39-2.51-.77-2.51-2.71C374.42,395.24,374.41,357.33,374.41,319Z" transform="translate(-271.49 -152.45)"/><path class="cls-2" d="M545.18,225.72c-5.74-6.88-11.13-14-17.72-20.18-20-18.63-43.32-30.6-70.42-34.61-39-5.76-74,3.62-104.51,28.56-25,20.45-40.29,46.89-46,78.74C305,287,305.12,287,296.41,289.06c-3.18.75-6.37,1.43-9.56,2.14-1.36-1.71-1-3.73-.83-5.62,2-24.7,9.26-47.71,23.32-68.17,22.86-33.26,54.15-54,94.19-60.33,39.83-6.27,76,3.36,107.86,27.94a131.73,131.73,0,0,1,32.7,36.37C544.87,222.7,546.08,224,545.18,225.72Z" transform="translate(-271.49 -152.45)"/><path class="cls-3" d="M568.35,292.75a139.54,139.54,0,0,1-14,72.38c-22.57,45.75-59.32,73.38-109.41,82.7-22.75,4.23-45.44,2.48-67.66-4.17-1.35-.41-3.43-.36-2.76-2.84,1.52-1.24,3-.33,4.48.11a124,124,0,0,0,36.27,5.28,133.4,133.4,0,0,0,96.78-41.3c20.11-21.33,32.2-46.54,35.73-75.74,1.25-10.4.68-20.83.35-31.26a2.17,2.17,0,0,1,.57-1.05c5.42-1.77,11-2.92,16.51-4.38A3.3,3.3,0,0,1,568.35,292.75Z" transform="translate(-271.49 -152.45)"/><path class="cls-3" d="M545.18,225.72c-2.64-6.49-7-11.94-11.29-17.26-13.77-16.88-30.27-30.37-50.22-39.44a137.81,137.81,0,0,0-43.87-12c-34.17-3.36-65.56,4.4-93.59,24.14C315.19,203,296,232.82,289,270.32a115.22,115.22,0,0,0-2.18,20.88c-4.24,1-8.54,1.87-12.69,3.17-2.8.87-2.71-.52-2.56-2.39.8-10.67,2.19-21.28,5.44-31.48,18.21-57.2,56.56-93.21,115.34-105.13,61.78-12.53,123.43,16,155.59,70.14.51.86,2.32,1.92.9,3-1.78,1.33-2.38-.67-3.14-1.82C545.53,226.36,545.36,226,545.18,225.72Z" transform="translate(-271.49 -152.45)"/><path class="cls-2" d="M548.63,297.87c1.22,2.91.7,6,.84,9a129.6,129.6,0,0,1-15.42,69.25q-23.44,43.45-69.38,61.73a130.56,130.56,0,0,1-41.58,9,135.43,135.43,0,0,1-47.49-5.92,4.28,4.28,0,0,0-1.08-.05c-.45-2.19.61-2,2.24-1.64a138.33,138.33,0,0,0,31,3.3c63-.34,117.72-46.42,128.62-108.31a168,168,0,0,0,2-33.36C540.13,298.3,545.08,296.87,548.63,297.87Z" transform="translate(-271.49 -152.45)"/><path class="cls-2" d="M354.07,356.28c-17.45,4.72-35,9.16-52.62,13.09-2.77-2.45-3.28-6.09-4.75-9.21-.78-1.64-1.21-3.43-1.84-5.13-1.7-4.4-2.47-9.12-4.57-13.39a2.22,2.22,0,0,1-.5-.9L353.94,325c.88,2.09.44,4.28.41,6.42C354.23,339.7,354.78,348,354.07,356.28Z" transform="translate(-271.49 -152.45)"/><path class="cls-2" d="M351.93,316.19q-18.39,4.65-36.78,9.29c-8.88,2.23-17.78,4.38-26.68,6.56a140.62,140.62,0,0,1-2.62-28.81,4.43,4.43,0,0,1,.95-3.05l52.59-12.44c1,.88,1,2.15,1.28,3.3a57.92,57.92,0,0,0,9.48,21.66C350.9,313.76,351.82,314.78,351.93,316.19Z" transform="translate(-271.49 -152.45)"/><path class="cls-2" d="M305.84,378q19.65-5,39.29-10.09c2.92-.75,5.87-1.4,8.81-2.09.94,2.35.41,4.8.44,7.19.07,6.55,0,13.09,0,19.63,0,1.81.13,3.67-1.08,5.24-9.64,2.73-19.35,5.21-29.19,7.17-3.29-2.46-5.33-6-7.86-9.11-1.28-2.13-3-4-4.31-6.06a48.56,48.56,0,0,0-3.69-5.9C307.56,382,305.6,380.45,305.84,378Z" transform="translate(-271.49 -152.45)"/><path class="cls-4" d="M351.93,316.19a51,51,0,0,1-12.54-28.45c3.51-.91,7-1.78,10.52-2.76,1.4-.39,2.11.1,2.34,1.4,1.81,10.21,6.78,18.77,14.26,26.56Z" transform="translate(-271.49 -152.45)"/><path class="cls-5" d="M353.32,397.91q0-14.48-.07-28.94a5.54,5.54,0,0,1,.69-3.12c3.53-.88,7.08-1.69,10.58-2.67,1.5-.42,2,0,2,1.45q0,14.22,0,28.44a2.06,2.06,0,0,1-1.82,2.29C360.89,396.22,357.1,397.06,353.32,397.91Z" transform="translate(-271.49 -152.45)"/><path class="cls-4" d="M354.07,356.28a2.43,2.43,0,0,1-.81-2.28q0-13.12,0-26.23a5.44,5.44,0,0,1,.69-2.78c3.53-.88,7.09-1.68,10.59-2.65,1.54-.43,2,.06,1.94,1.5q0,13.85,0,27.71a2.07,2.07,0,0,1-1.78,2.33Z" transform="translate(-271.49 -152.45)"/><path class="cls-4" d="M353.25,408c3.61-.92,7.22-1.83,10.82-2.77,1.68-.44,2.43.05,2.42,1.91q-.08,15.41,0,30.82c0,2.07-1,1.82-2.24,1.3-1.52-.65-3-1.44-4.49-2.17a5.07,5.07,0,0,0-2.28-1.89c-2-1.32-4.69-2-5.16-5-.42-6.29-.16-12.57-.16-18.86A4.94,4.94,0,0,1,353.25,408Z" transform="translate(-271.49 -152.45)"/><path class="cls-2" d="M353.25,408q0,11.69,0,23.35c-1.7.39-2.85-.69-4.09-1.53-1.23-1.54-3.28-2.06-4.51-3.6-.83-1-2.11-1.43-2.94-2.43-1.23-1.81-3.19-2.81-4.75-4.26-.79-.81-1.57-1.62-2.39-2.4-1.08-1.36-2.81-2.21-3.22-4.1C338.61,411.11,345.87,409.23,353.25,408Z" transform="translate(-271.49 -152.45)"/><path class="cls-6" d="M568.35,292.75c-6.59,1.16-12.8,4-19.56,4.37-1.76-3.19-2.69-6.5-1.51-10.13L567.46,282C567.91,285.78,568.68,289.22,568.35,292.75Z" transform="translate(-271.49 -152.45)"/><path class="cls-7" d="M286.8,300.18A155.26,155.26,0,0,0,289,328.57a4.14,4.14,0,0,1-.57,3.47l-5,.91c-1.65.69-2.46-.42-2.49-1.65-.27-9.63-.74-19.26.23-28.87,0-.35.38-.6.6-.89Z" transform="translate(-271.49 -152.45)"/><path class="cls-8" d="M274.5,303.13l5-1.07a3.54,3.54,0,0,1,1.11,3c0,9.56.26,19.12-.15,28.68-.84.85-2.05.49-3,.95-1.62.78-2.4.2-2.64-1.49-.37-2.44-1.34-4.79-1.18-7.32-.14-6.46-.45-12.91-.28-19.38A4.49,4.49,0,0,1,274.5,303.13Z" transform="translate(-271.49 -152.45)"/><path class="cls-9" d="M289.79,340.74l.75.23c1.34,2.45,1,5.15,1.13,7.79.23,7.62-.49,15.26.51,22.86-4.26,1.49-4.57,1.26-6.74-5.22a159.07,159.07,0,0,1,0-24.6Z" transform="translate(-271.49 -152.45)"/><path class="cls-10" d="M285.47,341.8c1.22,2,.73,4.24.65,6.34-.22,6.09.82,12.23-.68,18.26a112.07,112.07,0,0,1-8.2-21.16c-.32-1.14-.24-1.38.87-1.61C280.58,343.1,283,342.42,285.47,341.8Z" transform="translate(-271.49 -152.45)"/><path class="cls-11" d="M547.28,287c.5,3.38,1,6.75,1.51,10.13,0,.25-.1.5-.16.75-3.45.77-7,1-10.18,2.94-.46-3.29-.92-6.58-1.4-9.87-.21-1.45.69-1.83,1.85-2.08C541.7,288.26,544.49,287.62,547.28,287Z" transform="translate(-271.49 -152.45)"/><path class="cls-12" d="M292.18,371.62c-2.16-.38-1.62-2.09-1.62-3.44,0-9.07,0-18.14,0-27.21a1.18,1.18,0,0,1,1.34.94q1.83,6.45,3.65,12.88a85.12,85.12,0,0,1,.5,11.62c0,1.58,0,3.17-1,4.52C294.18,371.7,293.16,371.56,292.18,371.62Z" transform="translate(-271.49 -152.45)"/><path class="cls-13" d="M280.5,333.7c-1.34-1-.87-2.42-.88-3.69-.05-9.31-.06-18.63-.08-27.95a2.64,2.64,0,0,1,2.25-.52c0,9.33,0,18.66,0,28,0,1.35-.56,3.08,1.64,3.42C282.61,333.75,281.53,333.64,280.5,333.7Z" transform="translate(-271.49 -152.45)"/><path class="cls-14" d="M300,379.57l5.1-1.37a25.94,25.94,0,0,1,0,16.74,31.53,31.53,0,0,1-5.1-6.58C299,385.42,298,382.49,300,379.57Z" transform="translate(-271.49 -152.45)"/><path class="cls-15" d="M305.1,394.94l0-16.74.71-.17a24,24,0,0,1,3,5.65c1.43,5.19,2,10.38-.08,15.55A15.11,15.11,0,0,1,305.1,394.94Z" transform="translate(-271.49 -152.45)"/><path class="cls-16" d="M316.81,395.58c2.52,3.11,5.28,6,7.32,9.5-2.29.64-4.59,1.28-6.88,1.95a1.56,1.56,0,0,1-2-1,13.84,13.84,0,0,1-.85-8.37C314.59,396.44,314.79,394.83,316.81,395.58Z" transform="translate(-271.49 -152.45)"/><path class="cls-17" d="M295,370.93c.25-5.38-.82-10.8.55-16.14l5.93,14.58A22.32,22.32,0,0,1,295,370.93Z" transform="translate(-271.49 -152.45)"/><path class="cls-18" d="M308.77,399.23q0-7.77.08-15.55a18.73,18.73,0,0,1,3.65,5.83c1.26,4.55,2.15,9.09-.17,13.6A14.32,14.32,0,0,1,308.77,399.23Z" transform="translate(-271.49 -152.45)"/><path class="cls-19" d="M274.5,303.13c-.33,7.57.77,15.19-.82,22.71-1.62-6.74-1.95-13.62-2.18-20.5C271.42,303.09,273.2,303.46,274.5,303.13Z" transform="translate(-271.49 -152.45)"/><path class="cls-20" d="M312.33,403.11q.09-6.8.17-13.6a30.79,30.79,0,0,1,4.31,6.07c-1.79.25-1.44,1.64-1.47,2.8,0,2.55-.06,5.09-.09,7.64A9.76,9.76,0,0,1,312.33,403.11Z" transform="translate(-271.49 -152.45)"/><path class="cls-21" d="M331.36,413a15.37,15.37,0,0,1,3.73,3.73c-.59,1.73-.17,3.76-1.56,5.25l-4.32-3.26a3.83,3.83,0,0,1,0-5Z" transform="translate(-271.49 -152.45)"/><path class="cls-22" d="M300,379.57l0,8.79c-.87-1.13-1.8-2.22-2.6-3.39C294.23,380.35,294.25,380.34,300,379.57Z" transform="translate(-271.49 -152.45)"/><path class="cls-23" d="M337.25,418.77c1.57,1.61,4,2.34,5,4.57-.22,1.25-.22,2.59-1.34,3.49l-3.64-2.31C336,422.59,335.68,420.68,337.25,418.77Z" transform="translate(-271.49 -152.45)"/><path class="cls-24" d="M337.25,418.77c0,1.91,0,3.83,0,5.75l-3.7-2.56c.6-1.73-1.28-4.19,1.56-5.25Z" transform="translate(-271.49 -152.45)"/><path class="cls-25" d="M349.47,429.2l3.79,2.1,5.06,3.78c.08.73-.17,1.05-.93.72a35.85,35.85,0,0,1-8.58-4.28C348.37,430.56,347.92,429.59,349.47,429.2Z" transform="translate(-271.49 -152.45)"/><path class="cls-26" d="M349.47,429.2c-.76.62-.55,1.52-.66,2.32a14.12,14.12,0,0,1-5.1-3c-.34-1.34-.41-2.55,1.31-3C346.09,427.3,348.71,427.1,349.47,429.2Z" transform="translate(-271.49 -152.45)"/><path class="cls-27" d="M329.19,413.73c0,1.65,0,3.31,0,5L324.29,415A7.94,7.94,0,0,1,329.19,413.73Z" transform="translate(-271.49 -152.45)"/><path class="cls-28" d="M345,425.58c-.44,1-.88,2-1.31,3-1.28,0-2-1-2.84-1.73a4.28,4.28,0,0,1,1.34-3.49C343,424.31,344.58,424.21,345,425.58Z" transform="translate(-271.49 -152.45)"/><path class="cls-29" d="M357.39,435.8l.93-.72c1,.3,1.66.79,1.45,2A4.24,4.24,0,0,1,357.39,435.8Z" transform="translate(-271.49 -152.45)"/><path class="cls-1" d="M399.94,237.33a40.48,40.48,0,1,0,40.17,40.48A40.43,40.43,0,0,0,399.94,237.33Zm-.29,72.84a32.64,32.64,0,0,1-32.25-32.3c0-17.78,14.81-32.59,32.47-32.42a32.36,32.36,0,0,1-.22,64.72Z" transform="translate(-271.49 -152.45)"/><path class="cls-2" d="M511.3,229.81c-3.74,4-9.46,3.89-11.74-.27-2.41-4.37-1.61-13.48,1.52-17.37,2.57-3.19,7.22-5,9.91-3.18s4.58.88,7.07.15c3.31-1,2.69-2.36,1-4.17-4-4.21-8.92-3.83-13.86-2.26-7.28,2.29-11.6,7.53-13.94,15.22-4.31-7-6.85-8.36-14.22-6.84-13.52,2.78-27,5.92-40.48,8.74-3.28.68-2.27,3-2.25,4.79,0,3,2.09.9,3.17,1A11.74,11.74,0,0,0,441,225c2.62-.68,3.81-.21,3.7,3-.25,7.52-.1,15.05-.06,22.58,0,.89-.47,2,.69,2.6,2.24,1.1,6.9-1.73,6.92-4.22,0-6.55-.05-13.11,0-19.67.09-8-1.25-6,6.78-8.09,3-.77,3.13.43,3.1,2.77-.1,7.29.13,14.58-.11,21.86-.12,3.45,1.12,3.87,4,3a56.23,56.23,0,0,1,7.78-1.8c9-1.37,15.24-5.91,17.49-15.16,6.31,7.65,9.63,8.85,17.43,6.38,6.81-2.16,11.58-7.48,12-13.41C516,225.67,514.31,226.56,511.3,229.81Zm-27.67,3.68c-.92,4.19-9,9-13,8-1.24-.33-.87-1.31-.88-2.06,0-3.15,0-6.3,0-9.45q0-3.27,0-6.54c0-5.34.22-5.51,7.91-6.26,3.34-.33,5.33,1.46,6.23,5.2A24.54,24.54,0,0,1,483.63,233.49Z" transform="translate(-271.49 -152.45)"/><path class="cls-30" d="M399.81,252.36a25,25,0,0,0-25.5,25.21c0,14.55,11,25.69,25.39,25.68a25.45,25.45,0,0,0,.11-50.89Zm-.21,43.31a17.87,17.87,0,1,1,17.95-18A17.95,17.95,0,0,1,399.6,295.67Z" transform="translate(-271.49 -152.45)"/><path class="cls-4" d="M410.21,277.88a10.51,10.51,0,0,1-10.74,10.5,10.58,10.58,0,1,1,.54-21.15A10.51,10.51,0,0,1,410.21,277.88Z" transform="translate(-271.49 -152.45)"/></svg>