<svg id="Layer_1" data-name="Layer 1" xmlns="http://www.w3.org/2000/svg" viewBox="0 0 667.9 298.74"><defs><style>.cls-1{fill:#373535;}.cls-2{fill:#b03334;}.cls-3{fill:#383535;}.cls-4{fill:#eeb12c;}.cls-5{fill:#848688;}.cls-6{fill:#fff;}.cls-7{fill:#e0ae26;}.cls-8{fill:#b13334;}.cls-9{fill:#b13335;}</style></defs><title>logoAptech</title><path class="cls-1" d="M108.22,320.48c1.77-7.05,3.56-14.1,5.32-21.15q4.24-17.06,8.48-34.11l10.86-43.62,11-44.46q3.44-13.78,6.83-27.58c.25-1,.66-1.39,1.79-1.39q300.29,0,600.57,0c1.72,0,1.72,0,1.3,1.7l-14.79,59.42-10.35,41.6q-5.16,20.81-10.34,41.61-3.33,13.43-6.67,26.86c-.1.43-.21.86-.31,1.3a6.07,6.07,0,0,1-2,.18H110.83C110,320.86,109,321.09,108.22,320.48Z" transform="translate(-86.74 -148.17)"/><path class="cls-2" d="M108.22,320.48c.57,0,1.15-.06,1.72-.06q300.12,0,600.25,0c.59,0,1.24-.24,1.76.26q-10.63,42.39-21.26,84.78c-.21.84-.55,1.31-1.48,1.14a3.11,3.11,0,0,0-.61,0H88.66c-2.47,0-2,0-1.53-1.93q8.79-35.09,17.6-70.16Q106.49,327.51,108.22,320.48Z" transform="translate(-86.74 -148.17)"/><path class="cls-3" d="M127.22,414.67c2.7,0,2.67,0,1.89,2.59-1.46,4.84-2.91,9.7-4.28,14.57-.73,2.61,1.11,4.55,3.8,4.2a6.62,6.62,0,0,0,6-5c1.5-5,3.06-10.07,4.53-15.13.29-1,.72-1.32,1.72-1.23a17.7,17.7,0,0,0,2.82,0c.75,0,.91.19.69.92q-2.15,7-4.21,14.09a16.77,16.77,0,0,1-2.59,5.77,13.73,13.73,0,0,1-14.37,4.32,5.65,5.65,0,0,1-3.81-6.9c1.09-4.53,2.62-8.93,3.89-13.4.33-1.14.81-2.25,1-3.4s.72-1.56,1.82-1.39A8.22,8.22,0,0,0,127.22,414.67Z" transform="translate(-86.74 -148.17)"/><path class="cls-3" d="M244.55,424.44a10.21,10.21,0,0,1,7-2.66c3.91.15,5.19,2.45,4.28,5.8-1,3.91-2.33,7.75-3.46,11.63a.92.92,0,0,1-1,.81c-1,0-2,0-3,0s-.94-.27-.71-1c1-3.12,2-6.24,2.88-9.38.31-1.08.76-2.33-.25-3.23a3.82,3.82,0,0,0-3.74-.49,5.33,5.33,0,0,0-3.82,4.1c-.84,2.94-1.78,5.86-2.6,8.81-.26.92-.71,1.31-1.65,1.18a8,8,0,0,0-1,0c-2.47,0-2.45,0-1.76-2.31,2-6.5,3.93-13,5.81-19.5a3.4,3.4,0,0,1,2.35-2.65c.94-.29,1.82-.74,2.73-1.11.21-.08.44-.31.66-.05s0,.38,0,.58q-1,3.28-2,6.58C245.13,422.4,244.89,423.26,244.55,424.44Z" transform="translate(-86.74 -148.17)"/><path class="cls-3" d="M444.56,421.63c0,1-.61,1.7-.47,2.65a9.49,9.49,0,0,1,6.78-2.46c2.62.08,4.17,1.18,4.71,3.27a5,5,0,0,1-.27,2.78c-1.07,3.73-2.24,7.43-3.34,11.15-.22.74-.57,1.08-1.38,1a22.21,22.21,0,0,0-2.58,0c-.78,0-1-.17-.75-1,.94-2.92,1.81-5.86,2.7-8.79,0-.12.07-.24.1-.36.32-1.26.91-2.63-.43-3.6s-2.85-.63-4.19.08a6.16,6.16,0,0,0-3.09,3.81c-.8,2.74-1.69,5.46-2.41,8.23-.32,1.24-.85,1.87-2.18,1.62a6.85,6.85,0,0,0-1.11,0c-2,0-2,0-1.4-1.87q2-6.69,4-13.39a1.73,1.73,0,0,1,1.16-1.27C441.76,423,443.08,422.3,444.56,421.63Z" transform="translate(-86.74 -148.17)"/><path class="cls-3" d="M152.29,421.6l-.85,2.86a13.94,13.94,0,0,1,2.77-1.81,9,9,0,0,1,6.22-.51,3.74,3.74,0,0,1,2.71,4.45c-.93,4.32-2.49,8.45-3.66,12.71a.82.82,0,0,1-.95.72c-.73,0-1.47,0-2.21,0-1.77,0-1.77,0-1.24-1.75.87-2.89,1.74-5.79,2.64-8.67a4.68,4.68,0,0,0,.18-1.33c0-1.75-.66-2.46-2.39-2.51a5.61,5.61,0,0,0-5.28,3.71q-1.51,4.73-2.89,9.5c-.22.77-.52,1.11-1.33,1.07s-1.88,0-2.83,0c-.69,0-.83-.22-.62-.9,1.46-4.81,2.88-9.62,4.31-14.44A1.6,1.6,0,0,1,148,423.5C149.36,423,150.71,422.3,152.29,421.6Z" transform="translate(-86.74 -148.17)"/><path class="cls-3" d="M277.05,434.38c2.39-3.46,4.63-6.67,6.86-9.89.21-.3.41-.61.61-.92a2.33,2.33,0,0,1,2.5-1.29,32,32,0,0,0,3.56,0c-1.32,1.84-2.51,3.48-3.7,5.11-4.38,6-8.78,12-13.13,18a1.6,1.6,0,0,1-1.52.76c-1.35,0-2.7,0-4.32,0,1-1.36,2-2.57,2.88-3.76.65-.84,1.39-1.62,2-2.51s.06-2.07,0-3.07c-.37-3.89-.92-7.76-1.39-11.63a14.32,14.32,0,0,1-.26-2.06c0-.65.26-.87.88-.85,1.07,0,2.13,0,3.2,0,.63,0,.77.27.91.85a38,38,0,0,1,.39,4.5C276.68,429.79,276.79,432,277.05,434.38Z" transform="translate(-86.74 -148.17)"/><path class="cls-3" d="M318.8,440.55c-2.34-.08-4.22-.19-5.75-1.51-1.69-1.47-1.5-3.33-.95-5.2,1-3.56,2.16-7.1,3.19-10.67.2-.7.5-.91,1.18-.88a22.11,22.11,0,0,0,2.82,0c.91-.07.89.29.67,1-1,3.16-1.93,6.32-2.85,9.5-1,3.54,1.09,4.14,3.79,3.69a4.16,4.16,0,0,0,3.37-3.05c1-3.24,2-6.47,2.92-9.73.29-1,.73-1.54,1.85-1.4a10.21,10.21,0,0,0,2.21,0c.87-.09,1.09.25.83,1-1.28,3.79-2.16,7.71-3.58,11.45-1.22,3.21-3.76,4.82-7,5.48A9.43,9.43,0,0,1,318.8,440.55Z" transform="translate(-86.74 -148.17)"/><path class="cls-3" d="M223.09,440.51a10,10,0,0,1-5.17-1.09c-.7-.36-.8-.74-.35-1.33.12-.17.24-.33.35-.51.42-.65.69-1.56,1.29-1.89s1.13.68,1.78.92a6,6,0,0,0,5.75-.41c1.48-1,1.38-2.55-.19-3.31a14,14,0,0,0-2.4-.93c-4.39-1.15-3.8-4.55-1.92-6.88,3-3.68,8.29-4.39,12.39-2.44.62.29.82.58.37,1.19s-.82,1.65-1.48,2.07-1.49-.5-2.27-.76a4.33,4.33,0,0,0-4.6.65c-1.16,1-1.09,2,.26,2.7a13.33,13.33,0,0,0,2.7,1.16c4.39,1.22,3.85,4.54,2,7.14A10,10,0,0,1,223.09,440.51Z" transform="translate(-86.74 -148.17)"/><path class="cls-3" d="M502.54,440c-2.4,0-2.44,0-1.77-2.26,2-6.77,4.09-13.53,6.09-20.31a2.4,2.4,0,0,1,1.57-1.7c1.07-.41,2.11-.88,3.16-1.33.23-.1.47-.29.7-.15s.05.53,0,.77q-2.11,7.17-4.27,14.33c-.87,2.94-1.78,5.87-2.62,8.81C504.86,440,504.9,440,502.54,440Z" transform="translate(-86.74 -148.17)"/><path class="cls-3" d="M166.82,440c-2.39,0-2.35,0-1.64-2.31q2.92-9.66,5.78-19.35c.39-1.3.79-2.44,2.34-2.8a20.5,20.5,0,0,0,2.72-1.12c.2-.08.45-.29.68-.08s0,.45,0,.68l-3.09,10.32c-1.26,4.18-2.54,8.35-3.78,12.54C169.05,440.45,169.49,440,166.82,440Z" transform="translate(-86.74 -148.17)"/><path class="cls-3" d="M459.17,425.81l10.07-9.74c-.57,1.92-1,3.57-1.54,5.18-.3.87-.05,1.11.79,1.06s1.47,0,2.38,0a14.1,14.1,0,0,1-2.16,3.49c-.31.42-.93.22-1.41.19a1.12,1.12,0,0,0-1.32.94c-1.12,3.84-2.32,7.65-3.41,11.5-.32,1.15-.76,1.67-2.07,1.63-3.21-.11-3.17,0-2.21-3.08,1-3.35,2-6.72,3-10.07.23-.75,0-.95-.7-.92A2.48,2.48,0,0,1,459.17,425.81Z" transform="translate(-86.74 -148.17)"/><path class="cls-3" d="M404.39,425.94c3.46-3.35,6.73-6.5,10.22-9.89-.55,1.88-.94,3.47-1.5,5-.42,1.16,0,1.36,1,1.27.64-.05,1.29,0,2.07,0a18.36,18.36,0,0,1-2,3.35c-.36.55-1,.36-1.48.33a1.19,1.19,0,0,0-1.42,1c-1.11,3.85-2.31,7.67-3.41,11.52-.31,1.09-.74,1.78-2,1.53a4.92,4.92,0,0,0-.86,0c-2.33,0-2.33,0-1.67-2.19q1.56-5.22,3.14-10.45c.42-1.36.44-1.35-1-1.37Z" transform="translate(-86.74 -148.17)"/><path class="cls-3" d="M342.29,421.59c-.32,1.07-.56,1.87-.9,3a10.35,10.35,0,0,1,5.26-2.65c.69-.09,1.56-.39,2,.08s-.35,1.06-.56,1.61c-.14.39-.39.73-.54,1.11-.44,1.12-.93,1.79-2.46,1.6-2-.26-4.42,1.79-5.15,4-.93,2.83-1.78,5.69-2.61,8.55-.24.83-.6,1.23-1.53,1.13a20.18,20.18,0,0,0-2.58,0c-.61,0-.9-.12-.68-.86,1.48-4.84,2.91-9.69,4.37-14.54.1-.32.15-.68.58-.86C339,423.1,340.53,422.39,342.29,421.59Z" transform="translate(-86.74 -148.17)"/><path class="cls-3" d="M470.15,440c-2.24,0-2.29,0-1.67-2.15,1.26-4.39,2.6-8.76,3.9-13.13a1.41,1.41,0,0,1,.9-1.05c1.22-.47,2.41-1,3.61-1.53.25-.1.53-.39.78-.18s.09.6,0,.91q-1.28,4.15-2.53,8.31c-.73,2.42-1.52,4.83-2.15,7.27-.31,1.21-.86,1.77-2.11,1.56A4.43,4.43,0,0,0,470.15,440Z" transform="translate(-86.74 -148.17)"/><path class="cls-3" d="M476.21,420.34c-1.45,0-2.11-.57-2.08-1.8a3.56,3.56,0,0,1,3.48-3.38c1.44,0,2.16.58,2.18,1.73A3.69,3.69,0,0,1,476.21,420.34Z" transform="translate(-86.74 -148.17)"/><path class="cls-4" d="M228.87,277.37c-3.45,0-6.89,0-10.34,0-.87,0-1.08-.27-1.11-1.11-.21-5.9-.49-11.79-.71-17.69,0-.78-.23-1.08-1.05-1.07q-11.19,0-22.39,0c-.79,0-1.06.42-1.36,1-3.13,5.94-6.29,11.86-9.39,17.82a1.73,1.73,0,0,1-1.79,1.07c-6.6,0-13.2,0-19.81,0-.42,0-1,.26-1.23-.18s.26-.74.46-1.08q19.95-33.87,39.92-67.74c3.22-5.47,6.46-10.93,9.66-16.42a1.61,1.61,0,0,1,1.63-1q10,0,19.93,0c.85,0,1.2.15,1.28,1.09.41,5.1.9,10.2,1.37,15.3q.93,10.27,1.87,20.55c.53,5.84,1,11.67,1.57,17.51.62,6.89,1.26,13.78,1.88,20.68.31,3.51.58,7,.93,10.52.09.85-.37.73-.86.73Z" transform="translate(-86.74 -148.17)"/><path class="cls-4" d="M280.17,217.11l-1.7,6.68c.79-.67,1.41-1.25,2.08-1.75,7.69-5.72,16.23-7.68,25.54-5.34,7,1.76,10.55,6.85,12,13.57,1.27,5.86.39,11.64-1,17.39-2.1,8.93-6.18,16.71-13.15,22.82-6.22,5.45-13.31,8.73-21.75,8.62-5.83-.08-10.7-2.13-14.26-6.9a6,6,0,0,0-.4-.46c-.05-.05-.15-.05-.3-.08-1.42,5.61-3,11.19-4.21,16.86a6.34,6.34,0,0,1-4.42,5.21c-5.46,2.1-10.76,4.6-16.13,6.93l-1.54.63c.58-2.44,1.11-4.7,1.67-7q9.33-37.89,18.64-75.78c.26-1.08.62-1.51,1.83-1.49,5.21.09,10.42,0,15.63,0Z" transform="translate(-86.74 -148.17)"/><path class="cls-4" d="M526.88,189c-2.92,11.56-5.79,23-8.71,34.54a31.52,31.52,0,0,1,2.61-2.2c7.76-5.25,16.14-7.6,25.39-4.94,6.93,2,10.44,7.49,9.76,14.67-.49,5.21-2.17,10.15-3.4,15.19-2.43,10-5,19.91-7.49,29.88-.26,1-.69,1.31-1.72,1.3-5.53-.05-11.07-.06-16.61,0-1.18,0-1.37-.25-1.08-1.38q4.35-17.07,8.63-34.15a10.09,10.09,0,0,0,.36-3.28,6.36,6.36,0,0,0-6.6-6.24c-4.13-.12-7.92.77-10.85,3.92a15.45,15.45,0,0,0-3.42,7c-2.77,11-5.57,22.05-8.32,33.08-.22.87-.59,1.06-1.42,1.05-5.7,0-11.4-.05-17.1,0-1.2,0-1.2-.36-1-1.3q6.84-27,13.64-54,2.78-11,5.54-22a1.81,1.81,0,0,1,1-1.41q9.95-4.67,19.87-9.39C526.22,189.16,526.45,189.1,526.88,189Z" transform="translate(-86.74 -148.17)"/><path class="cls-4" d="M385.09,259.75c2.54,4.12,7.13,5.68,12.2,4.21a18.56,18.56,0,0,0,8.74-5.68c.61-.67,1-.78,1.77-.19,3,2.28,6.05,4.51,9.11,6.7.7.5.69.79.11,1.37-6.48,6.59-14,11.37-23.25,12.82-5.74.89-11.48.86-16.89-1.58-8.24-3.71-12.8-10.28-13.17-19.18-.57-13.73,5.08-24.84,15.52-33.62,5.37-4.52,11.37-7.76,18.36-8.83,8.07-1.23,15.81-.5,22.53,4.73,4.62,3.58,7.09,8.48,8.21,14.12.27,1.32.33,2.68.54,4,.13.87-.2,1.28-1,1.65q-16.44,7.44-32.85,14.95Z" transform="translate(-86.74 -148.17)"/><path class="cls-4" d="M482.4,235a17.91,17.91,0,0,0-7.79-3.85,15,15,0,0,0-11.42,2.11c-6.12,4-10.09,9.35-11.08,16.73a11.39,11.39,0,0,0,10,12.67c4.65.5,8.93-.75,13.08-2.63.92-.42,1.13-.31,1.21.71.29,3.92.65,7.84,1,11.75a1.19,1.19,0,0,1-.75,1.34A45,45,0,0,1,455,279.34a22.82,22.82,0,0,1-22.44-19c-1.33-7.59.29-14.72,3.75-21.39,5.9-11.36,14.75-19.51,27.32-22.92,9.17-2.48,18-1.16,26.44,3.24.91.47,1.09.84.51,1.8-2.58,4.32-5.06,8.7-7.59,13.06C482.79,234.42,482.6,234.68,482.4,235Z" transform="translate(-86.74 -148.17)"/><path class="cls-5" d="M623.21,284.79c-8.64-.23-16.78-2.27-24.1-7-3.5-2.25-6-5.37-6.22-9.78a16.66,16.66,0,0,1,2.27-8.67c1.94-3.76,4.91-6.65,8-9.39a78.68,78.68,0,0,1,29.06-16c9.73-3,19.34.63,24.21,9.65,4.39,8.14,7.81,16.68,9.09,25.92.82,5.93,1,11.87-.95,17.63-1.47,4.44-4,8.2-8.47,10.2-4.68,2.1-9.25,1.29-13.69-.89.1-.87.86-1.16,1.44-1.56a55.44,55.44,0,0,0,7.07-5.7,12,12,0,0,0,3.65-10.93,42.35,42.35,0,0,0-2.39-10.63c-3.85-9.28-10.88-14.42-20.76-15.7a6.62,6.62,0,0,0-5.88,2.51,13,13,0,0,0-3.44,8.71,33.18,33.18,0,0,0,1.69,10.37,28,28,0,0,1,1.43,5.08,8.93,8.93,0,0,1-1.43,5.73A.9.9,0,0,1,623.21,284.79Z" transform="translate(-86.74 -148.17)"/><path class="cls-4" d="M364.17,193.52c-1,3.86-1.89,7.63-2.84,11.39s-1.85,7.38-2.81,11.06c-.22.84-.19,1.19.87,1.17,3.36-.08,6.73,0,10.09,0h1.36c-.73,1.26-1.35,2.35-2,3.44-2.16,3.71-4.34,7.42-6.49,11.14a1.51,1.51,0,0,1-1.54.9c-1.8-.06-3.61,0-5.41-.05-.9,0-1.18.31-1.38,1.11q-4.38,17.55-8.83,35.09c-.63,2.54-1.32,5.07-1.89,7.62-.19.83-.54,1-1.32,1q-8.61,0-17.22,0c-.94,0-1-.22-.82-1.11,3.58-14.15,7.11-28.31,10.72-42.46.3-1.19-.06-1.28-1.05-1.26-2.46,0-4.92,0-7.39,0C326.56,231.77,362.71,194.54,364.17,193.52Z" transform="translate(-86.74 -148.17)"/><path class="cls-5" d="M698.84,199.62c-.06,6.8-2.68,12.67-6.77,17.91a30.72,30.72,0,0,1-13.88,10.4,16.33,16.33,0,0,1-8.46.87c-4.94-.88-8.37-4.74-9.06-9.87-.77-5.79.84-11,3.64-16,3.81-6.76,9.07-12,16.39-14.91a16.16,16.16,0,0,1,9.15-1.06c5.26,1,8.69,5.18,9,10.67C698.86,198.31,698.84,199,698.84,199.62Z" transform="translate(-86.74 -148.17)"/><path class="cls-5" d="M630.11,197.77c.18-8.4,2.5-16.05,8-22.57a17.16,17.16,0,0,1,6.63-4.95c4.71-1.92,9.21-.5,12.28,3.82a21.27,21.27,0,0,1,3.62,10.07,36.83,36.83,0,0,1-5.72,24.49,20.16,20.16,0,0,1-5.26,5.63c-6.31,4.55-13,3-16.71-3.92A26,26,0,0,1,630.11,197.77Z" transform="translate(-86.74 -148.17)"/><path class="cls-4" d="M623.21,284.79a9.76,9.76,0,0,0,.87-9.35,30.23,30.23,0,0,1-2.28-13.19,12.56,12.56,0,0,1,4.9-9.26c2-1.53,4.28-1.62,6.67-1.14a25.76,25.76,0,0,1,20.93,22c.34,2.19.55,4.38.74,6.57.31,3.53-1.18,6.26-3.49,8.71a55.67,55.67,0,0,1-8.28,6.72c-.3.21-.57.46-.85.7a6.51,6.51,0,0,1-3.21-1.65,23.84,23.84,0,0,1-4-3.79c-3-3.47-7-5.13-11.34-6C623.65,285,623.39,285,623.21,284.79Z" transform="translate(-86.74 -148.17)"/><path class="cls-5" d="M705,246.61a25.52,25.52,0,0,1-5.65,15c-4,5.16-8.86,9.07-15.29,10.73-4.09,1-8.06.85-11.59-1.78a11.08,11.08,0,0,1-4.38-8.32c-.62-6.73,2-12.42,6-17.53a28.27,28.27,0,0,1,13.68-9.79,15.16,15.16,0,0,1,9.53-.22A11.44,11.44,0,0,1,705,245.38C705,245.79,705,246.2,705,246.61Z" transform="translate(-86.74 -148.17)"/><path class="cls-5" d="M624.07,213.23c-.12,6-1.46,11.47-5.2,16.12a12.14,12.14,0,0,1-8.76,4.88,11.82,11.82,0,0,1-9.27-3.8,23.35,23.35,0,0,1-6.46-13c-1.19-6.69-.51-13.14,2.87-19.15,1.81-3.23,4.3-5.85,7.94-7,5-1.53,9,.29,12.39,3.89C622.33,200.33,623.9,206.63,624.07,213.23Z" transform="translate(-86.74 -148.17)"/><path class="cls-6" d="M212,360.29c-.8,2.51-1.59,5-2.39,7.54-1.22,3.9-2.47,7.79-3.65,11.7-.25.81-.59,1.1-1.45,1.06-1.62-.07-3.26,0-5,0l4.76-13.69c1.79-5.13,3.61-10.25,5.37-15.39.28-.81.61-1.19,1.54-1.13,1.38.09,2.78,0,4.18,0,.58,0,.85.13.93.79.79,6.67,1.63,13.33,2.46,20,.06.48.16,1,.24,1.49a2.44,2.44,0,0,0,.76-1.11q5.55-10.05,11.06-20.11a1.68,1.68,0,0,1,1.8-1.07c1.39.08,2.79,0,4.18,0,.54,0,.79.09.74.75-.5,6.37-1,12.75-1.45,19.12-.23,3-.48,6.05-.65,9.08-.05,1-.36,1.35-1.39,1.28a30.27,30.27,0,0,0-3.81,0c-.77,0-1.06-.12-.95-1,.67-5.78,1.28-11.56,1.9-17.34.07-.61.11-1.22.18-2a2.24,2.24,0,0,0-.84,1.13c-3.33,6.06-6.67,12.11-10,18.19a1.49,1.49,0,0,1-1.6,1,22.64,22.64,0,0,0-3.19,0c-.81.06-1.08-.27-1.16-1-.41-3.46-.85-6.91-1.27-10.37q-.54-4.44-1.09-8.9Z" transform="translate(-86.74 -148.17)"/><path class="cls-6" d="M601.84,372.41c.71-3.37,1.36-6.4,2-9.44.82-3.91,1.66-7.83,2.46-11.76.13-.66.42-.86,1.07-.84,1.4,0,2.79.07,4.18,0,.94-.05,1,.35.83,1.08q-1.78,8.26-3.54,16.55c-.83,3.87-1.68,7.75-2.45,11.64-.15.79-.47,1-1.21,1-1.51,0-3-.06-4.55,0a1.38,1.38,0,0,1-1.55-1c-2.93-6.57-5.91-13.11-8.87-19.66-.12-.25-.26-.5-.53-1-.57,2.69-1.09,5.12-1.61,7.55-.92,4.36-1.85,8.71-2.75,13.08-.15.75-.43,1.09-1.28,1-1.43-.08-2.87,0-4.3,0-.58,0-.79-.1-.64-.77q3.06-14.32,6.06-28.67a.85.85,0,0,1,1-.77c1.59,0,3.2.06,4.79,0a1.45,1.45,0,0,1,1.63,1.05c2.88,6.64,5.81,13.24,8.73,19.86Z" transform="translate(-86.74 -148.17)"/><path class="cls-6" d="M558.61,381.09c-6.86.44-12.62-3.71-13.55-9.83a17,17,0,0,1,4.13-13.92,20,20,0,0,1,13.86-7.52c6.48-.6,12.42,2.88,14.06,8.5,1.13,3.89.4,7.62-1.25,11.21A19.93,19.93,0,0,1,558.61,381.09Z" transform="translate(-86.74 -148.17)"/><path class="cls-6" d="M180.15,381.12c-7.23.07-12.4-4.25-13.05-11.12a16.77,16.77,0,0,1,4.05-12.4,20.05,20.05,0,0,1,14.11-7.78c6.21-.57,12,2.66,13.85,7.95,1.28,3.7.74,7.36-.68,10.9A20,20,0,0,1,180.15,381.12Z" transform="translate(-86.74 -148.17)"/><path class="cls-6" d="M402.82,380.57c-1.6,0-3.2,0-4.8,0-.73,0-1-.11-.85-.95q3.06-14.2,6.06-28.44c.09-.42.11-.83.69-.81,3.77.12,7.56-.36,11.29.31a10.85,10.85,0,0,1,9.18,10.49c.51,9.73-7.53,18.75-17.26,19.32-1.43.08-2.87,0-4.31,0Z" transform="translate(-86.74 -148.17)"/><path class="cls-6" d="M351,367l7.27,13.59c-2.4,0-4.61,0-6.82,0-.75,0-.84-.55-1-1-1.58-3.5-3.13-7-4.7-10.52-.13-.3-.27-.59-.54-1.17-.53,2.46-1,4.63-1.47,6.81-.35,1.64-.7,3.28-1,4.93-.12.62-.32,1-1.1,1-1.47-.07-2.95-.07-4.43,0-.9,0-.9-.36-.75-1q2.87-13.44,5.72-26.87c.5-2.31.52-2.32,2.91-2.31,3.12,0,6.23,0,9.35.08a10.05,10.05,0,0,1,2.18.31c3.42.86,4.95,3.48,4.3,7.27a10,10,0,0,1-8.91,8.79Z" transform="translate(-86.74 -148.17)"/><path class="cls-6" d="M273.68,350.38c.79.09,2.11-.43,2.65.2s-.18,1.84-.38,2.78c-1.12,5.48-2.29,11-3.45,16.44-.05.24-.13.47-.16.71-.54,4.18,2.43,6.32,6.84,4.9a6.42,6.42,0,0,0,4.5-5.07c1.34-6.1,2.65-12.22,3.88-18.35.25-1.28.69-1.79,2-1.64a18,18,0,0,0,3.44,0c.93-.06,1.09.27.91,1.12-1.19,5.51-2.35,11-3.53,16.54-.23,1.08-.42,2.17-.71,3.24a13.36,13.36,0,0,1-12,9.7,17.77,17.77,0,0,1-5.86-.36c-4.57-1.23-6.78-4.63-5.84-9.54,1.26-6.67,2.75-13.29,4.13-19.93.13-.61.44-.79,1-.76C271.94,350.41,272.72,350.38,273.68,350.38Z" transform="translate(-86.74 -148.17)"/><path class="cls-6" d="M435.28,350.38h1.6c1.57,0,1.55,0,1.21,1.59-1.31,6.24-2.67,12.48-3.88,18.74-.61,3.11.91,4.85,4.08,5.05a6.74,6.74,0,0,0,7.28-5.6q2-9.29,3.93-18.6c.18-.88.44-1.26,1.4-1.2,1.43.09,2.87,0,4.3,0,.64,0,.76.2.63.8-1.4,6.55-2.71,13.13-4.21,19.67a13.14,13.14,0,0,1-12,10.11,15.9,15.9,0,0,1-6.91-.68,7.38,7.38,0,0,1-4.95-8.57c1.36-6.81,2.84-13.6,4.24-20.41.14-.71.38-1,1.1-.92S434.55,350.38,435.28,350.38Z" transform="translate(-86.74 -148.17)"/><path class="cls-6" d="M481,380.57a2,2,0,0,1,.48-1.22q7.83-14,15.66-27.94a1.71,1.71,0,0,1,1.81-1.05c1.47.08,2.95.05,4.43,0,.66,0,.93.19,1,.87q1.91,14.25,3.88,28.48c.09.65,0,.88-.73.86-1.64,0-3.29-.06-4.92,0-.83,0-1.06-.3-1.12-1-.15-2-.37-4.08-.49-6.12,0-.69-.25-.89-.93-.88-2.5,0-5,0-7.51,0a1.23,1.23,0,0,0-1.28.84c-1.07,2.12-2.21,4.2-3.28,6.32a1.32,1.32,0,0,1-1.39.89C484.74,380.54,482.87,380.57,481,380.57Z" transform="translate(-86.74 -148.17)"/><path class="cls-6" d="M252.4,350.46c1.93,0,3.86-.1,5.78,0,4.45.26,7.08,3.32,6.79,7.75a11.3,11.3,0,0,1-9,10.58,35.81,35.81,0,0,1-6.87.13c-.92,0-1.19.33-1.35,1.12-.64,3.2-1.34,6.39-2,9.6-.13.68-.4,1-1.12.93-1.48-.06-3,0-4.43,0-.73,0-.91-.17-.75-.91q2.51-11.62,4.95-23.26c.36-1.68.8-3.34,1.06-5,.14-.88.53-1,1.3-1,1.88,0,3.77,0,5.65,0Z" transform="translate(-86.74 -148.17)"/><path class="cls-6" d="M338.22,350.52c-.71,1.46-1.42,2.88-2.09,4.32-.26.56-.71.46-1.14.46-2.91,0-5.83.05-8.74,0-1,0-1.45.17-1.6,1.27-.25,1.77-.7,3.52-1.11,5.28-.2.85,0,1.13.93,1.11,2.71-.05,5.42,0,8.12,0,.73,0,1.05.09.8.94a18.94,18.94,0,0,0-.64,3c-.11.76-.48.86-1.15.86-2.75,0-5.49,0-8.24,0-.8,0-1.15.2-1.3,1q-.54,3-1.24,5.88c-.23,1,0,1.23,1,1.21,3.23-.06,6.48,0,9.71,0H333c-.78,1.57-1.49,3-2.18,4.41-.2.41-.54.43-.92.43-5.25,0-10.5,0-15.75,0-.8,0-.74-.38-.63-.92q1.89-8.82,3.76-17.64c.77-3.6,1.55-7.19,2.29-10.8.12-.58.27-.85.91-.85q8.67,0,17.35,0A2.24,2.24,0,0,1,338.22,350.52Z" transform="translate(-86.74 -148.17)"/><path class="cls-6" d="M399.1,350.38c-.78,1.6-1.47,3-2.11,4.39-.27.59-.74.54-1.23.54-3,0-6,0-9,0-.8,0-1.14.21-1.28,1-.31,1.82-.72,3.61-1.14,5.4-.2.86-.1,1.25.95,1.22,2.7-.07,5.41,0,8.11,0,.78,0,1,.15.77,1-.35,1.21-.19,2.87-.95,3.59s-2.42.2-3.68.22c-1.89,0-3.78,0-5.66,0-.61,0-.85.17-1,.76q-.63,3.19-1.35,6.36c-.18.83.14,1,.88.95,3.69,0,7.37,0,11.31,0-.81,1.62-1.55,3.09-2.3,4.55-.19.38-.56.29-.87.29-5.21,0-10.41,0-15.62,0-.83,0-.82-.35-.68-1q2.85-13.38,5.69-26.75c.53-2.48.56-2.48,3.15-2.48Z" transform="translate(-86.74 -148.17)"/><path class="cls-6" d="M138.66,368.63c0-7.59,5.34-14.78,13.19-17.7a15.64,15.64,0,0,1,11.74,0,12.82,12.82,0,0,1,2.75,1.6c.42.3.62.52.23,1-.92,1.25-1.79,2.54-2.64,3.84-.31.48-.52.45-.94.1-3.2-2.64-6.78-2.78-10.36-1.09a12.78,12.78,0,0,0-7.7,10.52c-.49,4.16,2.69,9.52,9.51,8.52a13.41,13.41,0,0,0,5.28-1.86c.6-.37.83-.31.93.43a22.59,22.59,0,0,0,.49,2.28c.46,1.95.47,2-1.27,2.81a17.85,17.85,0,0,1-11.57,1.75C142.23,379.68,138.66,375.12,138.66,368.63Z" transform="translate(-86.74 -148.17)"/><path class="cls-6" d="M457.29,367.51c.32-7.13,4.9-12.62,12.16-16.13a15.4,15.4,0,0,1,12.18-.68,12.88,12.88,0,0,1,3.43,1.88c.4.31.5.54.17,1-.91,1.26-1.78,2.55-2.64,3.85-.29.43-.47.52-.93.14-3.28-2.73-6.91-2.81-10.56-1a13,13,0,0,0-7.49,10c-.88,5.39,3.81,9.82,9.44,8.94a13.81,13.81,0,0,0,5.19-1.78c.62-.39,1-.52,1.09.43a8.39,8.39,0,0,0,.54,2.39c.59,1.38,0,2-1.2,2.56A18.36,18.36,0,0,1,467,380.9C461,379.73,457.37,375.19,457.29,367.51Z" transform="translate(-86.74 -148.17)"/><path class="cls-6" d="M317.17,350.57c-.81,1.58-1.62,3.16-2.42,4.76-.22.43-.6.36-.95.36-1.4,0-2.79,0-4.19,0-.74,0-1,.18-1.19,1-1.58,7.61-3.23,15.2-4.82,22.81-.17.82-.42,1.19-1.33,1.13a39.27,39.27,0,0,0-4.06,0c-.86,0-1.11-.13-.9-1.1,1.65-7.59,3.22-15.2,4.86-22.79.19-.85.05-1.06-.8-1-1.51.05-3,0-4.55,0-.61,0-.79-.14-.64-.77.31-1.31.55-2.64.82-4a.66.66,0,0,1,.77-.59l19.19.06S317,350.48,317.17,350.57Z" transform="translate(-86.74 -148.17)"/><path class="cls-6" d="M524.74,350.38c3,0,6,0,9,0,1,0,1.09.28.63,1.08a37.11,37.11,0,0,0-1.73,3.38,1.36,1.36,0,0,1-1.52.89c-1.27-.06-2.54,0-3.81,0-.77,0-1.11.15-1.29,1-1.57,7.61-3.23,15.19-4.81,22.79-.18.88-.49,1.15-1.35,1.11-1.39-.07-2.79,0-4.18,0-.78,0-1-.16-.78-1,1.65-7.63,3.23-15.27,4.88-22.9.19-.87,0-1.07-.81-1-1.47.05-3,0-4.42,0-.62,0-.92-.11-.76-.81.29-1.27.56-2.55.8-3.84.12-.66.55-.68,1.08-.68C518.67,350.39,521.71,350.38,524.74,350.38Z" transform="translate(-86.74 -148.17)"/><path class="cls-6" d="M540.68,350.38c.79.09,2.13-.43,2.64.2s-.21,1.84-.4,2.78c-1.84,8.73-3.71,17.45-5.53,26.17-.16.81-.45,1.1-1.27,1.06-1.44-.06-2.87,0-4.31,0-.75,0-.9-.2-.74-.92q2.38-11.1,4.73-22.2c.44-2,.93-4.07,1.28-6.12.14-.81.47-1,1.21-1S539.76,350.38,540.68,350.38Z" transform="translate(-86.74 -148.17)"/><path class="cls-3" d="M370.49,422.05a12.47,12.47,0,0,0-4.44,2.26c.15-.45.2-.64.28-.82.37-.85.23-1.3-.84-1.2a15.23,15.23,0,0,1-2.34,0c-.76-.05-1,.28-1.26,1-1.34,4.59-2.75,9.16-4.12,13.74-1,3.23-1.92,6.47-2.93,9.89a15.51,15.51,0,0,1,1.5-.54c2.66-.63,4.6-1.93,4.83-4.94a9.5,9.5,0,0,1,.47-1.52c.41-1.55.4-1.55,1.7-.58a4,4,0,0,0,1.07.58,8.44,8.44,0,0,0,6.45-.45c4.36-2.13,6.63-5.79,7.3-10.5C378.87,423.92,375.46,420.89,370.49,422.05Zm2.65,7.82c-.49,2.53-1.36,4.78-3.8,6.11a6.62,6.62,0,0,1-2.78.82,2.64,2.64,0,0,1-2.9-3.11,13.79,13.79,0,0,1,2.09-5.83,4.49,4.49,0,0,1,4-2.13A3.26,3.26,0,0,1,373.14,429.87Z" transform="translate(-86.74 -148.17)"/><path class="cls-3" d="M498.7,422.32c-1.35.09-3.23-.84-3.52,1.76-2.12-2.34-4.55-2.57-7.13-1.84a13,13,0,0,0-9.23,12.64c.06,3.83,2.52,5.92,6.73,5.48a9.77,9.77,0,0,0,5.25-2.23c-.28,1.88-.28,1.88,1.53,1.88a8.41,8.41,0,0,1,1.23,0c1,.16,1.45-.31,1.73-1.25,1.46-5,3-10,4.48-15C500.21,422.3,500.21,422.23,498.7,422.32Zm-5.39,6.28c-.44,2.8-1,5.58-3.64,7.29a4,4,0,0,1-4.78-.23,2.61,2.61,0,0,1-.92-2.39c0-3.78,2.33-7,5.68-7.61C491.9,425.22,493.71,426.13,493.31,428.6Z" transform="translate(-86.74 -148.17)"/><path class="cls-3" d="M218.11,422.59c-.51-.77-2-.15-3-.3a1.21,1.21,0,0,0-1.59,1.16c-.07.47-.28.68-.7.21-1.87-2.08-4.22-2-6.64-1.41A13.19,13.19,0,0,0,197,435c.16,4.07,3.17,5.74,6.63,5.36a10.39,10.39,0,0,0,5.32-2.21.6.6,0,0,1,0,.65c-.52,1.05,0,1.26.92,1.18a20.37,20.37,0,0,1,2.21,0c.72,0,1.05-.2,1.27-1,1.32-4.55,2.73-9.07,4.09-13.61C217.72,424.48,218.48,423.16,218.11,422.59Zm-10.29,13.34a4,4,0,0,1-5-.51,3.37,3.37,0,0,1-.66-2.76,7.35,7.35,0,0,1,5.77-7c2.16-.37,3.73.44,3.54,3.27C211,431.25,210.53,434.16,207.82,435.93Z" transform="translate(-86.74 -148.17)"/><path class="cls-3" d="M400.65,426.79c-1.08-4.17-4.61-5.65-8.89-4.84a13.56,13.56,0,0,0-9.26,6.51,9.59,9.59,0,0,0-1.57,6.68,6.54,6.54,0,0,0,7.24,5.39,13,13,0,0,0,2.32-.15,14.19,14.19,0,0,0,8.78-6.42A9.09,9.09,0,0,0,400.65,426.79Zm-4.44,3.5a7.76,7.76,0,0,1-5,6,4,4,0,0,1-1.81.28c-2.69,0-4-1.36-3.83-3.92a7.5,7.5,0,0,1,7.17-6.91A3.65,3.65,0,0,1,396.21,430.29Z" transform="translate(-86.74 -148.17)"/><path class="cls-3" d="M308.59,426.74c-1.12-4.18-4.63-5.57-8.8-4.81a13.57,13.57,0,0,0-9.36,6.58,9.5,9.5,0,0,0-1.53,6.68c.54,3.12,3.33,5.67,7.48,5.31.37,0,.95,0,1.52,0a3,3,0,0,0,.59-.14,14,14,0,0,0,8.76-6.45A9,9,0,0,0,308.59,426.74Zm-4.42,3.53a7.73,7.73,0,0,1-4.45,5.78,4.31,4.31,0,0,1-2.3.53c-2.77,0-4.05-1.34-3.93-3.9.19-3.73,3.68-7.06,7.27-6.93A3.65,3.65,0,0,1,304.17,430.27Z" transform="translate(-86.74 -148.17)"/><path class="cls-3" d="M434.49,427.65a8.78,8.78,0,0,0-.95-2.76c-2-3.15-4.74-3.44-8.33-2.93a11.43,11.43,0,0,0-5.92,3c-2.66,2.37-4.43,5.2-4.5,8.88,0,2.6.82,4.27,2.67,5.45,4.39,2.8,10.35.25,13.08-2.59.18-.19.34-.45.1-.64a10.63,10.63,0,0,0-2.07-1.51c-.5-.22-.78.59-1.25.81a13.83,13.83,0,0,0-1.23.82,4.5,4.5,0,0,1-5.42-.53c-.63-.68-.43-1,.34-1.31,4.24-1.82,8.46-3.68,12.69-5.52C434.25,428.61,434.64,428.29,434.49,427.65Zm-5.23-.12-8.87,3.91c-.25.11-.54.33-.77,0a1,1,0,0,1,0-.94,8.37,8.37,0,0,1,5.73-5.27,4.34,4.34,0,0,1,3.52.49,1.93,1.93,0,0,1,1,1.22C429.84,427.38,429.53,427.42,429.26,427.53Z" transform="translate(-86.74 -148.17)"/><path class="cls-3" d="M195.46,427.31a6.5,6.5,0,0,0-7.12-5.51,10.57,10.57,0,0,0-8,3.18c-3.15,2.74-4.92,6.1-4.45,10.34a5.33,5.33,0,0,0,2.28,3.78c4.35,3.13,10.57.57,13.39-2.35.28-.3.31-.56,0-.82a7.67,7.67,0,0,0-2-1.34c-.36-.11-.95.63-1.45,1a11.3,11.3,0,0,1-1,.68,4.45,4.45,0,0,1-5.4-.64c-.49-.57-.42-.89.26-1.18,4.26-1.88,8.51-3.79,12.79-5.62A1.12,1.12,0,0,0,195.46,427.31Zm-5.56.4c-2.8,1.24-5.62,2.46-8.42,3.72-.69.3-1,.22-1-.32.23-2.31,3.24-5.15,5.77-5.85a4.44,4.44,0,0,1,3.74.6C191.07,426.52,191,427.22,189.9,427.71Z" transform="translate(-86.74 -148.17)"/><path class="cls-3" d="M217.14,208.93v.9c.17,10.49.33,21,.54,31.48,0,1.06-.2,1.39-1.32,1.38-5.29-.07-10.58,0-15.87,0-.78,0-1.16,0-.67-1q8.48-16.08,16.89-32.2C216.76,209.41,216.85,209.32,217.14,208.93Z" transform="translate(-86.74 -148.17)"/><path class="cls-3" d="M272.28,254.52c.51-6.34,2.06-12.35,6-17.51,3.52-4.63,8.36-6.23,13.58-4.65,4.13,1.25,6.52,4.54,6.43,9.5a23.93,23.93,0,0,1-7.12,17.26,15.14,15.14,0,0,1-9,4.55c-6.23.74-9.74-2.28-9.84-8.53C272.27,254.93,272.28,254.73,272.28,254.52Z" transform="translate(-86.74 -148.17)"/><path class="cls-3" d="M382.29,245.87a13.53,13.53,0,0,1,3.46-8.47c3.22-3.9,7.05-7,12.13-8.1A12.86,12.86,0,0,1,408.24,231a6.93,6.93,0,0,1,2.16,2.31c.48.82.45,1.28-.54,1.73-5.22,2.35-10.4,4.78-15.6,7.18L384,246.93C382.27,247.73,382.27,247.73,382.29,245.87Z" transform="translate(-86.74 -148.17)"/><path class="cls-7" d="M637,251.06c-2.7,0-4.37-1.51-4.62-4a9.94,9.94,0,0,1,6.52-10c3.54-1.14,6.52,1,6.49,4.74a10.21,10.21,0,0,1-6.66,9A4.26,4.26,0,0,1,637,251.06Z" transform="translate(-86.74 -148.17)"/><path class="cls-7" d="M654.05,249.08a8.1,8.1,0,0,1-4.16,5.94,3.22,3.22,0,0,1-3.81-.2c-1.45-1.14-1.43-2.74-1.05-4.27a8,8,0,0,1,4-5.1C651.7,243.92,654.07,245.36,654.05,249.08Z" transform="translate(-86.74 -148.17)"/><path class="cls-7" d="M650.83,260a6.11,6.11,0,0,1,4.25-5.93,3,3,0,0,1,4,3.28,6.87,6.87,0,0,1-3.37,5.4,3.41,3.41,0,0,1-3.6.34C651,262.37,650.79,261.18,650.83,260Z" transform="translate(-86.74 -148.17)"/><path class="cls-7" d="M657,271.26a2.51,2.51,0,0,1-2.68-2.68,5.49,5.49,0,0,1,4.45-5c2.19-.22,3.34.89,3.18,3.08A5.34,5.34,0,0,1,657,271.26Z" transform="translate(-86.74 -148.17)"/><path class="cls-7" d="M658.91,279.42a2.28,2.28,0,0,1-2.46-2.87,4.48,4.48,0,0,1,3.94-3.64c2.12-.15,3.24,1.21,2.71,3.27A4.71,4.71,0,0,1,658.91,279.42Z" transform="translate(-86.74 -148.17)"/><path class="cls-8" d="M563.31,355.27c5.36,0,8.86,4.26,7.87,9.6-1.11,5.94-6.34,10.64-11.9,10.7-5.28.05-8.76-3.85-8.09-9.08a13.36,13.36,0,0,1,10-11A20.47,20.47,0,0,1,563.31,355.27Z" transform="translate(-86.74 -148.17)"/><path class="cls-8" d="M185.45,355.31a7.68,7.68,0,0,1,8,9.24c-.9,5.93-6.21,10.91-11.75,11s-9-3.88-8.24-9.38a13.46,13.46,0,0,1,9.82-10.65A13.84,13.84,0,0,1,185.45,355.31Z" transform="translate(-86.74 -148.17)"/><path class="cls-8" d="M417.87,362.74a12.42,12.42,0,0,1-12.59,12.54c-.76,0-.88-.25-.73-.94,1.3-6,2.57-12,3.85-18,.08-.41.07-.82.66-.85,3.92-.22,7.51,1.2,8.62,5.61A10.43,10.43,0,0,1,417.87,362.74Z" transform="translate(-86.74 -148.17)"/><path class="cls-8" d="M348.3,363.84c-2.33,0-2.32,0-1.84-2.23.4-1.87.81-3.74,1.19-5.62.12-.61.34-.93,1-.87a22.76,22.76,0,0,1,3.78.21,3.1,3.1,0,0,1,2.46,4C354.25,362.29,352,363.83,348.3,363.84Z" transform="translate(-86.74 -148.17)"/><path class="cls-9" d="M499.91,356.4c.18,2.14.37,4.28.54,6.42.11,1.51.17,3,.32,4.53.06.67-.17.83-.8.82-2.05,0-4.09,0-6.34,0l6-11.81Z" transform="translate(-86.74 -148.17)"/><path class="cls-8" d="M251.4,364.35c-2.43,0-2.44,0-2-2.3.4-2,.83-3.91,1.23-5.87.11-.52.23-.91.91-.89,1.43.07,2.87,0,4.29.1,2.34.19,3.38,1.66,3,4a5.52,5.52,0,0,1-5.47,5C252.71,364.39,252.05,364.35,251.4,364.35Z" transform="translate(-86.74 -148.17)"/></svg>