<svg id="Layer_1" data-name="Layer 1" xmlns="http://www.w3.org/2000/svg" viewBox="0 0 99.21 96.81"><defs><style>.cls-1{fill:#0a1b33;}.cls-2{fill:#0b192e;}.cls-3{fill:#0b192d;}.cls-4{fill:#253040;}.cls-5{fill:#283242;}.cls-6{fill:#101e31;}.cls-7{fill:#132032;}.cls-8{fill:#121e30;}.cls-9{fill:#121f31;}.cls-10{fill:#192334;}.cls-11{fill:#4aa2da;}.cls-12{fill:#49a3db;}.cls-13{fill:#0b1a37;}.cls-14{fill:#091b34;}.cls-15{fill:#091b35;}.cls-16{fill:#0a1b2e;}.cls-17{fill:#091a31;}.cls-18{fill:#43a5dc;}.cls-19{fill:#0c1d39;}.cls-20{fill:#0c1e3e;}.cls-21{fill:#0b1a38;}.cls-22{fill:#0b1c30;}.cls-23{fill:#40a4dc;}.cls-24{fill:#0a1c37;}.cls-25{fill:#092441;}.cls-26{fill:#0a1b30;}.cls-27{fill:#0a1a35;}.cls-28{fill:#0a1936;}.cls-29{fill:#0a1b2f;}.cls-30{fill:#0b1a39;}.cls-31{fill:#479fd8;}.cls-32{fill:#091a30;}.cls-33{fill:#112649;}.cls-34{fill:#122549;}.cls-35{fill:#0b1837;}.cls-36{fill:#122146;}.cls-37{fill:#0b1d33;}.cls-38{fill:#0b1a3a;}.cls-39{fill:#0b1d32;}.cls-40{fill:#0b1c2e;}.cls-41{fill:#0b1b39;}.cls-42{fill:#419ed8;}.cls-43{fill:#142349;}.cls-44{fill:#0c1c2b;}.cls-45{fill:#17264e;}.cls-46{fill:#0b1935;}.cls-47{fill:#0c1739;}.cls-48{fill:#0b1d30;}.cls-49{fill:#0c1b2c;}.cls-50{fill:#0b1b2e;}.cls-51{fill:#0a1c38;}.cls-52{fill:#0b1938;}.cls-53{fill:#0a1a38;}.cls-54{fill:#0c1e2b;}.cls-55{fill:#0d1b2a;}.cls-56{fill:#0d1f28;}.cls-57{fill:#0c1d2d;}.cls-58{fill:#0e163c;}.cls-59{fill:#1a2c57;}.cls-60{fill:#0e1638;}.cls-61{fill:#0f1537;}.cls-62{fill:#0d1c28;}.cls-63{fill:#33a8de;}.cls-64{fill:#0b1b3a;}.cls-65{fill:#0b183a;}.cls-66{fill:#14274d;}.cls-67{fill:#0c1d29;}.cls-68{fill:#0d1d2c;}.cls-69{fill:#091c39;}.cls-70{fill:#112347;}.cls-71{fill:#0c1c3a;}.cls-72{fill:#0c173b;}.cls-73{fill:#0c1f30;}.cls-74{fill:#12274b;}.cls-75{fill:#0f1a40;}.cls-76{fill:#0c1d26;}.cls-77{fill:#0e183e;}.cls-78{fill:#0c1e28;}.cls-79{fill:#091b3a;}.cls-80{fill:#0b1c3b;}.cls-81{fill:#0d1639;}.cls-82{fill:#0c1f34;}.cls-83{fill:#4899d4;}.cls-84{fill:#0b1c3c;}.cls-85{fill:#0d1e34;}.cls-86{fill:#0e173d;}.cls-87{fill:#3b98d2;}.cls-88{fill:#44a4dc;}.cls-89{fill:#4aa0d9;}.cls-90{fill:#0c1e37;}.cls-91{fill:#3c9bd6;}.cls-92{fill:#49a1d9;}.cls-93{fill:#45a3db;}.cls-94{fill:#45a5dc;}.cls-95{fill:#45a6dd;}.cls-96{fill:#499fd8;}.cls-97{fill:#39a1da;}.cls-98{fill:#42aae0;}.cls-99{fill:#41a7de;}.cls-100{fill:#40a8df;}.cls-101{fill:#3fa8df;}.cls-102{fill:#4c9ad4;}.cls-103{fill:#35a6de;}.cls-104{fill:#1b335e;}.cls-105{fill:#4e98d2;}.cls-106{fill:#3aa1d5;}.cls-107{fill:#35a2d8;}.cls-108{fill:#33ace3;}.cls-109{fill:#46a5dc;}.cls-110{fill:#43a4dc;}.cls-111{fill:#419cd6;}.cls-112{fill:#3ea6de;}.cls-113{fill:#42a7de;}.cls-114{fill:#3caae0;}.cls-115{fill:#3ca8df;}.cls-116{fill:#0c2040;}.cls-117{fill:#37a5db;}.cls-118{fill:#3ea4dc;}.cls-119{fill:#32a4da;}.cls-120{fill:#439ace;}.cls-121{fill:#3fa8dd;}.cls-122{fill:#43a9df;}.cls-123{fill:#3babe1;}.cls-124{fill:#4d99d3;}.cls-125{fill:#31aae1;}.cls-126{fill:#173158;}.cls-127{fill:#0b1b33;}.cls-128{fill:#0a1c3b;}.cls-129{fill:#48a0d9;}.cls-130{fill:#0a1a2f;}.cls-131{fill:#09192e;}.cls-132{fill:#0a173b;}.cls-133{fill:#0d1d2a;}.cls-134{fill:#0e1639;}.cls-135{fill:#0d1c2d;}.cls-136{fill:#0c183c;}.cls-137{fill:#0c1a3e;}.cls-138{fill:#42a6dd;}.cls-139{fill:#0b1f25;}</style></defs><title>photoshop</title><path class="cls-1" d="M453.25,264.4c0,.31-.2.49-.33.72-.42.45-.45,1.08-.74,1.59a16.76,16.76,0,0,1-6.68,6.75,19.59,19.59,0,0,1-6.2,2.17,11,11,0,0,1-3,.11,2.69,2.69,0,0,1-1,.06H373.37a2.93,2.93,0,0,1-1-.06,15.05,15.05,0,0,1-8-2.1,10.46,10.46,0,0,0-2-1.28h0c0-.11,0-.28-.08-.34a13.1,13.1,0,0,1-3-2.91,25.09,25.09,0,0,1-1.84-2.53c-.31-.62-.37-1.35-.91-1.88a.72.72,0,0,1,.1-1c.43-.46.38-.8-.26-.93s-.65-.47-.68-.91a1.5,1.5,0,0,0-.28-1,1.75,1.75,0,0,1-.15-1.08c.34-.57.05-1.17.06-1.76,0-1.91,0-3.83,0-5.74V196.34a2.77,2.77,0,0,0-.07-1.07,16.64,16.64,0,0,1,4.34-10.35,17.61,17.61,0,0,1,10.75-5.79,17.18,17.18,0,0,1,2.59,0,2.93,2.93,0,0,1,1-.06h61.4a2.93,2.93,0,0,1,1,.06,6.91,6.91,0,0,1,2.79.23c0,.28-.13.41-.37.47a21.38,21.38,0,0,1-3.92-.05H374.23c-1.15,0-2.31.38-3.46,0-.07.66-.67.32-1,.52a1.66,1.66,0,0,1-1.26.19c.81.2,1.57-.25,2.37-.3,1.93-.13,3.85-.38,5.8-.38q28.89,0,57.78,0a16.81,16.81,0,0,1,4.78.56,1.36,1.36,0,0,0,1.43-.21,2.74,2.74,0,0,1,3,.8c.25.43.64.48,1,.59s.65-.06,1,0c1.27,1,2.52,2,3.82,2.92h0c.06.15,0,.23-.15.28l-.17,0c-.24,0-.54-.2-.67.19a.18.18,0,0,0,.11.21c.39.17.52-.12.67-.38.42-.16.61.15.73.44a1.37,1.37,0,0,0,.61.71,15.37,15.37,0,0,1,2,3.75c.1.28.22.53.57.52a9.63,9.63,0,0,1,.75,2.52c-.13.41.16.85-.12,1.25a6.65,6.65,0,0,0-.3,1.93c0,20.4,0,40.8,0,61.2,0,1.35.09,2.71.19,4.06.3.29.13.6,0,.9A10,10,0,0,0,453.25,264.4Z" transform="translate(-355.19 -179.01)"/><path class="cls-2" d="M453.81,193.84c.05-.36-.13-.75.15-1.07a12.84,12.84,0,0,1,.43,3.9q0,30.81,0,61.63a15,15,0,0,1-1.14,6.1c-.27,0-.3-.14-.21-.41.28-.87.51-1.76.76-2.64a.51.51,0,0,1-.19-.48,29,29,0,0,0-.08-3.84c0-12.95,0-25.89,0-38.84,0-2.2-.05-4.41,0-6.62.07-1.62,0-3.28,0-4.91q0-3.84,0-7.68c0-1.49-.09-3,.05-4.46A1,1,0,0,1,453.81,193.84Z" transform="translate(-355.19 -179.01)"/><path class="cls-3" d="M355.25,195.28c.29.34.15.75.15,1.12q0,30.33,0,60.66a6.23,6.23,0,0,0,.15,1.87c.08.26.2.69-.3.8,0-.81-.07-1.61-.07-2.42V197.24C355.18,196.59,355.23,195.93,355.25,195.28Z" transform="translate(-355.19 -179.01)"/><path class="cls-4" d="M372.4,275.73c.36,0,.72,0,1.07,0H435.2c.36,0,.72,0,1.07,0-.29,0-.59.07-.88.07h-62C373.05,275.8,372.72,275.76,372.4,275.73Z" transform="translate(-355.19 -179.01)"/><path class="cls-5" d="M436.28,179.09c-.36,0-.72,0-1.07,0H374c-.36,0-.72,0-1.07,0,.3,0,.59-.07.89-.07H435.4C435.69,179,436,179.07,436.28,179.09Z" transform="translate(-355.19 -179.01)"/><path class="cls-6" d="M355.41,260.81c.49.12.55.45.46.89s0,.83.62.82a.69.69,0,0,1,.7.56c.1.34-.1.51-.39.69s-.47.76-.13.91c.88.4.58,1.27.9,1.87.05.19,0,.24-.2.19A14.85,14.85,0,0,1,355.41,260.81Z" transform="translate(-355.19 -179.01)"/><path class="cls-7" d="M438.9,179.65c.06-.11.12-.22.17-.33a4.67,4.67,0,0,1,2.37.36,11.88,11.88,0,0,1,4.49,1.93.12.12,0,0,1-.21,0c-1.18.3-1.48.14-2.31-.93-.47-.6-1.26-.54-2-.59a1.61,1.61,0,0,1-.58-.1.44.44,0,0,1-.33.11A5.62,5.62,0,0,0,440,180a1.28,1.28,0,0,1-.34-.07l-.55-.16A.47.47,0,0,1,438.9,179.65Z" transform="translate(-355.19 -179.01)"/><path class="cls-8" d="M357.36,266.74l.2-.19a6.46,6.46,0,0,0,1.19,1.66c.86.6,1.08,1.68,1.95,2.25.57.38.83,1.15,1.69,1.22.24,0,.1.44,0,.67A16.2,16.2,0,0,1,357.36,266.74Z" transform="translate(-355.19 -179.01)"/><path class="cls-8" d="M453.21,190.24c-.17-.09-.33.49-.55-.06s-.6-1.26-.85-1.93a8.44,8.44,0,0,0-1-1.76,1,1,0,0,1-.2-.55c.06-.08.12-.08.19,0A14.09,14.09,0,0,1,453.21,190.24Z" transform="translate(-355.19 -179.01)"/><path class="cls-9" d="M445.72,181.63l.21,0a12.59,12.59,0,0,1,3.58,2.87,4.47,4.47,0,0,1-1.7-1C447.14,182.82,446.21,182.49,445.72,181.63Z" transform="translate(-355.19 -179.01)"/><path class="cls-9" d="M450.76,185.93h-.19c-.41.18-.58,0-.63-.4s-.2-.66-.63-.68a.11.11,0,0,1-.05-.12s0-.06.05-.06l.2-.2A6,6,0,0,1,450.76,185.93Z" transform="translate(-355.19 -179.01)"/><path class="cls-8" d="M362.36,272.35a3.13,3.13,0,0,1,2,1.28A6.69,6.69,0,0,1,362.36,272.35Z" transform="translate(-355.19 -179.01)"/><path class="cls-10" d="M452.19,266.71c.23-.54-.05-1.31.74-1.59A3.81,3.81,0,0,1,452.19,266.71Z" transform="translate(-355.19 -179.01)"/><path class="cls-11" d="M403.63,230.09a8,8,0,0,1-2.62,1.44,2.39,2.39,0,0,0-1,0c.09.18.24.24.28.39-.24.3-.66.25-.95.47-.34.52-1,.15-1.41.52a11.66,11.66,0,0,1-3.91.85,33.85,33.85,0,0,1-6.6,0c-.69,0-.83.21-.81.81.11,3.85,0,7.71.05,11.56,0,.38.07.79-.3,1.07-1,0-1.07,0-1.09-1-.05-2.66,0-5.31,0-8,0-.63,0-1.25,0-1.88s-.46-1.06-.54-1.65a5.77,5.77,0,0,0,0,1.66c0,3.07,0,6.15,0,9.22a3.5,3.5,0,0,1-.26,1.66,1.84,1.84,0,0,1-1.13.18c-1.49,0-3,0-4.46,0a1.08,1.08,0,0,1-1.25-.87,5.61,5.61,0,0,1-.06-1.16V208a6.55,6.55,0,0,1,0-1c.05-.31.17-.62.52-.64s.44.34.48.63a6.52,6.52,0,0,1,0,1v20.5c0-7.33,0-14.65,0-22,.28-.44.73-.3,1.13-.34.58-.06,1.2.13,1.74-.21a4,4,0,0,1,2.07-.05,1.15,1.15,0,0,0,1-.17c.89-.55,1.82,0,2.73-.14,1.21.42,2.45.14,3.75.23-.16-.24-.66-.15-.43-.57A9,9,0,0,1,393,205a6.35,6.35,0,0,0,3.07-.42c.36-.15.83-.47,1.06.25s0,.92-.68,1.1-1.43-.16-1.95-.11c1.1.6,2.37-.09,3.72-.05-.3-.22-.85-.2-.79-.66s.6-.41.91-.62c1.93.57,3.89,1.08,5.3,2.68-.28.31,0,.8-.34,1.1a.85.85,0,0,1-.87,0c-.18-.11-.25-.33-.43-.47,0,.21.22.25.32.37.27.21.27.58.48.83.48-.06.31-.54.53-.74s.27-.62.57-.82a.5.5,0,0,1,.48.11,2.72,2.72,0,0,1,.81,1,8,8,0,0,1,.3,1,.74.74,0,0,1-.4.72.82.82,0,0,0-.34.8c.21-.17.23-.58.62-.46a.62.62,0,0,1,.19.37c0-.24-.16-.31-.23-.44a.47.47,0,0,1,.55-.42,1,1,0,0,1,.63.6,9.07,9.07,0,0,1,1.18,2.52c.15.32.46.52.65.82a15.66,15.66,0,0,1,.67,4.85,15.35,15.35,0,0,1-2.23,8c-.3.16-.67.24-.72.67a.67.67,0,0,1-.14.19c-.3.19-.61.37-.6.8a.69.69,0,0,1-.48.52h0A2.62,2.62,0,0,1,403.63,230.09Z" transform="translate(-355.19 -179.01)"/><path class="cls-12" d="M435.06,244.09l-.65.71c-.14.56-.71.62-1.06.92h0a7.42,7.42,0,0,1-2.65,1.59,23.69,23.69,0,0,1-9.86,1,27,27,0,0,1-5.51-.93,2.24,2.24,0,0,1-1-.53c-.2-.3.05-.62,0-1-.17.29.13.89-.58.73s-.67-.69-.66-1.22c0-2.22,0-4.43.05-6.65,0-.26-.07-.53.16-.74l0,0c1-.23,1.52.49,2.19.94-.16.61-1,.1-1.15.79a1.43,1.43,0,0,0,.68.36c-.46-.81.4-.8.67-1.16.56.31,1.35.09,1.76.76a1.5,1.5,0,0,1-.69.55,5.68,5.68,0,0,0,1.72-.45,28.73,28.73,0,0,0,5.39.62,8.59,8.59,0,0,0,3.48-.62c1.07-.45,1.36-1.21.77-2a2.41,2.41,0,0,1-.59-.56,3.27,3.27,0,0,0-.37-.28c-.37-.48-1.14-.47-1.37-1.12a1.13,1.13,0,0,1,.91-.59c-.5,0-.82.51-1.33.5a.71.71,0,0,1-.25,0,1,1,0,0,1-.49-.34c-.17-.26-.37-.16-.58,0a.63.63,0,0,1-.46-.13c-.15-.13-.37-.23-.26-.5.72-.3-.09-.42-.08-.63s.05-.27.22-.29a.11.11,0,0,0-.09,0c-.18.05-.21.18-.18.34-.17.31-.52.36-.79.51a5.52,5.52,0,0,1-1.75-.69,7.77,7.77,0,0,1-1.14-.51c-.5-.35-1.12-.55-1.45-1.12,0-.06,0-.13,0-.17-.85-1-.85-1-.08-2.1-.84,0-.91.8-1.33,1.18-.32.09-.48-.11-.61-.35-.37-.62-.4-1.39-.85-2-.19-.08-.43-.1-.51-.34a7.05,7.05,0,0,1,.64-1.65,3,3,0,0,0,0-2.92c-.67-1-.31-1.94-.17-2.9.05-.35.23-.62-.09-1a.74.74,0,0,1,.08-1,2.5,2.5,0,0,0,.49-1.23,4.3,4.3,0,0,1,2.25-2l.61-.25c.12,0,.06.24.21.16s-.06-.19,0-.29a10.09,10.09,0,0,1,4.5-1.42,28.53,28.53,0,0,0,4.33.27,6.31,6.31,0,0,1,2,.19c.09,0,.18.07.26,0a14.6,14.6,0,0,1,2.88-.14,6.92,6.92,0,0,1,2.83.94.33.33,0,0,1,.17.18.57.57,0,0,1-.07.49c-.23.32-.85,0-.94.72-.06.5.59.25.43.64,0,1.23,0,2.46,0,3.69,0-1.3,0-2.6,0-3.91a.21.21,0,0,1,.26-.1,7.08,7.08,0,0,1,.15,2.47,17.8,17.8,0,0,1,0,1.79c-.05.92-.5,1.19-1.36.79-.27-.12-.58-.16-.77-.43s.09-.38-.09-.42-.41.15-.47.41c-.19.51-.64.49-1.06.51a3.54,3.54,0,0,1-.73-.07,16,16,0,0,0-7.35-.38,1.92,1.92,0,0,0-1.38,1,2.34,2.34,0,0,1-.09.24,1,1,0,0,0,0,.89,2.74,2.74,0,0,0,.74.88,7.85,7.85,0,0,0,2.1,1.3c.26.13.58.17.69.5,0,.5-.89.38-.66,1-.11.93-.12.88.75.83a19,19,0,0,1,2.61.13c.31,0,.57.1.79-.17a.47.47,0,0,1,.56.11,3.11,3.11,0,0,0,2,.84.74.74,0,0,1,.21.13c.22.46.54.69,1.06.47.84.41,1.73.77,2,1.81,0,.11-.15.14-.2.22.14.07.27-.06.41,0,.36.14.61.36.48.79-.74.5-1.38,0-1.82-.41a2.28,2.28,0,0,0-2.22-.4c.7.15,1.33-.46,1.95.22.48.53.5,1.19.81,1.85.5-.51,1-.93,1.71-.78a4.5,4.5,0,0,1,1.1,3.49.08.08,0,0,0,0,.12,8.6,8.6,0,0,1-1.08,5.59h0A3.36,3.36,0,0,1,435.06,244.09Z" transform="translate(-355.19 -179.01)"/><path class="cls-13" d="M386.33,247.18c.28-.27.14-.62.15-.93,0-3.89,0-7.78,0-11.67,0-.76.12-1.05,1-1a34,34,0,0,0,10.68-.8c.09-.09.15-.07.2,0-.14.15-.39.22-.36.5s0,.25-.18.18h-.36c-1.59.25-3.14.88-4.8.49a1.64,1.64,0,0,0-1.05.07,5.24,5.24,0,0,0-.92.2c-.37.16-.88.41-1.14-.23a4.42,4.42,0,0,0-2.42-.09c-.26,0-.32.34-.2.59a.76.76,0,0,1-.08.76c.2,1.51,0,3,.09,4.55,0,.33,0,.66,0,1a9.22,9.22,0,0,0,0,1.39c-.07,1,0,1.92,0,2.88.07.39-.13.79,0,1.19,0,.16.13.32.06.49a3.31,3.31,0,0,0-.18,1.08,2.88,2.88,0,0,1-2.43.23,1.71,1.71,0,0,0-1-.17c-1.46,0-2.92,0-4.38,0-.29,0-.61,0-.25.4a.31.31,0,0,1,0,.25c-.67.41-.94-.11-1.26-.54a3.35,3.35,0,0,1-1.33-2.79c0-3,0-6,0-9.06,0-7.77,0-15.55,0-23.32,0-2.18-.09-4.36-.14-6.54a1.24,1.24,0,0,1,.22-.84c0-.09,0-.18,0-.26,0-.6.83-.07.77-.44a.82.82,0,0,1,.47-.92,1.14,1.14,0,0,0,.11.11,7.14,7.14,0,0,1,.15,2.06,1.4,1.4,0,0,1,0,.5,7.79,7.79,0,0,0,0,1.08v37.94c0,.24,0,.48,0,.72,0,.91.24,1.09,1.14,1.06,2.45-.07,4.9.1,7.35-.16Z" transform="translate(-355.19 -179.01)"/><path class="cls-14" d="M439.62,179.83H440c.13.2.34.18.54.18h.36c-.26.16.28.49-.09.56a2.58,2.58,0,0,1-1.57.09,9.08,9.08,0,0,0-4.06-.6q-30.56-.1-61.1,0c-1.1,0-2.2.34-3.31.36-.86,0-1.72.44-2.75,0,1,.07,1.78-.56,2.71-.35-.13-.34-.43-.11-.58-.3a1.92,1.92,0,0,1,1.41-.15,10.78,10.78,0,0,0,2.66-.13q30.33,0,60.65,0a34.27,34.27,0,0,1,4,.15h.18A.58.58,0,0,0,439.62,179.83Z" transform="translate(-355.19 -179.01)"/><path class="cls-15" d="M453.81,193.84v67.51c-.28.29-.63.32-.5-.16.35-1.38,0-2.73,0-4.08q0-30.45,0-60.9c0-.69.33-1.33.13-2C453.31,193.92,453.58,193.86,453.81,193.84Z" transform="translate(-355.19 -179.01)"/><path class="cls-16" d="M376.24,205.51c.36,13.3.1,26.6.18,39.89,0,1,.73,1.77,1.08,2.66-.49.48-.86.62-.92-.29a.83.83,0,0,0-.34-.61,3.64,3.64,0,0,1-.37-2q0-18.66,0-37.32a6.19,6.19,0,0,0-.11-1.6C375.7,206,375.6,205.46,376.24,205.51Z" transform="translate(-355.19 -179.01)"/><path class="cls-17" d="M430.46,223.28c-.87.11-1.74,0-2.63.16a11.9,11.9,0,0,1-2.06-.16,2.13,2.13,0,0,0-.62,0c-.29.1-.73.23-.66.57a.64.64,0,0,0,.79.41,1.61,1.61,0,0,1,.44,0c.85,0,1.28.27,1.17,1.24-.14,1.15,1,1,1.6,1.36-.11.64-.57.53-.95.37a4.15,4.15,0,0,1-2.08-1.31c-.08-.13-.21-.29-.35-.23-1.11.46-1.67-.43-2.4-.93-.49-.47-.1-1.08-.27-1.6a8.82,8.82,0,0,1,.53-.82,1.56,1.56,0,0,1,.2-.16,6.47,6.47,0,0,1,.88-.42c.4-.14.76-.14.91.37,0,.19-.15.3-.26.43-.27.3-.79,0-1.09.52.66.1.91-.41,1.27-.66a5.43,5.43,0,0,1,2.91.11,3.41,3.41,0,0,0,2.35-.24c.87-.3,1-.29,1.6.51,0,.43-.2.52-.56.45h0A.48.48,0,0,0,430.46,223.28Z" transform="translate(-355.19 -179.01)"/><path class="cls-18" d="M415.71,217.83a1.64,1.64,0,0,1-.52,1.53c-.24.2-.26.65-.08.7.93.3.29.63.15,1.08a9.09,9.09,0,0,0-.23,2,.47.47,0,0,0,.09.33,3.31,3.31,0,0,1,.13,3.81c-.29.42-.07,1-.59,1.35a.15.15,0,0,1-.25,0,3.74,3.74,0,0,1-.67-1.59c-.16-.73-.25-1.47-.43-2.19a3.86,3.86,0,0,1,.45-2.62c.43-.22.68-.14.68.4,0,1.37.23,2.72.14,4.19a1.46,1.46,0,0,0,.21-.93,19.67,19.67,0,0,0-.49-4.05c-.11-.43.22-.82,0-1.22a1.52,1.52,0,0,1-.17-.63C414.46,219.17,414.74,218.25,415.71,217.83Z" transform="translate(-355.19 -179.01)"/><path class="cls-19" d="M404.22,207.68l-.33-.15a.26.26,0,0,1-.33-.25,13,13,0,0,0-5.24-2.65c-.62.17-1.15-.22-1.74-.25a44,44,0,0,0-8.18-.6,2.92,2.92,0,0,0-1,.14l-.33,0c-1.63,0-3.25,0-4.88,0a3.39,3.39,0,0,0-1.14.13,8.75,8.75,0,0,1-3.53-.15l-.06-.06a.58.58,0,0,1,.49-.34c5.33-.25,10.66-.33,16-.1a10,10,0,0,1,5,1,6.8,6.8,0,0,0,1.47.57c.32.1.87.47,1.07-.26,0-.15.2-.1.28,0,.37.46,1.23.4,1.22,1.33a.65.65,0,0,0,1.14.39.57.57,0,0,1,.68-.05c.27.22,0,.25-.17.3-.25.22-.12.51-.12.77S404.38,207.76,404.22,207.68Z" transform="translate(-355.19 -179.01)"/><path class="cls-20" d="M404.22,207.68l.21-.2c.63.12,1.15.36,1.26,1.08.23.51.23.51.57.4.14,0,.27-.18.39-.16a.65.65,0,0,1,.53.43.35.35,0,0,1-.09.41c-.28.2-.33-.31-.66-.2a27.91,27.91,0,0,1,1.53,2.92,5,5,0,0,1,.6,2c0,.29.08.4.36.27a.25.25,0,0,1,0,.36,17.22,17.22,0,0,0,.18,2.87,1.42,1.42,0,0,1,.24.87,11.58,11.58,0,0,1-.25,1.94.55.55,0,0,1-.18.24,5.36,5.36,0,0,0-.37,2.15,8.49,8.49,0,0,1-1.2,3c-.23.46-.09,1.13-.76,1.34a.94.94,0,0,1-.18.54,2,2,0,0,0-.9.72c-.16.06-.23,0-.26-.17,0-.46.43-.59.64-.88h0a1.28,1.28,0,0,1,.54-.71,10.74,10.74,0,0,0,2-4.81,15.67,15.67,0,0,0-.37-8.18,4.51,4.51,0,0,1-.55-1.15,8.2,8.2,0,0,0-1.45-2.68c-.35-.51-.73-1-1.07-1.52C404.73,208.26,404.47,208,404.22,207.68Z" transform="translate(-355.19 -179.01)"/><path class="cls-21" d="M427.58,240c-1.95,1-4,.83-6.1.63-1.08-.1-2.15-.38-3.23-.58a.7.7,0,0,1-.9-.25l-1.8-.67c-.07.06-.12.05-.14,0a6,6,0,0,0-2.17-1c.4-.48.79-.13,1.18,0,.91.36,1.63,1.22,2.75,1a.92.92,0,0,1,1-.13,1.59,1.59,0,0,0,1.24.67,9.46,9.46,0,0,0,3.51.32,12.87,12.87,0,0,1,1.86.08,2.86,2.86,0,0,0,2.35-1c.07-.23.75-.23.26-.68h-.24a.75.75,0,0,1-.7-.44.44.44,0,0,1,.18-.32.88.88,0,0,1,.22-.1,2.12,2.12,0,0,0,.72-.36l.48.56C428.62,238.58,428.49,239.17,427.58,240Z" transform="translate(-355.19 -179.01)"/><path class="cls-22" d="M435.49,215.55a.07.07,0,0,1,0-.11c.06-.16.24-.41,0-.46-.8-.17-1.32-.89-2.33-.8a6.44,6.44,0,0,1-2.23-.48,15,15,0,0,0-5.08-.38,1.61,1.61,0,0,1-1.29-.45.43.43,0,0,1,.18-.36c.64,0,1.27.1,1.91.09a1.32,1.32,0,0,1,1,.27,7.57,7.57,0,0,1,3.84,0c.7.18,1.37.55,2.14.18a.68.68,0,0,1,.85.32c.09.12.17.24.27.35.34.38.94,0,1.22.33s-.41.66.24,1c.41.2-.3.27-.29.51C435.72,215.66,435.6,215.67,435.49,215.55Z" transform="translate(-355.19 -179.01)"/><path class="cls-23" d="M432.61,214.5a1.13,1.13,0,0,1-.91.2c-.46,0-.95-.17-1.35.23a.47.47,0,0,1-.51,0,11.13,11.13,0,0,0-4-.29,9.92,9.92,0,0,1-2.76-.53A26.66,26.66,0,0,1,432.61,214.5Z" transform="translate(-355.19 -179.01)"/><path class="cls-24" d="M422.75,224.71c.45.28.89.58,1.34.85.19.11.45.34.63.09.62-.82.75,0,1,.29a5,5,0,0,0,2.22,1.23c.16.05.39-.11.51-.3a1.81,1.81,0,0,1,1.73.21c.11.09.4.13.24.37a.33.33,0,0,1-.48.06,1.54,1.54,0,0,0-1.46-.24,5.25,5.25,0,0,0,2.29,1.16,1.45,1.45,0,0,1,1.08.77.43.43,0,0,1-.23.14c-1.32-.28-2.4-1.12-3.65-1.56a5.8,5.8,0,0,1-2.39-1.1A12.71,12.71,0,0,1,422.7,225,.19.19,0,0,1,422.75,224.71Z" transform="translate(-355.19 -179.01)"/><path class="cls-25" d="M413.28,238c-.16,2.56,0,5.11-.06,7.67,0,.6.41.8.91.9.08-.07.13,0,.16.05a17.06,17.06,0,0,0,5.35,1.4l1.13.18q.09.06.06.12s0,.06-.06.06c-.61.11-1.19-.2-1.79-.18-.4.16-.71-.15-1.08-.18h-.36c-.53.34-1,.06-1.49-.12-.31-.24-.68-.17-1-.23a.59.59,0,0,1-.35-.2c-.69-.46-1.77-.78-1.69-1.71.14-1.68-.38-3.35,0-5a4.87,4.87,0,0,0,0-1.94C412.92,238.49,412.91,238.21,413.28,238Z" transform="translate(-355.19 -179.01)"/><path class="cls-26" d="M426.69,237.65l-.18.18c-.87.76-3.73,0-4-1.11a.37.37,0,0,1,.09-.33c.25-.82-.41-1.07-.9-1.44,0-.48.37-.3.63-.28a1.13,1.13,0,0,1,.41,0,3.07,3.07,0,0,1,.84.64c.42,1.09,1.45,1.47,2.35,2C426.15,237.43,426.48,237.4,426.69,237.65Z" transform="translate(-355.19 -179.01)"/><path class="cls-27" d="M434.41,213.41c-.42-.08-.84-.35-1.24.1a.64.64,0,0,1-.59,0c-1.59-.78-3.3-.66-5-.67,0-.38.33-.35.6-.36,1.25,0,2.52-.3,3.71.35.09,0,.23,0,.35,0a.6.6,0,0,1,.36-.16.9.9,0,0,1-.36-.19c-.14,0-.36-.16-.16-.22.45-.13,1-.51,1.4.08.22.29.62.29,1,.39s.46.23.4.5S434.58,213.39,434.41,213.41Z" transform="translate(-355.19 -179.01)"/><path class="cls-28" d="M422.56,236.39a.72.72,0,0,0,.28.63c1.15.59,2.28,1.28,3.67.81a1,1,0,0,0,.72.36c-.06.47-.46.43-.75.43-1.45,0-2.9.08-4.35-.06a.7.7,0,0,1-.29-.19,1,1,0,0,0,.06-1.09C421.69,236.84,421.64,236.16,422.56,236.39Z" transform="translate(-355.19 -179.01)"/><path class="cls-1" d="M391.5,233.88a13.16,13.16,0,0,0,4.71-.43,3.21,3.21,0,0,1,1.22.07c0,.37-.12.54-.51.55s-.66-.13-.92.17a.75.75,0,0,1-.2.15,7.13,7.13,0,0,1-.9.11c.35.19.81-.07,1.1.28a.48.48,0,0,1-.32.49,4.28,4.28,0,0,1-2.51-.62,1.31,1.31,0,0,0-1.3-.59C391.65,234.17,391.5,234.18,391.5,233.88Z" transform="translate(-355.19 -179.01)"/><path class="cls-29" d="M421.85,238.36H422c1.3.25,2.63-.05,4,.16-.06.41-.37.39-.61.46a25.27,25.27,0,0,1-5.36.11c-.58,0-1.17.34-1.75,0h-1.08c-.19-.4.2-.5.36-.72a1.43,1.43,0,0,1,1.44,0C419.93,238.5,420.89,238.13,421.85,238.36Z" transform="translate(-355.19 -179.01)"/><path class="cls-26" d="M438.36,239.26a1.77,1.77,0,0,0-.06-.62c-.62-1.1.17-2.06.27-3.09a.3.3,0,0,1,.39-.27c.16.05.1.25.12.39.07.5-.42.83-.38,1.35a9,9,0,0,0,.35,2.9,3.24,3.24,0,0,1-.13,2.73c-.3-.31-.17-.62-.21-.89A3,3,0,0,1,438.36,239.26Z" transform="translate(-355.19 -179.01)"/><path class="cls-30" d="M431.72,222.92c-.26,0-.3-.22-.42-.39s-.44-.42-.69-.25a3.63,3.63,0,0,1-3.39.34,8.27,8.27,0,0,0-2.49-.05h0a.36.36,0,0,1,.18-.36,2.94,2.94,0,0,1,2.39-.17,4.51,4.51,0,0,0,2.52-.16,7.46,7.46,0,0,1,1.25.13l.59,0c.36.09.74.12,1.1.19a2,2,0,0,1,.57.26.24.24,0,0,1,.06.15s0,.08,0,.08l-.21,0C432.7,223,432.25,223.35,431.72,222.92Z" transform="translate(-355.19 -179.01)"/><path class="cls-31" d="M433.36,222.73l-.06-.15a.28.28,0,0,1,.13-.11c.16-.09.06-.05,0-.05a2.15,2.15,0,0,0-.62,0,2.72,2.72,0,0,1-1.14-.36c.37-.11,1,.23,1-.56a.51.51,0,0,1,.72,0c.3.5.91.49,1.35.73.28.15.64-.34.63-.85,0-1.4,0-2.8,0-4.19a.16.16,0,0,1,.25.11c0,1.33,0,2.67,0,4a6.17,6.17,0,0,1-.08,1.82C434.67,223.68,434.08,222.85,433.36,222.73Z" transform="translate(-355.19 -179.01)"/><path class="cls-32" d="M384.5,248.06l2.33-.18c-.61,1-1.23,1.1-2.4.94s-2.15,0-3.23-.06a6,6,0,0,1-2.46-.17v-.18l.11-.11a10.86,10.86,0,0,1,2.73-.13,21.12,21.12,0,0,0,2.75-.09Z" transform="translate(-355.19 -179.01)"/><path class="cls-33" d="M420.77,248.42a1.09,1.09,0,0,0,0-.18,30.36,30.36,0,0,0,8-.52,16.91,16.91,0,0,0,4.57-2c.11.52-.36.53-.63.7s-.66.37-1,.55c-.19.52-.71.37-1.08.54a19.65,19.65,0,0,1-4.49.9c-.39.23-.86-.06-1.26.18H422.2c-.29-.09-.62,0-.9-.17Z" transform="translate(-355.19 -179.01)"/><path class="cls-34" d="M415.71,217.83a5.27,5.27,0,0,0-1.44,2.16,6.31,6.31,0,0,1-.2.86l-.09.26c-.46,1.51-1,3-.43,4.63a.89.89,0,0,1-.1.77c-.41-.22-.41-.61-.41-1a13.2,13.2,0,0,1,.36-4.2c-.07-.27-.21-.56.18-.72a33.71,33.71,0,0,1,1.73-3.25c.22-.47.86-.3,1.14-.7h0a1.56,1.56,0,0,1,1.33-.69A9,9,0,0,0,415.71,217.83Z" transform="translate(-355.19 -179.01)"/><path class="cls-35" d="M438.36,239.26l.36,2.51c0,.86-1,1-1.18,1.84,0,.22-.42.17-.65.09s-.08-.3,0-.47c.12-.38.14-.68.67-.87s.56-1,.41-1.52a4.08,4.08,0,0,1-.1-1.51C437.9,238.82,438.16,239.09,438.36,239.26Z" transform="translate(-355.19 -179.01)"/><path class="cls-36" d="M431.66,229.23l.24,0,2,.9a2.37,2.37,0,0,1,1.61,1.44,23.82,23.82,0,0,0,1.62,2.7,2.47,2.47,0,0,1,.22,2.5l-.07.05a9.44,9.44,0,0,0-1.19-3.5.5.5,0,0,1-.36-.5,1.3,1.3,0,0,0-.55-.75.16.16,0,0,1-.15-.16,5.7,5.7,0,0,0-2.05-1.76,1.58,1.58,0,0,1-1-.59h0A.28.28,0,0,1,431.66,229.23Z" transform="translate(-355.19 -179.01)"/><path class="cls-37" d="M417.54,233.7a.74.74,0,0,1-.58-.33c-.29-.36-.32-.91-.88-1.11-.29-.1.06-.46,0-.71.69-.15,1.09.39,1.54.71a12,12,0,0,0,1.64,1c.19.16.45.27.5.56a.36.36,0,0,1-.09.24h-.18l-.13,0a5.66,5.66,0,0,1-1.3,0A.91.91,0,0,1,417.54,233.7Z" transform="translate(-355.19 -179.01)"/><path class="cls-38" d="M409.1,218.79v-.9c.77.09,1,.55.91,1.28a14.22,14.22,0,0,0,0,1.6,5.12,5.12,0,0,1,0,2.69c0,.24,0,.48,0,.71s-.14.79-.45.78c-.47,0-.17-.51-.26-.78a.24.24,0,0,1,0-.36c.71-.53.25-1.18.18-1.8a9.07,9.07,0,0,0-.11-1.27c0-.57.07-1.15.06-1.73C409.4,218.75,409.25,218.81,409.1,218.79Z" transform="translate(-355.19 -179.01)"/><path class="cls-39" d="M437.33,236.73c-.07-.83-.15-1.66-.22-2.5a3.39,3.39,0,0,1,.56-1.47c.06-.14.16-.27.33-.24s.2.21.18.35a35.8,35.8,0,0,0-.38,3.59C437.8,236.74,437.54,236.74,437.33,236.73Z" transform="translate(-355.19 -179.01)"/><path class="cls-32" d="M384.37,249.3a3,3,0,0,1-1.55.19h-5c-.17,0-.41,0-.4-.22a.31.31,0,0,1,.38-.29C380,249.33,382.18,249,384.37,249.3Z" transform="translate(-355.19 -179.01)"/><path class="cls-16" d="M387,246.8l-.18-.36a1.44,1.44,0,0,1,0-1.08v-3.23a1.44,1.44,0,0,1,0-1.08v-5.74c.22.17.17.42.18.66a45.93,45.93,0,0,0,.16,5.5c.12.72-.23,1.45-.17,2.2a18.12,18.12,0,0,0,.16,1.94A1.25,1.25,0,0,1,387,246.8Z" transform="translate(-355.19 -179.01)"/><path class="cls-40" d="M435.49,231.54l-1.61-1.44c0-.46.11-.85.72-.54.77.21,1.11.92,1.61,1.44.1.23.31.48.05.71S435.75,231.59,435.49,231.54Z" transform="translate(-355.19 -179.01)"/><path class="cls-41" d="M418,248.71a4.45,4.45,0,0,1-2.91.2,2.49,2.49,0,0,0-1.3,0c-.19.07-.45.08-.48-.21s.18-.26.36-.28a4,4,0,0,1,2.51.26C416.71,249,417.3,248.36,418,248.71Z" transform="translate(-355.19 -179.01)"/><path class="cls-42" d="M413.46,226.51a9.55,9.55,0,0,1,.47-5.74c.62.54.12,1.08,0,1.62-.24.76-.74,1.47-.45,2.34a5.64,5.64,0,0,1,.25,2.38C413.65,226.9,413.55,226.71,413.46,226.51Z" transform="translate(-355.19 -179.01)"/><path class="cls-43" d="M419.33,233.35c-1.31-.19-2.07-1.36-3.23-1.81-.09-.42-.54-.55-.72-.9,0-.35.22-.19.39-.16s.22.21.33.31a.82.82,0,0,0,.52.44,3,3,0,0,1,1.43,1.05l1.52,1A.15.15,0,0,1,419.33,233.35Z" transform="translate(-355.19 -179.01)"/><path class="cls-44" d="M414.66,247.52H415c.33.23.74-.05,1.06.18a2.84,2.84,0,0,0,1.45.36c.06.18.12.36-.18.36h-1.43l-1.74-.57Z" transform="translate(-355.19 -179.01)"/><path class="cls-38" d="M435.54,221.31c0-1.38-.05-2.76-.07-4.13a.83.83,0,0,1,0-1.08c0-.18,0-.37,0-.55h.36c.51.61.51.66-.08,1.08-.19.13-.09.32-.09.47,0,1.21,0,2.43,0,3.64a.3.3,0,0,1,0,.38c0,.06,0,.11,0,.17Z" transform="translate(-355.19 -179.01)"/><path class="cls-29" d="M405.68,208.56c-.29-.51-.86-.7-1.26-1.08s-.68-.68.18-.72c.38.45,1,.6,1.36,1.12S406.05,208.45,405.68,208.56Z" transform="translate(-355.19 -179.01)"/><path class="cls-45" d="M436.19,242.49a13.4,13.4,0,0,0,1.08-5.59,1.53,1.53,0,0,1,.27,1.34c-.23,1-.25,2.11-.51,3.15C436.91,241.89,436.48,242.13,436.19,242.49Z" transform="translate(-355.19 -179.01)"/><path class="cls-46" d="M391.5,233.88a.39.39,0,0,0,.36.18c.2.38-.12.38-.32.42a5.56,5.56,0,0,1-3-.14c.24-.44.64-.21,1-.27.42.21.82.4,1.22-.09C390.92,233.75,391.25,233.9,391.5,233.88Z" transform="translate(-355.19 -179.01)"/><path class="cls-24" d="M417.54,233.7l.54.18c.46.25,1-.06,1.44.18h0c0,.66-.39.79-1,.6-.3-.11-.61-.2-.92-.29C417.12,234.2,417.23,234,417.54,233.7Z" transform="translate(-355.19 -179.01)"/><path class="cls-47" d="M430.46,249.14c-.38,0-.79.06-.95-.5a6.54,6.54,0,0,0,2.12-.27c.19-.1.44-.18.5.12s-.19.35-.38.43c-.41.16-.91-.15-1.29.22Z" transform="translate(-355.19 -179.01)"/><path class="cls-48" d="M431.72,222.92l1.43-.16c-.23.35.21.31.32.54-.91,0-1.73.46-2.69.31l.4-.33Z" transform="translate(-355.19 -179.01)"/><path class="cls-49" d="M434.59,245.36l.18-.18c.19-.2.32-.69.68-.35s-.2.47-.32.71h0c-.25,0-.57-.06-.44.42.05.21.14.55-.23.64a.38.38,0,0,1-.43-.23c-.23-.37,0-.54.27-.7a.45.45,0,0,0,.11-.13C434.37,245.39,434.43,245.32,434.59,245.36Z" transform="translate(-355.19 -179.01)"/><path class="cls-50" d="M410,223.46a6.5,6.5,0,0,0-.15-1.86.72.72,0,0,1,.14-.83c.3,0,.36.24.36.5,0,.64,0,1.29,0,1.93C410.36,223.49,410.26,223.58,410,223.46Z" transform="translate(-355.19 -179.01)"/><path class="cls-24" d="M422.41,234.76c-.25,0-.55-.08-.74.19-.87.31-.73-.59-1.08-.89l0-.07a.16.16,0,0,1,.07-.15l1.78.72a.15.15,0,0,1,.05.13C422.43,234.74,422.42,234.76,422.41,234.76Z" transform="translate(-355.19 -179.01)"/><path class="cls-30" d="M445.5,272.5c-.49.41-.5,1.24-1.37,1.05-.14,0-.3,0-.34-.21a.27.27,0,0,1,.2-.34C444.48,272.88,444.83,272.43,445.5,272.5Z" transform="translate(-355.19 -179.01)"/><path class="cls-51" d="M449.32,184.68v.18c.1.26.18.55-.2.61a1.25,1.25,0,0,1-1-.22c-.11-.09-.05-.3.11-.37s.39-.68.83-.26C449.12,184.68,449.23,184.66,449.32,184.68Z" transform="translate(-355.19 -179.01)"/><path class="cls-52" d="M436.21,231c-.73-.26-1-1-1.61-1.44A1.44,1.44,0,0,1,436.21,231Z" transform="translate(-355.19 -179.01)"/><path class="cls-40" d="M422,248.78h2.71a3,3,0,0,1-2.89,0A.11.11,0,0,1,422,248.78Z" transform="translate(-355.19 -179.01)"/><path class="cls-53" d="M420.78,213.31c-.43.46-.91.39-1.31.56-.17.07-.37.11-.45-.12a.35.35,0,0,1,.29-.47A3.49,3.49,0,0,1,420.78,213.31Z" transform="translate(-355.19 -179.01)"/><path class="cls-54" d="M406.4,228c-.14-.25-.11-.44.18-.54a1.41,1.41,0,0,1,.81,1.64C406.93,228.7,406.88,228.12,406.4,228Z" transform="translate(-355.19 -179.01)"/><path class="cls-55" d="M416.46,215.92v.71h0a2.27,2.27,0,0,1-.52-.09c-.29-.13-.72-.26-.63-.63s.51-.12.78-.17A.41.41,0,0,1,416.46,215.92Z" transform="translate(-355.19 -179.01)"/><path class="cls-56" d="M409.11,212.56c.07.11.14.18.14.25,0,.42.22.9-.25,1.21,0,0-.2-.05-.2-.09A1.24,1.24,0,0,1,409.11,212.56Z" transform="translate(-355.19 -179.01)"/><path class="cls-57" d="M430.46,249.14h1.85c0,.09,0,.18,0,.27a6.44,6.44,0,0,1-2,.06c-.13,0,.12-.21.14-.33Z" transform="translate(-355.19 -179.01)"/><path class="cls-58" d="M409.77,213.7a1.55,1.55,0,0,1-.13-.29c-.05-.42-.37-.83-.05-1.25a.16.16,0,0,1,.29,0A1.59,1.59,0,0,1,409.77,213.7Z" transform="translate(-355.19 -179.01)"/><path class="cls-59" d="M415.8,230.62c-.14,0-.29-.16-.42,0a2.19,2.19,0,0,1-.89-1.66.46.46,0,0,1,.43.15,2.11,2.11,0,0,1,.3.37C415.31,229.93,415.92,230.08,415.8,230.62Z" transform="translate(-355.19 -179.01)"/><path class="cls-60" d="M413.5,230.55a.8.8,0,0,1,.93.75c0,.17-.1.36-.21.33C413.72,231.5,413.63,231.05,413.5,230.55Z" transform="translate(-355.19 -179.01)"/><path class="cls-61" d="M395.81,234.23H396c.05.18.29.36,0,.54a8.88,8.88,0,0,1-1.46,0c-.41-.07-.13-.23,0-.34C395,234.18,395.42,234.48,395.81,234.23Z" transform="translate(-355.19 -179.01)"/><path class="cls-22" d="M435.36,212.82c.52-.08.86,0,.84.53,0,.15,0,.35-.19.35C435.43,213.69,435.72,213,435.36,212.82Z" transform="translate(-355.19 -179.01)"/><path class="cls-62" d="M403,231.54c-.35-.43.08-.58.3-.77s.43-.47.67-.19-.19.38-.25.6A1.13,1.13,0,0,1,403,231.54Z" transform="translate(-355.19 -179.01)"/><path class="cls-63" d="M400.34,231.92a.79.79,0,0,1-.67-.48c.49-.11.92-.42,1.34.09Z" transform="translate(-355.19 -179.01)"/><path class="cls-64" d="M435.54,221.31h.12c0,.09,0,.22,0,.26.84.62,0,1-.18,1.54C435.51,222.51,435.53,221.91,435.54,221.31Z" transform="translate(-355.19 -179.01)"/><path class="cls-65" d="M419,238.36h-1.44c0-.68.49-.33.72-.33S419,237.68,419,238.36Z" transform="translate(-355.19 -179.01)"/><path class="cls-54" d="M409.28,223.82v.36c-.22.06-.2.53-.49.37a.55.55,0,0,1-.18-.71C408.79,223.48,409.05,223.75,409.28,223.82Z" transform="translate(-355.19 -179.01)"/><path class="cls-66" d="M435.06,244.09l1.14-1.61C436,243.15,436,243.92,435.06,244.09Z" transform="translate(-355.19 -179.01)"/><path class="cls-67" d="M408.91,220.94a1.09,1.09,0,0,1,0-.18.28.28,0,0,1,.42,0,1,1,0,0,1-.06,1.05c0,.21-.17.46-.32.11A3.05,3.05,0,0,1,408.91,220.94Z" transform="translate(-355.19 -179.01)"/><path class="cls-21" d="M416.46,215.92a.37.37,0,0,1-.36-.18l-.5-.59C416.3,215.19,416.52,215.4,416.46,215.92Z" transform="translate(-355.19 -179.01)"/><path class="cls-68" d="M413.58,220.58l-.18.72c-.23-.17-.24-.46-.32-.7s0-.57.24-.58S413.56,220.36,413.58,220.58Z" transform="translate(-355.19 -179.01)"/><path class="cls-69" d="M403,231.54a.65.65,0,0,1,.72-.36c.16.13.24.32.07.44A.57.57,0,0,1,403,231.54Z" transform="translate(-355.19 -179.01)"/><path class="cls-70" d="M398.33,232.84l-.2,0a4,4,0,0,1,1.26-.4c.18.41.06.62-.4.53A1.36,1.36,0,0,0,398.33,232.84Z" transform="translate(-355.19 -179.01)"/><path class="cls-71" d="M447.65,270.32c.54,0,.65.3.64.67s-.16,0-.26,0C447.34,271,447.89,270.53,447.65,270.32Z" transform="translate(-355.19 -179.01)"/><path class="cls-33" d="M434.59,245.36l-.17.18-1.07.18a4.65,4.65,0,0,1,1.06-.92Z" transform="translate(-355.19 -179.01)"/><path class="cls-72" d="M435.13,245.54c.26,0,.59,0,.49.4a.34.34,0,0,1-.47.27c-.37-.18-.08-.44,0-.67Z" transform="translate(-355.19 -179.01)"/><path class="cls-73" d="M432.26,212.51c.33.09,1-.22.94.23s-.62,0-.94.13Z" transform="translate(-355.19 -179.01)"/><path class="cls-21" d="M417.84,215.1a.66.66,0,0,1-.88.19c-.13-.06-.08-.21,0-.3C417.27,214.72,417.51,214.93,417.84,215.1Z" transform="translate(-355.19 -179.01)"/><path class="cls-74" d="M403.63,230.09l1.15-1.05C404.78,229.8,404.21,230,403.63,230.09Z" transform="translate(-355.19 -179.01)"/><path class="cls-75" d="M409.28,221.84v-1.08a.11.11,0,0,1,.18,0,1,1,0,0,1,0,1.26Z" transform="translate(-355.19 -179.01)"/><path class="cls-76" d="M424.72,212.51a.36.36,0,0,1-.18.36c-.31,0-.65.11-1-.24A2.81,2.81,0,0,1,424.72,212.51Z" transform="translate(-355.19 -179.01)"/><path class="cls-46" d="M397.78,233.52l.18-.18,1.11.29A.92.92,0,0,1,397.78,233.52Z" transform="translate(-355.19 -179.01)"/><path class="cls-77" d="M408.92,215v-.36c0-.19.09-.36.33-.31s.21.19.2.35C409.42,215,409.15,215,408.92,215Z" transform="translate(-355.19 -179.01)"/><path class="cls-78" d="M419.69,234.05v-.18c.37-.29.63,0,.9.18h0C420.29,234.43,420,234.69,419.69,234.05Z" transform="translate(-355.19 -179.01)"/><path class="cls-79" d="M376.24,247.16c0,.27.1.58-.17.83C375.82,247.32,375.82,247.32,376.24,247.16Z" transform="translate(-355.19 -179.01)"/><path class="cls-80" d="M442.74,274.15c-.2.21-.39.39-.66.11-.05-.05-.06-.21,0-.23A.44.44,0,0,1,442.74,274.15Z" transform="translate(-355.19 -179.01)"/><path class="cls-81" d="M409.84,216.09a.61.61,0,0,1,0-.85C410.05,215.5,410,215.74,409.84,216.09Z" transform="translate(-355.19 -179.01)"/><path class="cls-82" d="M398.73,204.05a1,1,0,0,1,1.1.09Z" transform="translate(-355.19 -179.01)"/><path class="cls-83" d="M418.61,215.56c.08.25.39.38.32.79-.32-.13-.64-.18-.54-.66Z" transform="translate(-355.19 -179.01)"/><path class="cls-72" d="M421.84,212.7a.61.61,0,0,1,.86,0C422.44,212.92,422.2,212.92,421.84,212.7Z" transform="translate(-355.19 -179.01)"/><path class="cls-19" d="M400.3,204.1a.61.61,0,0,1,.85,0C400.9,204.31,400.66,204.3,400.3,204.1Z" transform="translate(-355.19 -179.01)"/><path class="cls-56" d="M402,232.17a.61.61,0,0,1-.66,0c0-.06,0-.14,0-.16C401.59,231.86,401.82,231.84,402,232.17Z" transform="translate(-355.19 -179.01)"/><path class="cls-84" d="M448.93,270.07c-.32.12-.23-.2-.31-.31s.08-.15.17-.15a.35.35,0,0,1,.38.17C449.25,270,449,270,448.93,270.07Z" transform="translate(-355.19 -179.01)"/><path class="cls-74" d="M405.31,228.45l.19.21c-.14.31-.26.67-.71.36l.36-.53C405.19,228.42,405.24,228.4,405.31,228.45Z" transform="translate(-355.19 -179.01)"/><path class="cls-85" d="M430.64,247.52c.33-.24.79-.22,1.08-.54C431.68,247.81,431,247.41,430.64,247.52Z" transform="translate(-355.19 -179.01)"/><path class="cls-30" d="M430.46,223.28a.34.34,0,0,1,.4-.35c.22,0,.29.15.31.35Z" transform="translate(-355.19 -179.01)"/><path class="cls-86" d="M436.13,244.73c.11.32.12.54-.17.7C435.79,245.16,435.82,245,436.13,244.73Z" transform="translate(-355.19 -179.01)"/><path class="cls-62" d="M403.56,232.25c-.12,0-.25,0-.28-.14s.12-.18.23-.19.25,0,.28.14S403.67,232.22,403.56,232.25Z" transform="translate(-355.19 -179.01)"/><path class="cls-87" d="M414.82,229.26l-.33-.28-.08-.29.25,0c.2,0,.41,0,.54.18,0,0,0,.07,0,.11A.71.71,0,0,1,414.82,229.26Z" transform="translate(-355.19 -179.01)"/><path class="cls-41" d="M417.89,248.06a3.06,3.06,0,0,1,1.08.18C418.55,248.58,418.23,248.25,417.89,248.06Z" transform="translate(-355.19 -179.01)"/><path class="cls-25" d="M422,248.78h-.18l-.54-.36c.3,0,.65-.12.9.17Z" transform="translate(-355.19 -179.01)"/><path class="cls-25" d="M424.9,248.6c.38-.34.84-.11,1.26-.18C425.78,248.76,425.32,248.53,424.9,248.6Z" transform="translate(-355.19 -179.01)"/><path class="cls-64" d="M435.68,221.14v-.38c.16,0,.43-.06.42.19S435.84,221.09,435.68,221.14Z" transform="translate(-355.19 -179.01)"/><path class="cls-1" d="M440.52,180a.4.4,0,0,1-.54.13s0-.2,0-.31C440.18,179.84,440.39,179.8,440.52,180Z" transform="translate(-355.19 -179.01)"/><path class="cls-1" d="M439.62,179.83c-.3.29-.47.2-.54-.18C439.28,179.66,439.49,179.62,439.62,179.83Z" transform="translate(-355.19 -179.01)"/><path class="cls-1" d="M398,214.11a4.38,4.38,0,0,1,1.23,1.63v0l.51,1.8a.62.62,0,0,1,.26.54c0,1.43.07,2.9-1,4.08a6.42,6.42,0,0,1-1.34,1.46c-.52.3-1,.76-1.62.77a.27.27,0,0,1-.13-.27l0,0c0-.08,0-.09-.08,0a.36.36,0,0,1-.17-.07c-.19,0-.41-.5-.56,0-.31.28.47.5.05.79-.43.08-.84.27-1.26.37s-.62.26-.88-.08c-.56-.51-1.25-.05-1.59-.18.34.1,1-.32,1.56.2,0,.27-.12.36-.37.38-1.59.08-3.18.25-4.78.19-.88,0-1.05-.16-1.1-1,0-.38-.06-.77-.05-1.15.11-3.2,0-6.4.05-9.6a6.83,6.83,0,0,1,.07-1.43,1.3,1.3,0,0,1,1.31-.76c1.71.07,3.43-.2,5.15.35.68.22,1.42.2,2,.74.23.18-.19.48.1.62s.46-.19.68-.32a1.73,1.73,0,0,1,1.26.72,2.25,2.25,0,0,1-.17.84C397.5,214.6,397.62,214.2,398,214.11Z" transform="translate(-355.19 -179.01)"/><path class="cls-88" d="M377.52,206.41v-.36c.52-.27,1-.47,1.23.36a1.86,1.86,0,0,1,.18,1v21.09c0,.4.11.86-.43,1.07a1.57,1.57,0,0,1-.1-1q0-10.54,0-21.09c0-.21,0-.42,0-.63s.05-.41-.2-.43-.32.23-.33.44,0,.54,0,.81v38.86a.24.24,0,0,1,0,.32.13.13,0,0,1-.21-.06,2.66,2.66,0,0,1-.05-.89q0-19.26,0-38.52A2.92,2.92,0,0,0,377.52,206.41Z" transform="translate(-355.19 -179.01)"/><path class="cls-18" d="M384.5,247.16V236.35a3.44,3.44,0,0,0-.12-1.15.73.73,0,0,1,.34-1c.12-.06.2-.29.36-.15a.79.79,0,0,1,.14.4c.81,4,.14,8.12.4,12.18,0,.7.7.11.73.54h0A2.35,2.35,0,0,1,384.5,247.16Z" transform="translate(-355.19 -179.01)"/><path class="cls-89" d="M378.75,206.4c-.28-.55-.8-.3-1.23-.36a9.31,9.31,0,0,1,0-2.11l3.49-.07a.77.77,0,0,1,.63,0c.44.29.91,0,1.37.06l.28.05c3.19-.05,6.36.42,9.54.47.35.14.39.39.26.7a7.59,7.59,0,0,1-2.51.18c-1,.5-2,.22-3,.2a.83.83,0,0,1-.27-.12c-.18-.15-.3-.37-.58-.35-1.34.07-2.66-.28-4-.28a1.09,1.09,0,0,0-1,.34c-.9.75-1.9.46-2.88.28-.22,0-.41-.22-.65-.13a4.13,4.13,0,0,0,2.53.56.92.92,0,0,1,.83.23c-.06.43-.39.35-.68.36Z" transform="translate(-355.19 -179.01)"/><path class="cls-90" d="M395.27,213.05c-.13-.32-.82.07-.71-.57,0,0-.19-.14-.3-.14-1.74,0-3.44-.59-5.2-.39a4.35,4.35,0,0,0-2.05.37,1.85,1.85,0,0,0-.09,1c0,3.13,0,6.25,0,9.38a2,2,0,0,1-.08,1,3.15,3.15,0,0,1,.17.6c.13,1.38.13,1.37,1.55,1.39a9.42,9.42,0,0,0,3.26-.35c.38-.13.88.57,1.12-.19.06-.06.12-.07.18,0,.78.21,1.39-.54,2.16-.37a.4.4,0,0,1,.43-.1.17.17,0,0,1,.12.18l-2.55.81c0,.09-.09.1-.16,0a46.93,46.93,0,0,1-5.81.17c-.52,0-.82-.1-.82-.74,0-4.15,0-8.31,0-12.46a1.29,1.29,0,0,1,.17-.77.61.61,0,0,1,.43-.26q2.71-.07,5.43,0a3.46,3.46,0,0,1,2,.59,17.74,17.74,0,0,1,2.68,1.27,2.09,2.09,0,0,1,.56.55c-.18.4-.36.16-.54,0l-1.26-.72A.58.58,0,0,1,395.27,213.05Z" transform="translate(-355.19 -179.01)"/><path class="cls-91" d="M384.5,247.16l1.82,0c-.2.38-.57.28-.88.28-2.36,0-4.72,0-7.08,0-.57,0-.89-.13-.89-.79q0-20,0-40.08a1.13,1.13,0,0,1,0-.18c.27.31.15.69.15,1q0,19.25,0,38.48v.81s0,.06.05.06.11-.09.13-.16c.21.49.53.6,1.11.57C380.8,247.11,382.65,247.16,384.5,247.16Z" transform="translate(-355.19 -179.01)"/><path class="cls-92" d="M394.55,212.13c-2.49-.56-5-.24-7.54-.35,0-.35.28-.38.5-.38,1.46,0,2.88-.46,4.35-.24a.36.36,0,0,1,.16,0,6.68,6.68,0,0,0-2,0,20.51,20.51,0,0,1-3.92.13.51.51,0,0,1-.52-.41v-.54a10.07,10.07,0,0,1,3.49-.41c1.13,0,2.25.19,3.38.18.55,0,.94.2.69.88a6.46,6.46,0,0,1,.63-.2.62.62,0,0,0,.25-.28.58.58,0,0,1,.18-.17c.25-.09.53-.37.72.1s.18.51-.3.68S394.36,211.78,394.55,212.13Z" transform="translate(-355.19 -179.01)"/><path class="cls-93" d="M399,222.18a9.74,9.74,0,0,0,.73-4.62,3.54,3.54,0,0,0,.37-2.44c.2.27.41.54.6.81.22,0,.13-.18.14-.27,0-.28-.07-.71.33-.7s.1.48.24.65c.71.88.44,1.86.34,2.83a.16.16,0,0,1-.24,0c-.21-.31-.14-.68-.26-1a1,1,0,0,0-.08-.25s-.06,0-.08.1c-.08.45.32.92-.06,1.36a8.48,8.48,0,0,0-1.14,3.38,1.43,1.43,0,0,0,.38,1c.13.21.29.39.13.64a.4.4,0,0,1-.46.19c-.25-.08-.31-.19-.36-.52A2.15,2.15,0,0,0,399,222.18Z" transform="translate(-355.19 -179.01)"/><path class="cls-94" d="M394.19,210.89c-.28.26-.65.22-1,.29,0-.16-.68.14-.22-.44.34-.42-.32-.38-.58-.38a48.32,48.32,0,0,0-6.48,0c-.12,0-.24,0-.36,0-.23-.63.25-.71.63-.7a58.15,58.15,0,0,1,7.11.14c.23,0,.51.11.64-.16s.57-.5.78-.26-.1.53-.39.69c-.08,0-.1.2-.15.3v.18C394.05,210.65,394.05,210.77,394.19,210.89Z" transform="translate(-355.19 -179.01)"/><path class="cls-94" d="M393.12,205.15a.48.48,0,0,1,0-.54l.09-.09c.43-.16.89-.2,1.31-.39a1.09,1.09,0,0,1,.26,0,16.33,16.33,0,0,1,2,.14,4,4,0,0,1,1.57.4c-.13.39-.57.26-.82.48.19.41.56.38.91.4.18,0,.39,0,.4.25s-.19.28-.37.28c-.86,0-1.71.25-2.53.29s-1.64-.33-2.5-.36a1.67,1.67,0,0,1,1.55-.21,2.69,2.69,0,0,0,1.13,0c1-.24,1-.22.79-1-.06-.26-.29-.15-.38-.09a5.38,5.38,0,0,1-2.18.6C393.9,205.32,393.48,205.47,393.12,205.15Z" transform="translate(-355.19 -179.01)"/><path class="cls-94" d="M385.57,210.89c.41.4.93.13,1.37.14a12.89,12.89,0,0,0,3.56-.11,4.3,4.3,0,0,1,1.79.3c-1.69-.19-3.3.48-5,.41-.1,0-.2.1-.3.15l-.34.05a3.17,3.17,0,0,0-2,.35c.57-.89-.2-1.57-.23-2.34,0-.24-.13-.45.1-.63a.41.41,0,0,1,.57,0c.2.21,0,.4-.06.63C384.83,210.34,385.26,210.61,385.57,210.89Z" transform="translate(-355.19 -179.01)"/><path class="cls-88" d="M381.62,206.05c-.66,0-1.31-.05-2,0s-1.08-.64-1.77-.49c-.13,0-.24-.25-.18-.44s.28-.26.5-.19a6.13,6.13,0,0,0,2.58.39c.33,0,.67,0,.83-.37a3.26,3.26,0,0,1,1.93.1c-.18.42-.18.42-.89.44.6.22,1.44-.45,2,.36a.62.62,0,0,1-.83.33A8.37,8.37,0,0,0,381.62,206.05Z" transform="translate(-355.19 -179.01)"/><path class="cls-95" d="M387.37,205.33h3.23c.31.38.82,0,1.15.3,0,.06,0,.15,0,.16-.78.42-3.79.34-4.34-.11A.24.24,0,0,1,387.37,205.33Z" transform="translate(-355.19 -179.01)"/><path class="cls-89" d="M387.37,205.33v.36a1.08,1.08,0,0,1-.95.13,2.63,2.63,0,0,0-1.75.05c-.94-.43-2,0-3.06-.31.67-.48,1.43.05,2-.4.73-.48,1.49,0,2.24-.07a1.8,1.8,0,0,1,1.54.24Z" transform="translate(-355.19 -179.01)"/><path class="cls-96" d="M401,218.61c.07-.67-.51-1.38.09-2,.39.17.23.51.27.78a15.5,15.5,0,0,1,.18,1.79c-.08.54.21,1.12-.18,1.62h-.18a.25.25,0,0,1-.36,0c-.27-.37-.12-.7.07-1A2.7,2.7,0,0,0,401,218.61Z" transform="translate(-355.19 -179.01)"/><path class="cls-97" d="M405,208.55a10.12,10.12,0,0,1,2.66,4.14c-.09.17,0,.4-.16.53a14.62,14.62,0,0,0-1.62-3.05c-.27-.17-.3-.52-.54-.72A1.61,1.61,0,0,1,405,208.55Z" transform="translate(-355.19 -179.01)"/><path class="cls-98" d="M393.12,225.63a.12.12,0,0,1,.16,0,3.73,3.73,0,0,0,2.58-.32c.18-.08.34-.28.55-.11a.33.33,0,0,1,.06.31c-.07.23-.26.25-.5.24-.78,0-1.45.45-2.24.45C393.27,226.18,393.2,226,393.12,225.63Z" transform="translate(-355.19 -179.01)"/><path class="cls-99" d="M386.13,234.81a7.28,7.28,0,0,1-.36-2.27c0-.18.1-.38.31-.36a.36.36,0,0,1,.32.45C386.17,233.33,386.41,234.08,386.13,234.81Z" transform="translate(-355.19 -179.01)"/><path class="cls-100" d="M405.33,209.46c.5,0,.44.42.54.72a.54.54,0,0,0-.54.36h0c-.48.14-.23.71-.55.94-.48-.65-.44-.94.21-1.43A.75.75,0,0,0,405.33,209.46Z" transform="translate(-355.19 -179.01)"/><path class="cls-95" d="M402.27,208.2h1.08v.36c0,.44-.14.82-.6.85s-.25-.46-.39-.69a1.66,1.66,0,0,1-.09-.52Z" transform="translate(-355.19 -179.01)"/><path class="cls-93" d="M400.84,220.77h.36a2.71,2.71,0,0,1,.09,1.79A1.28,1.28,0,0,1,400.84,220.77Z" transform="translate(-355.19 -179.01)"/><path class="cls-40" d="M397.25,214c.18-.06.36.21.54,0l.18.16a1.17,1.17,0,0,1-1.57.79C397,214.71,397,214.26,397.25,214Z" transform="translate(-355.19 -179.01)"/><path class="cls-95" d="M385.34,206.34c.39-.41.86-.27,1.28-.28.21,0,.55-.06.5.3s-.37.24-.58.22C386.15,206.53,385.77,206.42,385.34,206.34Z" transform="translate(-355.19 -179.01)"/><path class="cls-101" d="M401.38,220.77v-1.62c.2-.2,0-.51.18-.72h.18a7.53,7.53,0,0,0,.09,1.64A.52.52,0,0,1,401.38,220.77Z" transform="translate(-355.19 -179.01)"/><path class="cls-102" d="M408,216.05a2.28,2.28,0,0,1-.06,1.86A3.37,3.37,0,0,1,408,216.05Z" transform="translate(-355.19 -179.01)"/><path class="cls-103" d="M397.4,224c.34,0,.34.21.29.49s-.4.31-.62.38-.36-.19-.37-.43A.58.58,0,0,1,397.4,224Z" transform="translate(-355.19 -179.01)"/><path class="cls-104" d="M397.4,224l-.69.43-.88.37-.11-.08a.31.31,0,0,1,.28-.33c.62-.09,1-.8,1.65-.73Z" transform="translate(-355.19 -179.01)"/><path class="cls-95" d="M402.27,208.2c-.15,0-.3,0-.44,0s-.28-.27-.25-.48a.34.34,0,0,1,.28-.31c.26,0,.37.15.4.38a3,3,0,0,1,0,.43Z" transform="translate(-355.19 -179.01)"/><path class="cls-105" d="M405.32,210.53a.49.49,0,0,1,.49.32c.06.2.12.45-.16.52s-.32-.18-.33-.39,0-.3,0-.45Z" transform="translate(-355.19 -179.01)"/><path class="cls-95" d="M403.56,207.28l.33.25a.85.85,0,0,1-.54.67C403.34,207.88,402.81,207.44,403.56,207.28Z" transform="translate(-355.19 -179.01)"/><path class="cls-106" d="M405.31,228.45l-.16.05c-.2-.67.24-.8.73-.88C405.85,228,405.45,228.13,405.31,228.45Z" transform="translate(-355.19 -179.01)"/><path class="cls-107" d="M407.48,213.23c0-.19,0-.4.16-.53a2.5,2.5,0,0,1,.41,1.21C407.79,213.74,407.53,213.57,407.48,213.23Z" transform="translate(-355.19 -179.01)"/><path class="cls-93" d="M399.2,215.74c.05-.25-.05-.54.19-.75.28.58.28.58-.17.77Z" transform="translate(-355.19 -179.01)"/><path class="cls-108" d="M405.8,211.94c0,.19-.19.2-.34.19s-.28-.07-.23-.19a.51.51,0,0,1,.34-.22C405.69,211.7,405.78,211.82,405.8,211.94Z" transform="translate(-355.19 -179.01)"/><path class="cls-106" d="M406.44,226.89a1.14,1.14,0,0,1-.54.71C406,227.27,405.7,226.71,406.44,226.89Z" transform="translate(-355.19 -179.01)"/><path class="cls-109" d="M429.21,228.49c.15.84-.37.42-.73.43-1,0-1.93-.43-2.9-.19s-1,.14-.83-.73a2.05,2.05,0,0,1,.16-.41c.74-.75.74-.75,1.76,0,.12.09.26,0,.4,0A2.9,2.9,0,0,1,429.21,228.49Z" transform="translate(-355.19 -179.01)"/><path class="cls-110" d="M435.71,232.78a.69.69,0,0,1,.36.5,3.81,3.81,0,0,0-1.51,1.06c-.24.22-.5-.19-.49-.52a1.59,1.59,0,0,0-.28-1.1c-.34-.36-.64-1.05-1.41-.51-.23.16-.68,0-1.07,0a1.77,1.77,0,0,1,2.48-.16A2.39,2.39,0,0,0,435.71,232.78Z" transform="translate(-355.19 -179.01)"/><path class="cls-111" d="M429.21,228.49c-.82-.39-1.6-.94-2.6-.62-.16,0-.53.09-.15-.36.22-.26-.34-.37-.69-.37s-.43.6-.87.45c-.48-.88.55-.56.73-.91a41,41,0,0,1,6,2.56l.28.29c-.37.14-.79-.28-1.16.12-.13.14-.25,0-.31-.17C430.22,228.92,429.63,228.81,429.21,228.49Z" transform="translate(-355.19 -179.01)"/><path class="cls-74" d="M431.06,222l-1.31,0a2,2,0,0,1-1.09,0,1.4,1.4,0,0,1-.28-.06,19.49,19.49,0,0,0-3.74-.24,3.29,3.29,0,0,0-1.54.64h0a1.39,1.39,0,0,0-.35.29c-.27.11-.36.53-.75.4a1.74,1.74,0,0,1,1.47-1.47,13,13,0,0,1,5.69,0A5.47,5.47,0,0,1,431.06,222Z" transform="translate(-355.19 -179.01)"/><path class="cls-112" d="M418.05,232.28a4,4,0,0,1-1.43-1.05,1.46,1.46,0,0,1,1.05-1.43c.19-.08.43-.1.54.14a.46.46,0,0,1-.19.62c-1,.49-.47.88.07,1.29C418.25,232,418.56,232.17,418.05,232.28Z" transform="translate(-355.19 -179.01)"/><path class="cls-28" d="M426.69,237.65a2.77,2.77,0,0,1-2.11-.93,1.75,1.75,0,0,0-.6-.36c-.44-.19-.73-.51-.53-1.05,0-.18,0-.29.24-.19l.31.16a.22.22,0,0,1,.22,0,.48.48,0,0,1,.2.27c0,.28.24.34.41.47a5.42,5.42,0,0,0,1.37.82c.34.12.71.34.67.82A.54.54,0,0,0,426.69,237.65Z" transform="translate(-355.19 -179.01)"/><path class="cls-48" d="M426.87,237.64c-.41-.78-1.42-.63-1.94-1.26-.1-.12-.2-.2-.22-.36.22-.59.58-.15.82-.07.63.22,1.14.7,1.76.94l.28.21C427.56,237.58,427.25,237.66,426.87,237.64Z" transform="translate(-355.19 -179.01)"/><path class="cls-113" d="M415.42,239.05a.13.13,0,0,1,.14,0c-.46.39-.94.78.08,1.27-.86.28-1.24-.37-1.79-.54-.11,0-.06-.33.1-.34.38,0,.58-.62,1.07-.3C415.09,239.24,415.28,239.11,415.42,239.05Z" transform="translate(-355.19 -179.01)"/><path class="cls-114" d="M421.22,233.37a2.67,2.67,0,0,1,2.57-.53c.06,0,.14.16.12.2s-.14.22-.23.24a2.57,2.57,0,0,1-.87,0A3.22,3.22,0,0,0,421.22,233.37Z" transform="translate(-355.19 -179.01)"/><path class="cls-115" d="M435.47,216.1v1.08h-.34A.39.39,0,0,1,435,217c0-.14,0-.28,0-.43V217a.33.33,0,0,1-.09.23l-.37.59C434.18,216.62,434.39,216.23,435.47,216.1Z" transform="translate(-355.19 -179.01)"/><path class="cls-116" d="M422,223.08c.28-.12.34-.56.74-.51.19.26,0,.4-.18.54.29.51,0,1.09.18,1.61l0,.25a1.56,1.56,0,0,1-.7-1,1.22,1.22,0,0,1,0-.92Z" transform="translate(-355.19 -179.01)"/><path class="cls-117" d="M417.35,239.77l.9.25a2.64,2.64,0,0,1-2.34.37Z" transform="translate(-355.19 -179.01)"/><path class="cls-70" d="M427.3,236.9c-.8.07-1.22-.77-2-.84-.21,0-.4-.32-.62,0-.22,0-.48,0-.59-.21,0-.06.14-.21.22-.32.27-.08.49.09.72.17l.19,0a.42.42,0,0,1,.51.22C426.24,236.27,426.91,236.38,427.3,236.9Z" transform="translate(-355.19 -179.01)"/><path class="cls-31" d="M435,217.18c0-.19-.06-.39.09-.56.15.17.06.38.09.56v4.27H435Z" transform="translate(-355.19 -179.01)"/><path class="cls-118" d="M422.41,234.76a1.49,1.49,0,0,1,0-.21c0-.47.57-.2.72-.5a.11.11,0,0,1,.18,0l.06.07c.17.26.69-.09.68.32s-.48.3-.77.36a.41.41,0,0,1-.53,0Z" transform="translate(-355.19 -179.01)"/><path class="cls-119" d="M415.8,230.62l-.75-1.06c.05-.24-.1-.51.15-.71h0c.16,0,.49-.11.43.05-.26.76.46,1.24.47,1.9C416,230.73,415.9,230.68,415.8,230.62Z" transform="translate(-355.19 -179.01)"/><path class="cls-120" d="M427.58,240a2.1,2.1,0,0,0,.49-2.29c.39,0,.53.1.51.6C428.54,239.07,428.41,239.69,427.58,240Z" transform="translate(-355.19 -179.01)"/><path class="cls-121" d="M425.77,235.87l-.51-.22c.6-.12,1.11-.87,1.84-.22A1.45,1.45,0,0,0,425.77,235.87Z" transform="translate(-355.19 -179.01)"/><path class="cls-122" d="M414.28,246.66a.19.19,0,0,1-.16,0c0-.38-.24-.77,0-1.12a.22.22,0,0,1,.37,0C414.73,246,414.41,246.3,414.28,246.66Z" transform="translate(-355.19 -179.01)"/><path class="cls-111" d="M431.94,229.52a2.72,2.72,0,0,1,1,.59C432.18,230.67,432,230.2,431.94,229.52Z" transform="translate(-355.19 -179.01)"/><path class="cls-1" d="M420.59,234.06l-.9-.18-.36-.53.23,0,1,.52C420.6,233.91,420.59,234,420.59,234.06Z" transform="translate(-355.19 -179.01)"/><path class="cls-123" d="M433.34,221.49h-.72c.18-.59.62-.34,1-.29.11,0,.2.15.07.24A.76.76,0,0,1,433.34,221.49Z" transform="translate(-355.19 -179.01)"/><path class="cls-112" d="M418.81,231.47a.34.34,0,0,1-.28-.38c0-.16.06-.36.28-.37a.26.26,0,0,1,.27.27A.46.46,0,0,1,418.81,231.47Z" transform="translate(-355.19 -179.01)"/><path class="cls-124" d="M423.28,234.05h-.18c-.14-.05-.43-.07-.18-.29s.48-.1.75,0Z" transform="translate(-355.19 -179.01)"/><path class="cls-110" d="M435,231.87l.15.16a.4.4,0,0,1-.58.17s0-.16,0-.23C434.67,231.72,434.87,231.89,435,231.87Z" transform="translate(-355.19 -179.01)"/><path class="cls-125" d="M423,226.5c-.15,0-.28,0-.31-.14s.12-.18.23-.19.25,0,.28.14S423.05,226.46,423,226.5Z" transform="translate(-355.19 -179.01)"/><path class="cls-126" d="M422.72,234.76l.53,0,.45.32-.23.19C423.18,235.17,422.87,235.08,422.72,234.76Z" transform="translate(-355.19 -179.01)"/><path class="cls-118" d="M424.17,235.33l-.17-.06c0-.27.21-.34.45-.3s.25.22.25.41A.7.7,0,0,1,424.17,235.33Z" transform="translate(-355.19 -179.01)"/><path class="cls-126" d="M424.17,235.33l.52,0,.38.29a1.2,1.2,0,0,1-.72-.17Z" transform="translate(-355.19 -179.01)"/><path class="cls-74" d="M422,223.09c0,.31,0,.61,0,.92A.71.71,0,0,1,422,223.09Z" transform="translate(-355.19 -179.01)"/><path class="cls-112" d="M418.89,229.61c-.05,0-.14.07-.19,0s-.09-.13-.13-.19a.52.52,0,0,1,.16-.06C418.82,229.42,418.9,229.46,418.89,229.61Z" transform="translate(-355.19 -179.01)"/><path class="cls-1" d="M378.75,248.42A1.12,1.12,0,0,1,378,248a.9.9,0,0,1,.8-.27h5c.28,0,.63-.09.69.36h0c-.28.24-.62.17-.95.18h-3.86a1.25,1.25,0,0,0-.94.17Z" transform="translate(-355.19 -179.01)"/><path class="cls-1" d="M386.83,241.06v1.08A.82.82,0,0,1,386.83,241.06Z" transform="translate(-355.19 -179.01)"/><path class="cls-1" d="M386.83,245.37v1.08A.82.82,0,0,1,386.83,245.37Z" transform="translate(-355.19 -179.01)"/><path class="cls-127" d="M428.66,221.85a2.84,2.84,0,0,1,1.08.17,2,2,0,0,1-1.95.32,11.77,11.77,0,0,0-2.9-.14c-.19-.38-.46-.4-.81-.22s-.66.27-1,.4c1.07-1.09,2.45-1,3.76-.82.53.06,1.14-.1,1.63.29,0,.1-.21.15-.17.16A.3.3,0,0,0,428.66,221.85Z" transform="translate(-355.19 -179.01)"/><path class="cls-127" d="M424.72,222.56c.06.8-.59.76-1.08.88-.2.05-.35-.1-.26-.33s.05-.71.55-.66l.79.11Z" transform="translate(-355.19 -179.01)"/><path class="cls-128" d="M424.32,224.81a.71.71,0,0,1-.78-.39c-.05-.11.06-.21.2-.22C424.13,224.16,424.24,224.42,424.32,224.81Z" transform="translate(-355.19 -179.01)"/><path class="cls-127" d="M422.56,223.1l.18-.54a.37.37,0,0,1,.36-.18C422.9,222.61,423,223.07,422.56,223.1Z" transform="translate(-355.19 -179.01)"/><path class="cls-129" d="M413.94,222.38c-.22-.54.35-1.08,0-1.62h0c.16-.13.31-.28.54-.17.55.45,0,1,.08,1.53a22.29,22.29,0,0,1,.47,4,.66.66,0,1,1-.62-.15c.18-.84-.66-1.7,0-2.55-.74-.22,0-.71-.19-1C414.19,222.26,414.05,222.36,413.94,222.38Z" transform="translate(-355.19 -179.01)"/><path class="cls-42" d="M414.48,220.59l-.54.17a1.24,1.24,0,0,1,.34-.77C414.35,220.19,414.41,220.39,414.48,220.59Z" transform="translate(-355.19 -179.01)"/><path class="cls-88" d="M393.12,204.61a9.16,9.16,0,0,1-3.42-.16,2.22,2.22,0,0,0-.88.07,1.83,1.83,0,0,1-1.46-.14c-.45-.28-1-.08-1.49-.13-.93-.1-1.89.22-2.81-.18a6.2,6.2,0,0,1,2.46-.27,5.57,5.57,0,0,0,1.68-.09.14.14,0,0,1,.16,0,27.9,27.9,0,0,1,4.66.16c.51.07,1-.14,1.51-.06s.85-.1,1,.44h0a14.29,14.29,0,0,1-1.43.37Z" transform="translate(-355.19 -179.01)"/><path class="cls-91" d="M394.55,204.25a.79.79,0,0,0-.71-.3c-1.3.28-2.61-.21-3.91.07-.19,0-.48.08-.6,0a1.44,1.44,0,0,0-1.5-.16.37.37,0,0,1-.47-.13,30.77,30.77,0,0,1,9.38.52A9.43,9.43,0,0,1,394.55,204.25Z" transform="translate(-355.19 -179.01)"/><path class="cls-91" d="M387.2,203.71c-.24.27-.55.18-.84.18a20.11,20.11,0,0,0-3.29.18h0c-.48-.25-1,.28-1.44,0-.15-.22-.38-.16-.59-.2A48.65,48.65,0,0,1,387.2,203.71Z" transform="translate(-355.19 -179.01)"/><path class="cls-1" d="M409.45,220.77h-.54l.18-2c.2-.16.47-.45.51.06A3.29,3.29,0,0,1,409.45,220.77Z" transform="translate(-355.19 -179.01)"/><path class="cls-130" d="M425.26,238.72l.51,0v-.16c-.94,0-1.88,0-2.82,0-.31,0-.66.12-.92-.17h4.37c.29,0,.6.1.84-.17h.18c.27.3-.32.6,0,.9a2.8,2.8,0,0,1-2.32,1.16c-1.91-.24-3.89.33-5.77-.44-.13-.77.5-.38.79-.52a1.49,1.49,0,0,1,.42,0,20.94,20.94,0,0,0,3.79.25,2.25,2.25,0,0,0,1-.18c.1,0,.3,0,.3-.13s-.21-.13-.31-.22S425.19,238.86,425.26,238.72Z" transform="translate(-355.19 -179.01)"/><path class="cls-1" d="M420.05,239.44c-.12.36-.73-.25-.72.36-.51,0-1.12.13-1.08-.72,1.95-.49,3.92,0,5.88-.18a2.27,2.27,0,0,0,1.12-.18l.18.18c-.13.55-.59.41-.94.42-1.26,0-2.51,0-3.77,0C420.49,239.32,420.25,239.25,420.05,239.44Z" transform="translate(-355.19 -179.01)"/><path class="cls-29" d="M427.41,239.08c-.19,0-.43,0-.49-.21s.12-.29.28-.35.19-.19.21-.34c.45-.33.59-.09.49.32C427.84,238.72,427.58,238.89,427.41,239.08Z" transform="translate(-355.19 -179.01)"/><path class="cls-1" d="M416.09,247.71c-.35-.07-.75.14-1.06-.18C415.38,247.58,415.78,247.36,416.09,247.71Z" transform="translate(-355.19 -179.01)"/><path class="cls-1" d="M395.81,234.23c-.38.34-.84.11-1.26.18C394.93,234.07,395.39,234.3,395.81,234.23Z" transform="translate(-355.19 -179.01)"/><path class="cls-12" d="M432.79,222.41c.33-.47.77.16,1.1-.22a.64.64,0,0,1-.59.39C433.11,222.58,432.92,222.59,432.79,222.41Z" transform="translate(-355.19 -179.01)"/><path class="cls-69" d="M378.75,248.42c.08-.5.48-.35.77-.35h5c-.08.49-.48.35-.77.35Z" transform="translate(-355.19 -179.01)"/><path class="cls-1" d="M419.51,234.05c-.48-.08-1,.18-1.44-.18C418.55,234,419.07,233.69,419.51,234.05Z" transform="translate(-355.19 -179.01)"/><path class="cls-12" d="M415.2,228.85c0,.24.08.51-.15.71-.08-.1-.15-.2-.23-.29C414.84,229,414.93,228.86,415.2,228.85Z" transform="translate(-355.19 -179.01)"/><path class="cls-26" d="M396.51,221.16c-.19.06-.42.21-.6-.08a.25.25,0,0,1,0-.32c.2-.22.42-.11.66,0a1.27,1.27,0,0,0,.61,0c.36-.11.73-.25.9.23s.61.83,0,1.35c-.13.11-.62.29-.52.76,0,.1-.31.54-.61.33s-.92-.28-1-.81.23-.35.47-.21a.73.73,0,0,0,1,0,.63.63,0,0,0,.06-.75A.82.82,0,0,0,396.51,221.16Z" transform="translate(-355.19 -179.01)"/><path class="cls-131" d="M386.84,223.64V213.17c0-.29-.1-.6.17-.84v10.38C387,223,387.13,223.37,386.84,223.64Z" transform="translate(-355.19 -179.01)"/><path class="cls-16" d="M395.63,214.66c.2.44-.07.48-.41.55-1,.2-1.38-.68-2-1.07-.15-.09-.11-.43.08-.55a.43.43,0,0,1,.65.25.8.8,0,0,0,1,.65A.43.43,0,0,1,395.63,214.66Z" transform="translate(-355.19 -179.01)"/><path class="cls-132" d="M393.11,225.08h-2.75A2.65,2.65,0,0,1,393.11,225.08Z" transform="translate(-355.19 -179.01)"/><path class="cls-133" d="M396,224.38l-.28.33h-.45c-.12-.26-.63-.07-.59-.48,0-.2.24-.21.41-.22a.52.52,0,0,1,.72,0H396C396,224.13,396,224.25,396,224.38Z" transform="translate(-355.19 -179.01)"/><path class="cls-134" d="M395.63,214.66a1.21,1.21,0,0,0-.72-.18c0-.19-.42-.39-.13-.49a1,1,0,0,1,1.1.1C396.1,214.3,396,214.6,395.63,214.66Z" transform="translate(-355.19 -179.01)"/><path class="cls-135" d="M395.27,213.05a1.16,1.16,0,0,1,.72.18c.17.32.05.49-.3.53a.71.71,0,0,1-.77-.28C394.71,213.11,395.27,213.29,395.27,213.05Z" transform="translate(-355.19 -179.01)"/><path class="cls-136" d="M397,222.18c-.37,0-.54-.12-.57-.37a.4.4,0,0,1,.36-.43.47.47,0,0,1,.54.45C397.39,222.08,397.16,222.15,397,222.18Z" transform="translate(-355.19 -179.01)"/><path class="cls-137" d="M395.81,224h-.72c0-.13-.3-.29-.14-.32S395.7,223.44,395.81,224Z" transform="translate(-355.19 -179.01)"/><path class="cls-133" d="M396.34,223.68s.11.12.09.16-.22.15-.36.15-.05-.12,0-.16S396.17,223.66,396.34,223.68Z" transform="translate(-355.19 -179.01)"/><path class="cls-138" d="M387.37,205.33a20.67,20.67,0,0,1-3.77-.18,4.92,4.92,0,0,1-2-.18c.12-.61.73-.45,1-.45,1.47,0,2.92.37,4.4.29C387.37,204.79,387.36,205.09,387.37,205.33Z" transform="translate(-355.19 -179.01)"/><path class="cls-88" d="M381.62,204.07c.48.07,1-.45,1.44,0C382.58,204.13,382.1,204.48,381.62,204.07Z" transform="translate(-355.19 -179.01)"/><path class="cls-11" d="M394.19,210.89c-.14,0-.38.1-.39-.14s.23-.2.39-.22Z" transform="translate(-355.19 -179.01)"/><path class="cls-11" d="M401.56,218.43c0,.25.08.53-.18.72v-1.8C401.7,217.67,401.5,218.07,401.56,218.43Z" transform="translate(-355.19 -179.01)"/><path class="cls-91" d="M393.12,204.61a2.66,2.66,0,0,1,1.44-.36A2.06,2.06,0,0,1,393.12,204.61Z" transform="translate(-355.19 -179.01)"/><path class="cls-139" d="M428.66,221.85c-.2.75-.62.26-1.05.25.29-.39.61-.21.87-.26Z" transform="translate(-355.19 -179.01)"/><path class="cls-21" d="M420.05,239.44c.09-.5.49-.35.78-.35h3.76c.29,0,.61.1.84-.18l.82.25c-.11.43-.43.22-.64.28a9.28,9.28,0,0,1-3.56.14,4.84,4.84,0,0,1-1.65-.14Z" transform="translate(-355.19 -179.01)"/><path class="cls-1" d="M420.41,239.44c1.74,0,3.47.13,5.21,0-.17.11-.34.3-.52.31A13.47,13.47,0,0,1,420.41,239.44Z" transform="translate(-355.19 -179.01)"/></svg>