<svg id="Layer_1" data-name="Layer 1" xmlns="http://www.w3.org/2000/svg" viewBox="0 0 155.22 137.94"><defs><style>.cls-1{fill:#fff;stroke:#69c9ca;stroke-miterlimit:10;stroke-width:3px;}</style></defs><title>react</title><path class="cls-1" d="M414.54,298a23.76,23.76,0,0,0-7.47-8.72,59.94,59.94,0,0,0-15.75-8.19c-2-.75-4.08-1.41-6.14-2-.85-.24-.88-.31-.66-1.12s.36-1.53.54-2.3a78.64,78.64,0,0,0,1.85-12.94,48.25,48.25,0,0,0-.11-7.41,26.8,26.8,0,0,0-3-10.64c-2.34-4.13-5.6-7.06-10.51-7.68h-.1V237a.39.39,0,0,1-.41-.12h-5.4c-.09.2-.25.13-.41.12V237h-.06a14.59,14.59,0,0,0-3.81.78,44.61,44.61,0,0,0-10.83,5.41,82,82,0,0,0-11.61,9.42c-.66.63-.64.63-1.34,0-1.59-1.4-3.12-2.86-4.74-4.22a60.71,60.71,0,0,0-14.27-9.27,21,21,0,0,0-7.41-2.14h-.05V237a.34.34,0,0,1-.42-.12h-5.39c-.1.2-.26.13-.4.13V237h-.1a11.41,11.41,0,0,0-5.25,2,16.8,16.8,0,0,0-6.59,8.8,33.83,33.83,0,0,0-1.78,10.46,56.89,56.89,0,0,0,.48,8.94,87.36,87.36,0,0,0,2,10.87c.18.78.16.83-.59,1.05-1.78.52-3.53,1.07-5.27,1.7a64.12,64.12,0,0,0-15.44,7.61c-3.71,2.6-6.93,5.66-8.86,9.88a14.25,14.25,0,0,0-.71,10.52,20.49,20.49,0,0,0,6.14,9,47,47,0,0,0,12.51,7.76,84.91,84.91,0,0,0,11.46,4.19c.93.27.93.28.7,1.21a85.4,85.4,0,0,0-2.43,16.45,40.54,40.54,0,0,0,.89,10.59,20.72,20.72,0,0,0,3.7,8.39,13.17,13.17,0,0,0,8.77,5.41h.09v-.05h.26a.36.36,0,0,1,.41.12h5.53a.36.36,0,0,1,.42-.12h0l.39,0v.07h0a13.77,13.77,0,0,0,3.36-.7,42.72,42.72,0,0,0,10.2-5,81.76,81.76,0,0,0,12.43-10c.35-.34.59-.43,1-.05,1.59,1.46,3.17,2.92,4.82,4.31a61.84,61.84,0,0,0,14,9.19,21.66,21.66,0,0,0,7.3,2.24h.06v-.05h.54c.12,0,.23,0,.28.1h5.4a.4.4,0,0,1,.43-.12h.39v.05h.06a11.52,11.52,0,0,0,1.33-.21,14,14,0,0,0,5.77-3.37,18.92,18.92,0,0,0,5-8.95c1.5-5.56,1.38-11.21.82-16.87a87.71,87.71,0,0,0-2.09-11.61c-.14-.55,0-.82.55-1q3.44-1,6.79-2.24A59.79,59.79,0,0,0,406.49,320a25.91,25.91,0,0,0,7.6-8.2,15.22,15.22,0,0,0,2-7.28A15.39,15.39,0,0,0,414.54,298Zm-69.76-40a75.63,75.63,0,0,1,12.45-10,34.32,34.32,0,0,1,8.7-4.06,15.28,15.28,0,0,1,4.86-.63,7.94,7.94,0,0,1,6.35,3.42,14.7,14.7,0,0,1,2.25,5.31,35.43,35.43,0,0,1,.71,9.91,75.78,75.78,0,0,1-2,13.39c-.14.59-.28,1.18-.43,1.75a.87.87,0,0,1-.11.18c-1.57-.32-3.13-.65-4.68-.94-3-.58-6-1.05-9-1.44-2-.25-4-.51-6-.65a.93.93,0,0,1-.73-.5q-3.22-4.53-6.74-8.85c-1.72-2.1-3.51-4.17-5.34-6.17l-.39-.44A.43.43,0,0,1,344.78,258Zm-35.92,54.11c2.74,5.27,5.65,10.31,8.86,15.33-4.67-.59-9.14-1.34-13.64-2.35C305.45,320.72,307.05,316.45,308.86,312.14Zm-1.72-19.71c-1-2.67-2-5.38-2.88-8.11a2.33,2.33,0,0,0-.07-.25c-.15-.3,0-.39.27-.46.86-.17,1.7-.36,2.56-.54,3.24-.64,6.5-1.15,9.76-1.61a1.7,1.7,0,0,1,.87,0c-3.14,4.94-6,10-8.79,15.25C308.24,295.18,307.68,293.81,307.14,292.43Zm7.77,17.1c-.76-1.48-1.47-3-2.25-4.45a1.29,1.29,0,0,1,0-1.3,190.85,190.85,0,0,1,10.41-18.56c.91-1.42,1.85-2.82,2.77-4.23a1,1,0,0,1,.85-.51q9-.64,17.94-.4c2.87.08,5.75.2,8.61.4a1,1,0,0,1,.82.46,189.55,189.55,0,0,1,13.3,23,1,1,0,0,1,0,.94,190.74,190.74,0,0,1-13.26,23,1.16,1.16,0,0,1-1,.51c-2.11.11-4.21.24-6.33.32s-4.54.11-7.84.12c-2.62,0-6.26-.13-9.91-.31-.73,0-1.47-.11-2.21-.15a1.13,1.13,0,0,1-1-.56A192.85,192.85,0,0,1,314.91,309.53ZM371,312.27c.22.1.24.28.29.41,1.61,3.89,3.1,7.84,4.38,11.85l.06.19c.13.3,0,.44-.29.5-1,.18-1.93.41-2.9.6-3.26.65-6.54,1.16-9.82,1.6a.63.63,0,0,1-.45-.06Q366.95,320,371,312.27Zm.14-15.79a.82.82,0,0,1-.13.12c-2.7-5.19-5.61-10.21-8.75-15.15a6.57,6.57,0,0,1,1.8.16c3.8.52,7.58,1.17,11.33,2,.44.09.47.12.33.52C374.36,288.32,372.86,292.44,371.12,296.48ZM340,263c3.13,3.39,6,6.89,8.84,10.63-5.94-.22-11.74-.24-17.7,0C334,269.89,336.83,266.39,340,263Zm-39.23-11.66a14,14,0,0,1,2.12-4.63,7.87,7.87,0,0,1,6.25-3.32,17.91,17.91,0,0,1,7.6,1.56,46.5,46.5,0,0,1,9.92,5.8,86.46,86.46,0,0,1,8.25,7.05l.1.09c.39.39.39.39,0,.79-1,1.16-2.08,2.31-3.09,3.48q-4.76,5.52-8.95,11.47a1.48,1.48,0,0,1-1.2.69c-2.08.19-4.16.44-6.23.71-3,.39-5.9.86-8.84,1.44-1.34.26-2.68.53-4,.83-.32.07-.41,0-.49-.31-.63-2.55-1.17-5.13-1.59-7.72a66.24,66.24,0,0,1-.76-7c-.06-.85,0-1.71,0-2.56A28.23,28.23,0,0,1,300.73,251.33Zm-2.38,70.12-.67,2.05c-1.46-.39-2.84-.83-4.24-1.29a67.91,67.91,0,0,1-12-5.15,32.51,32.51,0,0,1-7.19-5.3,15.33,15.33,0,0,1-2.51-3.33,8.06,8.06,0,0,1,0-8.06,17,17,0,0,1,4.29-5,41.86,41.86,0,0,1,9.56-5.76,82,82,0,0,1,11.57-4.2c.5-.15.51-.15.66.32a154.28,154.28,0,0,0,7,18.19,1,1,0,0,1-.06,1A169.66,169.66,0,0,0,298.35,321.45Zm36.74,29.42a70.2,70.2,0,0,1-15.38,11.63,26.2,26.2,0,0,1-7.17,2.69,12,12,0,0,1-4.62.14,7.87,7.87,0,0,1-5.3-3.5,15.42,15.42,0,0,1-2.17-5.41,30.32,30.32,0,0,1-.7-7,65.47,65.47,0,0,1,1.15-11.79c.34-1.88.75-3.74,1.21-5.59.15-.62.16-.61.74-.49,4.21.91,8.45,1.67,12.74,2.23,2.13.28,4.28.52,6.42.74a1,1,0,0,1,.82.47c3,4.24,6.2,8.33,9.61,12.25.88,1,1.76,2,2.66,3C335.3,350.49,335.33,350.62,335.09,350.87Zm4.84-5.05c-3.08-3.34-6-6.85-8.83-10.62,6,.28,11.76.27,17.56,0C348.32,336.13,341.72,344.14,339.93,345.82Zm40.23,3.7a29.09,29.09,0,0,1-1.18,8.65,12.25,12.25,0,0,1-2.58,4.75,7.71,7.71,0,0,1-4.95,2.47,15.16,15.16,0,0,1-6.57-.89,38.71,38.71,0,0,1-9.37-4.83,82.24,82.24,0,0,1-10.75-8.87l-.21-.23c1.15-1.3,2.28-2.56,3.38-3.84,3.2-3.69,6.18-7.54,9-11.53a1.41,1.41,0,0,1,1.14-.67c2.11-.17,4.2-.44,6.29-.71,3.41-.46,6.79-1,10.16-1.69l2.57-.55c.52-.11.52-.11.65.43.61,2.48,1.13,5,1.55,7.51A59,59,0,0,1,380.16,349.52Zm27.93-41a17.48,17.48,0,0,1-4.27,4.91,42.15,42.15,0,0,1-9.61,5.79,81.46,81.46,0,0,1-11.45,4.14c-.58.17-.52.23-.72-.4a159.42,159.42,0,0,0-7-18.06,1.07,1.07,0,0,1,0-.94,156.4,156.4,0,0,0,7-18.14c.16-.51.17-.52.55-.41a72.6,72.6,0,0,1,16.55,6.75,29.17,29.17,0,0,1,6.57,5,12.72,12.72,0,0,1,3.14,5,7.3,7.3,0,0,1,.35,2.32A8.26,8.26,0,0,1,408.09,308.52Z" transform="translate(-262.37 -235.42)"/></svg>